<?xml version="1.0" encoding="us-ascii" standalone="no"?><svg xmlns="http://www.w3.org/2000/svg" xmlns:xlink="http://www.w3.org/1999/xlink" contentStyleType="text/css" height="264.2424px" preserveAspectRatio="none" style="width:800px;height:264px;background:#FFFFFF;" version="1.1" viewBox="0 0 800 264" width="800.6061px" zoomAndPan="magnify"><defs/><g><!--cluster first--><g id="cluster_first"><rect fill="none" height="213.9394" rx="1.5152" ry="1.5152" style="stroke:#181818;stroke-width:0.6060606060606061;" width="180" x="4.2424" y="46.7394"/><path d="M15.1515,46.7394 L15.1515,54.783 L9.0909,60.8436 L4.2424,60.8436 " fill="none" style="stroke:#181818;stroke-width:0.6060606060606061;"/><text fill="#000000" font-family="sans-serif" font-size="8.4848" font-weight="bold" lengthAdjust="spacing" textLength="4.8485" x="6.0606" y="57.1878">1</text></g><!--cluster second--><g id="cluster_second"><rect fill="none" height="213.9394" rx="1.5152" ry="1.5152" style="stroke:#181818;stroke-width:0.6060606060606061;" width="180" x="208.4848" y="46.7394"/><path d="M219.3939,46.7394 L219.3939,54.783 L213.3333,60.8436 L208.4848,60.8436 " fill="none" style="stroke:#181818;stroke-width:0.6060606060606061;"/><text fill="#000000" font-family="sans-serif" font-size="8.4848" font-weight="bold" lengthAdjust="spacing" textLength="4.8485" x="210.303" y="57.1878">2</text></g><!--cluster third--><g id="cluster_third"><rect fill="none" height="213.9394" rx="1.5152" ry="1.5152" style="stroke:#181818;stroke-width:0.6060606060606061;" width="180" x="412.7273" y="46.7394"/><path d="M423.6364,46.7394 L423.6364,54.783 L417.5758,60.8436 L412.7273,60.8436 " fill="none" style="stroke:#181818;stroke-width:0.6060606060606061;"/><text fill="#000000" font-family="sans-serif" font-size="8.4848" font-weight="bold" lengthAdjust="spacing" textLength="4.8485" x="414.5455" y="57.1878">3</text></g><!--cluster fourth--><g id="cluster_fourth"><rect fill="none" height="213.9394" rx="1.5152" ry="1.5152" style="stroke:#181818;stroke-width:0.6060606060606061;" width="180" x="616.9697" y="46.7394"/><path d="M627.8788,46.7394 L627.8788,54.783 L621.8182,60.8436 L616.9697,60.8436 " fill="none" style="stroke:#181818;stroke-width:0.6060606060606061;"/><text fill="#000000" font-family="sans-serif" font-size="8.4848" font-weight="bold" lengthAdjust="spacing" textLength="4.8485" x="618.7879" y="57.1878">4</text></g><!--entity prev1--><g id="elem_prev1"><rect fill="#F1F1F1" height="67.3258" rx="1.5152" ry="1.5152" style="stroke:#181818;stroke-width:0.30303030303030304;" width="32.1212" x="30.6061" y="75.2242"/><text fill="#000000" font-family="sans-serif" font-size="8.4848" font-weight="bold" lengthAdjust="spacing" textLength="20" x="36.6667" y="86.8848">at - 1</text><line style="stroke:#181818;stroke-width:0.6060606060606061;" x1="31.2121" x2="62.1212" y1="89.3284" y2="89.3284"/><line style="stroke:#181818;stroke-width:0.6060606060606061;" x1="31.2121" x2="62.1212" y1="90.5406" y2="90.5406"/><text fill="#000000" font-family="sans-serif" font-size="8.4848" lengthAdjust="spacing" textLength="17.5758" x="36.6667" y="101.5951">prev</text><line style="stroke:#181818;stroke-width:0.6060606060606061;" x1="31.2121" x2="62.1212" y1="106.4629" y2="106.4629"/><text fill="#000000" font-family="sans-serif" font-size="8.4848" lengthAdjust="spacing" textLength="17.5758" x="36.6667" y="118.7295">next</text><line style="stroke:#181818;stroke-width:0.6060606060606061;" x1="31.2121" x2="62.1212" y1="123.5974" y2="123.5974"/><text fill="#000000" font-family="sans-serif" font-size="8.4848" lengthAdjust="spacing" textLength="18.1818" x="36.6667" y="135.864">data</text></g><!--entity current1--><g id="elem_current1"><rect fill="#F1F1F1" height="67.3258" rx="1.5152" ry="1.5152" style="stroke:#181818;stroke-width:0.30303030303030304;" width="30.303" x="84.2424" y="75.2242"/><text fill="#000000" font-family="sans-serif" font-size="8.4848" font-weight="bold" lengthAdjust="spacing" textLength="8.4848" x="90.303" y="86.8848">at</text><line style="stroke:#181818;stroke-width:0.6060606060606061;" x1="84.8485" x2="113.9394" y1="89.3284" y2="89.3284"/><line style="stroke:#181818;stroke-width:0.6060606060606061;" x1="84.8485" x2="113.9394" y1="90.5406" y2="90.5406"/><text fill="#000000" font-family="sans-serif" font-size="8.4848" lengthAdjust="spacing" textLength="17.5758" x="90.303" y="101.5951">prev</text><line style="stroke:#181818;stroke-width:0.6060606060606061;" x1="84.8485" x2="113.9394" y1="106.4629" y2="106.4629"/><text fill="#000000" font-family="sans-serif" font-size="8.4848" lengthAdjust="spacing" textLength="17.5758" x="90.303" y="118.7295">next</text><line style="stroke:#181818;stroke-width:0.6060606060606061;" x1="84.8485" x2="113.9394" y1="123.5974" y2="123.5974"/><text fill="#000000" font-family="sans-serif" font-size="8.4848" lengthAdjust="spacing" textLength="18.1818" x="90.303" y="135.864">data</text></g><!--entity next1--><g id="elem_next1"><rect fill="#F1F1F1" height="67.3258" rx="1.5152" ry="1.5152" style="stroke:#181818;stroke-width:0.30303030303030304;" width="33.9394" x="135.7576" y="75.2242"/><text fill="#000000" font-family="sans-serif" font-size="8.4848" font-weight="bold" lengthAdjust="spacing" textLength="21.8182" x="141.8182" y="86.8848">at + 1</text><line style="stroke:#181818;stroke-width:0.6060606060606061;" x1="136.3636" x2="169.0909" y1="89.3284" y2="89.3284"/><line style="stroke:#181818;stroke-width:0.6060606060606061;" x1="136.3636" x2="169.0909" y1="90.5406" y2="90.5406"/><text fill="#000000" font-family="sans-serif" font-size="8.4848" lengthAdjust="spacing" textLength="17.5758" x="141.8182" y="101.5951">prev</text><line style="stroke:#181818;stroke-width:0.6060606060606061;" x1="136.3636" x2="169.0909" y1="106.4629" y2="106.4629"/><text fill="#000000" font-family="sans-serif" font-size="8.4848" lengthAdjust="spacing" textLength="17.5758" x="141.8182" y="118.7295">next</text><line style="stroke:#181818;stroke-width:0.6060606060606061;" x1="136.3636" x2="169.0909" y1="123.5974" y2="123.5974"/><text fill="#000000" font-family="sans-serif" font-size="8.4848" lengthAdjust="spacing" textLength="18.1818" x="141.8182" y="135.864">data</text></g><!--entity new1--><g id="elem_new1"><rect fill="#98FB98" height="67.3258" rx="1.5152" ry="1.5152" style="stroke:#181818;stroke-width:0.30303030303030304;" width="30.303" x="84.2424" y="178.8606"/><text fill="#000000" font-family="sans-serif" font-size="8.4848" font-weight="bold" lengthAdjust="spacing" textLength="18.1818" x="90.303" y="190.5212">New</text><line style="stroke:#181818;stroke-width:0.6060606060606061;" x1="84.8485" x2="113.9394" y1="192.9648" y2="192.9648"/><line style="stroke:#181818;stroke-width:0.6060606060606061;" x1="84.8485" x2="113.9394" y1="194.1769" y2="194.1769"/><text fill="#000000" font-family="sans-serif" font-size="8.4848" lengthAdjust="spacing" textLength="17.5758" x="90.303" y="205.2314">prev</text><line style="stroke:#181818;stroke-width:0.6060606060606061;" x1="84.8485" x2="113.9394" y1="210.0993" y2="210.0993"/><text fill="#000000" font-family="sans-serif" font-size="8.4848" lengthAdjust="spacing" textLength="17.5758" x="90.303" y="222.3659">next</text><line style="stroke:#181818;stroke-width:0.6060606060606061;" x1="84.8485" x2="113.9394" y1="227.2338" y2="227.2338"/><text fill="#000000" font-family="sans-serif" font-size="8.4848" lengthAdjust="spacing" textLength="18.1818" x="90.303" y="239.5004">data</text></g><!--entity prev2--><g id="elem_prev2"><rect fill="#F1F1F1" height="67.3258" rx="1.5152" ry="1.5152" style="stroke:#181818;stroke-width:0.30303030303030304;" width="32.1212" x="234.8485" y="75.2242"/><text fill="#000000" font-family="sans-serif" font-size="8.4848" font-weight="bold" lengthAdjust="spacing" textLength="20" x="240.9091" y="86.8848">at - 1</text><line style="stroke:#181818;stroke-width:0.6060606060606061;" x1="235.4545" x2="266.3636" y1="89.3284" y2="89.3284"/><line style="stroke:#181818;stroke-width:0.6060606060606061;" x1="235.4545" x2="266.3636" y1="90.5406" y2="90.5406"/><text fill="#000000" font-family="sans-serif" font-size="8.4848" lengthAdjust="spacing" textLength="17.5758" x="240.9091" y="101.5951">prev</text><line style="stroke:#181818;stroke-width:0.6060606060606061;" x1="235.4545" x2="266.3636" y1="106.4629" y2="106.4629"/><text fill="#000000" font-family="sans-serif" font-size="8.4848" lengthAdjust="spacing" textLength="17.5758" x="240.9091" y="118.7295">next</text><line style="stroke:#181818;stroke-width:0.6060606060606061;" x1="235.4545" x2="266.3636" y1="123.5974" y2="123.5974"/><text fill="#000000" font-family="sans-serif" font-size="8.4848" lengthAdjust="spacing" textLength="18.1818" x="240.9091" y="135.864">data</text></g><!--entity current2--><g id="elem_current2"><rect fill="#F1F1F1" height="67.3258" rx="1.5152" ry="1.5152" style="stroke:#181818;stroke-width:0.30303030303030304;" width="30.303" x="288.4848" y="75.2242"/><text fill="#000000" font-family="sans-serif" font-size="8.4848" font-weight="bold" lengthAdjust="spacing" textLength="8.4848" x="294.5455" y="86.8848">at</text><line style="stroke:#181818;stroke-width:0.6060606060606061;" x1="289.0909" x2="318.1818" y1="89.3284" y2="89.3284"/><line style="stroke:#181818;stroke-width:0.6060606060606061;" x1="289.0909" x2="318.1818" y1="90.5406" y2="90.5406"/><text fill="#000000" font-family="sans-serif" font-size="8.4848" lengthAdjust="spacing" textLength="17.5758" x="294.5455" y="101.5951">prev</text><line style="stroke:#181818;stroke-width:0.6060606060606061;" x1="289.0909" x2="318.1818" y1="106.4629" y2="106.4629"/><text fill="#000000" font-family="sans-serif" font-size="8.4848" lengthAdjust="spacing" textLength="17.5758" x="294.5455" y="118.7295">next</text><line style="stroke:#181818;stroke-width:0.6060606060606061;" x1="289.0909" x2="318.1818" y1="123.5974" y2="123.5974"/><text fill="#000000" font-family="sans-serif" font-size="8.4848" lengthAdjust="spacing" textLength="18.1818" x="294.5455" y="135.864">data</text></g><!--entity next2--><g id="elem_next2"><rect fill="#F1F1F1" height="67.3258" rx="1.5152" ry="1.5152" style="stroke:#181818;stroke-width:0.30303030303030304;" width="33.9394" x="340" y="75.2242"/><text fill="#000000" font-family="sans-serif" font-size="8.4848" font-weight="bold" lengthAdjust="spacing" textLength="21.8182" x="346.0606" y="86.8848">at + 1</text><line style="stroke:#181818;stroke-width:0.6060606060606061;" x1="340.6061" x2="373.3333" y1="89.3284" y2="89.3284"/><line style="stroke:#181818;stroke-width:0.6060606060606061;" x1="340.6061" x2="373.3333" y1="90.5406" y2="90.5406"/><text fill="#000000" font-family="sans-serif" font-size="8.4848" lengthAdjust="spacing" textLength="17.5758" x="346.0606" y="101.5951">prev</text><line style="stroke:#181818;stroke-width:0.6060606060606061;" x1="340.6061" x2="373.3333" y1="106.4629" y2="106.4629"/><text fill="#000000" font-family="sans-serif" font-size="8.4848" lengthAdjust="spacing" textLength="17.5758" x="346.0606" y="118.7295">next</text><line style="stroke:#181818;stroke-width:0.6060606060606061;" x1="340.6061" x2="373.3333" y1="123.5974" y2="123.5974"/><text fill="#000000" font-family="sans-serif" font-size="8.4848" lengthAdjust="spacing" textLength="18.1818" x="346.0606" y="135.864">data</text></g><!--entity new2--><g id="elem_new2"><rect fill="#98FB98" height="67.3258" rx="1.5152" ry="1.5152" style="stroke:#181818;stroke-width:0.30303030303030304;" width="30.303" x="288.4848" y="178.8606"/><text fill="#000000" font-family="sans-serif" font-size="8.4848" font-weight="bold" lengthAdjust="spacing" textLength="18.1818" x="294.5455" y="190.5212">New</text><line style="stroke:#181818;stroke-width:0.6060606060606061;" x1="289.0909" x2="318.1818" y1="192.9648" y2="192.9648"/><line style="stroke:#181818;stroke-width:0.6060606060606061;" x1="289.0909" x2="318.1818" y1="194.1769" y2="194.1769"/><text fill="#000000" font-family="sans-serif" font-size="8.4848" lengthAdjust="spacing" textLength="17.5758" x="294.5455" y="205.2314">prev</text><line style="stroke:#181818;stroke-width:0.6060606060606061;" x1="289.0909" x2="318.1818" y1="210.0993" y2="210.0993"/><text fill="#000000" font-family="sans-serif" font-size="8.4848" lengthAdjust="spacing" textLength="17.5758" x="294.5455" y="222.3659">next</text><line style="stroke:#181818;stroke-width:0.6060606060606061;" x1="289.0909" x2="318.1818" y1="227.2338" y2="227.2338"/><text fill="#000000" font-family="sans-serif" font-size="8.4848" lengthAdjust="spacing" textLength="18.1818" x="294.5455" y="239.5004">data</text></g><!--entity prev3--><g id="elem_prev3"><rect fill="#F1F1F1" height="67.3258" rx="1.5152" ry="1.5152" style="stroke:#181818;stroke-width:0.30303030303030304;" width="32.1212" x="439.0909" y="75.2242"/><text fill="#000000" font-family="sans-serif" font-size="8.4848" font-weight="bold" lengthAdjust="spacing" textLength="20" x="445.1515" y="86.8848">at - 1</text><line style="stroke:#181818;stroke-width:0.6060606060606061;" x1="439.697" x2="470.6061" y1="89.3284" y2="89.3284"/><line style="stroke:#181818;stroke-width:0.6060606060606061;" x1="439.697" x2="470.6061" y1="90.5406" y2="90.5406"/><text fill="#000000" font-family="sans-serif" font-size="8.4848" lengthAdjust="spacing" textLength="17.5758" x="445.1515" y="101.5951">prev</text><line style="stroke:#181818;stroke-width:0.6060606060606061;" x1="439.697" x2="470.6061" y1="106.4629" y2="106.4629"/><text fill="#000000" font-family="sans-serif" font-size="8.4848" lengthAdjust="spacing" textLength="17.5758" x="445.1515" y="118.7295">next</text><line style="stroke:#181818;stroke-width:0.6060606060606061;" x1="439.697" x2="470.6061" y1="123.5974" y2="123.5974"/><text fill="#000000" font-family="sans-serif" font-size="8.4848" lengthAdjust="spacing" textLength="18.1818" x="445.1515" y="135.864">data</text></g><!--entity current3--><g id="elem_current3"><rect fill="#F1F1F1" height="67.3258" rx="1.5152" ry="1.5152" style="stroke:#181818;stroke-width:0.30303030303030304;" width="30.303" x="492.7273" y="75.2242"/><text fill="#000000" font-family="sans-serif" font-size="8.4848" font-weight="bold" lengthAdjust="spacing" textLength="8.4848" x="498.7879" y="86.8848">at</text><line style="stroke:#181818;stroke-width:0.6060606060606061;" x1="493.3333" x2="522.4242" y1="89.3284" y2="89.3284"/><line style="stroke:#181818;stroke-width:0.6060606060606061;" x1="493.3333" x2="522.4242" y1="90.5406" y2="90.5406"/><text fill="#000000" font-family="sans-serif" font-size="8.4848" lengthAdjust="spacing" textLength="17.5758" x="498.7879" y="101.5951">prev</text><line style="stroke:#181818;stroke-width:0.6060606060606061;" x1="493.3333" x2="522.4242" y1="106.4629" y2="106.4629"/><text fill="#000000" font-family="sans-serif" font-size="8.4848" lengthAdjust="spacing" textLength="17.5758" x="498.7879" y="118.7295">next</text><line style="stroke:#181818;stroke-width:0.6060606060606061;" x1="493.3333" x2="522.4242" y1="123.5974" y2="123.5974"/><text fill="#000000" font-family="sans-serif" font-size="8.4848" lengthAdjust="spacing" textLength="18.1818" x="498.7879" y="135.864">data</text></g><!--entity next3--><g id="elem_next3"><rect fill="#F1F1F1" height="67.3258" rx="1.5152" ry="1.5152" style="stroke:#181818;stroke-width:0.30303030303030304;" width="33.9394" x="544.2424" y="75.2242"/><text fill="#000000" font-family="sans-serif" font-size="8.4848" font-weight="bold" lengthAdjust="spacing" textLength="21.8182" x="550.303" y="86.8848">at + 1</text><line style="stroke:#181818;stroke-width:0.6060606060606061;" x1="544.8485" x2="577.5758" y1="89.3284" y2="89.3284"/><line style="stroke:#181818;stroke-width:0.6060606060606061;" x1="544.8485" x2="577.5758" y1="90.5406" y2="90.5406"/><text fill="#000000" font-family="sans-serif" font-size="8.4848" lengthAdjust="spacing" textLength="17.5758" x="550.303" y="101.5951">prev</text><line style="stroke:#181818;stroke-width:0.6060606060606061;" x1="544.8485" x2="577.5758" y1="106.4629" y2="106.4629"/><text fill="#000000" font-family="sans-serif" font-size="8.4848" lengthAdjust="spacing" textLength="17.5758" x="550.303" y="118.7295">next</text><line style="stroke:#181818;stroke-width:0.6060606060606061;" x1="544.8485" x2="577.5758" y1="123.5974" y2="123.5974"/><text fill="#000000" font-family="sans-serif" font-size="8.4848" lengthAdjust="spacing" textLength="18.1818" x="550.303" y="135.864">data</text></g><!--entity new3--><g id="elem_new3"><rect fill="#98FB98" height="67.3258" rx="1.5152" ry="1.5152" style="stroke:#181818;stroke-width:0.30303030303030304;" width="30.303" x="492.7273" y="178.8606"/><text fill="#000000" font-family="sans-serif" font-size="8.4848" font-weight="bold" lengthAdjust="spacing" textLength="18.1818" x="498.7879" y="190.5212">New</text><line style="stroke:#181818;stroke-width:0.6060606060606061;" x1="493.3333" x2="522.4242" y1="192.9648" y2="192.9648"/><line style="stroke:#181818;stroke-width:0.6060606060606061;" x1="493.3333" x2="522.4242" y1="194.1769" y2="194.1769"/><text fill="#000000" font-family="sans-serif" font-size="8.4848" lengthAdjust="spacing" textLength="17.5758" x="498.7879" y="205.2314">prev</text><line style="stroke:#181818;stroke-width:0.6060606060606061;" x1="493.3333" x2="522.4242" y1="210.0993" y2="210.0993"/><text fill="#000000" font-family="sans-serif" font-size="8.4848" lengthAdjust="spacing" textLength="17.5758" x="498.7879" y="222.3659">next</text><line style="stroke:#181818;stroke-width:0.6060606060606061;" x1="493.3333" x2="522.4242" y1="227.2338" y2="227.2338"/><text fill="#000000" font-family="sans-serif" font-size="8.4848" lengthAdjust="spacing" textLength="18.1818" x="498.7879" y="239.5004">data</text></g><!--entity prev4--><g id="elem_prev4"><rect fill="#F1F1F1" height="67.3258" rx="1.5152" ry="1.5152" style="stroke:#181818;stroke-width:0.30303030303030304;" width="32.1212" x="643.3333" y="75.2242"/><text fill="#000000" font-family="sans-serif" font-size="8.4848" font-weight="bold" lengthAdjust="spacing" textLength="20" x="649.3939" y="86.8848">at - 1</text><line style="stroke:#181818;stroke-width:0.6060606060606061;" x1="643.9394" x2="674.8485" y1="89.3284" y2="89.3284"/><line style="stroke:#181818;stroke-width:0.6060606060606061;" x1="643.9394" x2="674.8485" y1="90.5406" y2="90.5406"/><text fill="#000000" font-family="sans-serif" font-size="8.4848" lengthAdjust="spacing" textLength="17.5758" x="649.3939" y="101.5951">prev</text><line style="stroke:#181818;stroke-width:0.6060606060606061;" x1="643.9394" x2="674.8485" y1="106.4629" y2="106.4629"/><text fill="#000000" font-family="sans-serif" font-size="8.4848" lengthAdjust="spacing" textLength="17.5758" x="649.3939" y="118.7295">next</text><line style="stroke:#181818;stroke-width:0.6060606060606061;" x1="643.9394" x2="674.8485" y1="123.5974" y2="123.5974"/><text fill="#000000" font-family="sans-serif" font-size="8.4848" lengthAdjust="spacing" textLength="18.1818" x="649.3939" y="135.864">data</text></g><!--entity current4--><g id="elem_current4"><rect fill="#F1F1F1" height="67.3258" rx="1.5152" ry="1.5152" style="stroke:#181818;stroke-width:0.30303030303030304;" width="30.303" x="696.9697" y="75.2242"/><text fill="#000000" font-family="sans-serif" font-size="8.4848" font-weight="bold" lengthAdjust="spacing" textLength="8.4848" x="703.0303" y="86.8848">at</text><line style="stroke:#181818;stroke-width:0.6060606060606061;" x1="697.5758" x2="726.6667" y1="89.3284" y2="89.3284"/><line style="stroke:#181818;stroke-width:0.6060606060606061;" x1="697.5758" x2="726.6667" y1="90.5406" y2="90.5406"/><text fill="#000000" font-family="sans-serif" font-size="8.4848" lengthAdjust="spacing" textLength="17.5758" x="703.0303" y="101.5951">prev</text><line style="stroke:#181818;stroke-width:0.6060606060606061;" x1="697.5758" x2="726.6667" y1="106.4629" y2="106.4629"/><text fill="#000000" font-family="sans-serif" font-size="8.4848" lengthAdjust="spacing" textLength="17.5758" x="703.0303" y="118.7295">next</text><line style="stroke:#181818;stroke-width:0.6060606060606061;" x1="697.5758" x2="726.6667" y1="123.5974" y2="123.5974"/><text fill="#000000" font-family="sans-serif" font-size="8.4848" lengthAdjust="spacing" textLength="18.1818" x="703.0303" y="135.864">data</text></g><!--entity next4--><g id="elem_next4"><rect fill="#F1F1F1" height="67.3258" rx="1.5152" ry="1.5152" style="stroke:#181818;stroke-width:0.30303030303030304;" width="33.9394" x="748.4848" y="75.2242"/><text fill="#000000" font-family="sans-serif" font-size="8.4848" font-weight="bold" lengthAdjust="spacing" textLength="21.8182" x="754.5455" y="86.8848">at + 1</text><line style="stroke:#181818;stroke-width:0.6060606060606061;" x1="749.0909" x2="781.8182" y1="89.3284" y2="89.3284"/><line style="stroke:#181818;stroke-width:0.6060606060606061;" x1="749.0909" x2="781.8182" y1="90.5406" y2="90.5406"/><text fill="#000000" font-family="sans-serif" font-size="8.4848" lengthAdjust="spacing" textLength="17.5758" x="754.5455" y="101.5951">prev</text><line style="stroke:#181818;stroke-width:0.6060606060606061;" x1="749.0909" x2="781.8182" y1="106.4629" y2="106.4629"/><text fill="#000000" font-family="sans-serif" font-size="8.4848" lengthAdjust="spacing" textLength="17.5758" x="754.5455" y="118.7295">next</text><line style="stroke:#181818;stroke-width:0.6060606060606061;" x1="749.0909" x2="781.8182" y1="123.5974" y2="123.5974"/><text fill="#000000" font-family="sans-serif" font-size="8.4848" lengthAdjust="spacing" textLength="18.1818" x="754.5455" y="135.864">data</text></g><!--entity new4--><g id="elem_new4"><rect fill="#98FB98" height="67.3258" rx="1.5152" ry="1.5152" style="stroke:#181818;stroke-width:0.30303030303030304;" width="30.303" x="696.9697" y="178.8606"/><text fill="#000000" font-family="sans-serif" font-size="8.4848" font-weight="bold" lengthAdjust="spacing" textLength="18.1818" x="703.0303" y="190.5212">New</text><line style="stroke:#181818;stroke-width:0.6060606060606061;" x1="697.5758" x2="726.6667" y1="192.9648" y2="192.9648"/><line style="stroke:#181818;stroke-width:0.6060606060606061;" x1="697.5758" x2="726.6667" y1="194.1769" y2="194.1769"/><text fill="#000000" font-family="sans-serif" font-size="8.4848" lengthAdjust="spacing" textLength="17.5758" x="703.0303" y="205.2314">prev</text><line style="stroke:#181818;stroke-width:0.6060606060606061;" x1="697.5758" x2="726.6667" y1="210.0993" y2="210.0993"/><text fill="#000000" font-family="sans-serif" font-size="8.4848" lengthAdjust="spacing" textLength="17.5758" x="703.0303" y="222.3659">next</text><line style="stroke:#181818;stroke-width:0.6060606060606061;" x1="697.5758" x2="726.6667" y1="227.2338" y2="227.2338"/><text fill="#000000" font-family="sans-serif" font-size="8.4848" lengthAdjust="spacing" textLength="18.1818" x="703.0303" y="239.5004">data</text></g><!--link prev1 to current1--><g id="link_prev1_current1"><path codeLine="40" d="M66.3697,108.8606 C73.5273,108.8606 73.4182,108.8606 80.5758,108.8606 " fill="none" id="prev1-current1" style="stroke:#181818;stroke-width:0.6060606060606061;"/><polygon fill="#181818" points="62.7333,108.8606,68.1879,111.2848,65.7636,108.8606,68.1879,106.4364,62.7333,108.8606" style="stroke:#181818;stroke-width:0.6060606060606061;"/><polygon fill="#181818" points="84.2121,108.8606,78.7576,106.4364,81.1818,108.8606,78.7576,111.2848,84.2121,108.8606" style="stroke:#181818;stroke-width:0.6060606060606061;"/></g><!--link current1 to next1--><g id="link_current1_next1"><path codeLine="41" d="M118.2364,108.8606 C125.2848,108.8606 125.0667,108.8606 132.1152,108.8606 " fill="none" id="current1-next1" style="stroke:#181818;stroke-width:0.6060606060606061;"/><polygon fill="#181818" points="114.6,108.8606,120.0545,111.2848,117.6303,108.8606,120.0545,106.4364,114.6,108.8606" style="stroke:#181818;stroke-width:0.6060606060606061;"/><polygon fill="#181818" points="135.7515,108.8606,130.297,106.4364,132.7212,108.8606,130.297,111.2848,135.7515,108.8606" style="stroke:#181818;stroke-width:0.6060606060606061;"/></g><!--link current1 to new1--><g id="link_current1_new1"><path codeLine="42" d="M99.3939,142.7212 C99.3939,154.2848 99.3939,167.2485 99.3939,178.8061 " fill="none" id="current1-new1" style="stroke:#FFFFFF;stroke-width:0.6060606060606061;"/></g><!--link prev2 to current2--><g id="link_prev2_current2"><path codeLine="82" d="M270.6121,108.8606 C277.7697,108.8606 277.6606,108.8606 284.8182,108.8606 " fill="none" id="prev2-current2" style="stroke:#181818;stroke-width:0.6060606060606061;"/><polygon fill="#181818" points="266.9758,108.8606,272.4303,111.2848,270.0061,108.8606,272.4303,106.4364,266.9758,108.8606" style="stroke:#181818;stroke-width:0.6060606060606061;"/><polygon fill="#181818" points="288.4545,108.8606,283,106.4364,285.4242,108.8606,283,111.2848,288.4545,108.8606" style="stroke:#181818;stroke-width:0.6060606060606061;"/></g><!--link current2 to next2--><g id="link_current2_next2"><path codeLine="83" d="M322.4788,108.8606 C329.5273,108.8606 329.3091,108.8606 336.3576,108.8606 " fill="none" id="current2-next2" style="stroke:#181818;stroke-width:0.6060606060606061;"/><polygon fill="#181818" points="318.8424,108.8606,324.297,111.2848,321.8727,108.8606,324.297,106.4364,318.8424,108.8606" style="stroke:#181818;stroke-width:0.6060606060606061;"/><polygon fill="#181818" points="339.9939,108.8606,334.5394,106.4364,336.9636,108.8606,334.5394,111.2848,339.9939,108.8606" style="stroke:#181818;stroke-width:0.6060606060606061;"/></g><!--link current2 to new2--><g id="link_current2_new2"><path codeLine="84" d="M296.3455,142.7212 C295.7576,154.2848 295.7636,167.2485 296.3576,178.8061 " fill="none" id="current2-new2" style="stroke:#FFFFFF;stroke-width:0.6060606060606061;"/></g><!--reverse link current2 to new2--><g id="link_current2_new2"><path codeLine="86" d="M311.5475,146.3523 C312.1718,157.9159 311.9758,167.2485 311.3455,178.8061 " fill="none" id="current2-backto-new2" style="stroke:#008000;stroke-width:1.2121212121212122;"/><polygon fill="#008000" points="311.3515,142.7212,309.2248,148.2985,311.5149,145.7471,314.0663,148.0371,311.3515,142.7212" style="stroke:#008000;stroke-width:1.2121212121212122;"/></g><!--reverse link next2 to new2--><g id="link_next2_new2"><path codeLine="85" d="M338.2665,145.3831 C331.5028,158.3771 325.4545,169.9879 318.8727,182.6242 " fill="none" id="next2-backto-new2" style="stroke:#008000;stroke-width:1.2121212121212122;"/><polygon fill="#008000" points="339.9455,142.1576,335.2766,145.8766,338.5463,144.8455,339.5774,148.1152,339.9455,142.1576" style="stroke:#008000;stroke-width:1.2121212121212122;"/></g><!--link prev3 to current3--><g id="link_prev3_current3"><path codeLine="126" d="M474.8545,108.8606 C482.0121,108.8606 481.903,108.8606 489.0606,108.8606 " fill="none" id="prev3-current3" style="stroke:#181818;stroke-width:0.6060606060606061;"/><polygon fill="#181818" points="471.2182,108.8606,476.6727,111.2848,474.2485,108.8606,476.6727,106.4364,471.2182,108.8606" style="stroke:#181818;stroke-width:0.6060606060606061;"/><polygon fill="#181818" points="492.697,108.8606,487.2424,106.4364,489.6667,108.8606,487.2424,111.2848,492.697,108.8606" style="stroke:#181818;stroke-width:0.6060606060606061;"/></g><!--link current3 to next3--><g id="link_current3_next3"><path codeLine="127" d="M523.0848,108.8606 C530.1333,108.8606 533.5515,108.8606 540.6,108.8606 " fill="none" id="current3-to-next3" style="stroke:#181818;stroke-width:0.6060606060606061;"/><polygon fill="#181818" points="544.2364,108.8606,538.7818,106.4364,541.2061,108.8606,538.7818,111.2848,544.2364,108.8606" style="stroke:#181818;stroke-width:0.6060606060606061;"/></g><!--link current3 to new3--><g id="link_current3_new3"><path codeLine="128" d="M500.5879,142.7212 C500,154.2848 500.0061,167.2485 500.6,178.8061 " fill="none" id="current3-new3" style="stroke:#FFFFFF;stroke-width:0.6060606060606061;"/></g><!--reverse link current3 to new3--><g id="link_current3_new3"><path codeLine="130" d="M515.79,146.3523 C516.4142,157.9159 516.2182,167.2485 515.5879,178.8061 " fill="none" id="current3-backto-new3" style="stroke:#008000;stroke-width:1.2121212121212122;"/><polygon fill="#008000" points="515.5939,142.7212,513.4672,148.2985,515.7573,145.7471,518.3087,148.0371,515.5939,142.7212" style="stroke:#008000;stroke-width:1.2121212121212122;"/></g><!--link next3 to new3--><g id="link_next3_new3"><path codeLine="129" d="M542.5089,145.3831 C535.7453,158.3771 531.3768,166.7628 524.795,179.3991 " fill="none" id="next3-new3" style="stroke:#008000;stroke-width:1.2121212121212122;"/><polygon fill="#008000" points="544.1879,142.1576,539.5191,145.8766,542.7887,144.8455,543.8198,148.1152,544.1879,142.1576" style="stroke:#008000;stroke-width:1.2121212121212122;"/><polygon fill="#008000" points="523.1152,182.6242,527.785,178.9065,524.515,179.9367,523.4848,176.6667,523.1152,182.6242" style="stroke:#008000;stroke-width:1.2121212121212122;"/></g><!--link prev4 to current4--><g id="link_prev4_current4"><path codeLine="170" d="M679.097,108.8606 C686.2545,108.8606 686.1455,108.8606 693.303,108.8606 " fill="none" id="prev4-current4" style="stroke:#181818;stroke-width:0.6060606060606061;"/><polygon fill="#181818" points="675.4606,108.8606,680.9152,111.2848,678.4909,108.8606,680.9152,106.4364,675.4606,108.8606" style="stroke:#181818;stroke-width:0.6060606060606061;"/><polygon fill="#181818" points="696.9394,108.8606,691.4848,106.4364,693.9091,108.8606,691.4848,111.2848,696.9394,108.8606" style="stroke:#181818;stroke-width:0.6060606060606061;"/></g><!--link current4 to next4--><g id="link_current4_next4"><path codeLine="171" d="M727.3273,108.8606 C734.3758,108.8606 741.4303,108.8606 748.4788,108.8606 " fill="none" id="current4-next4" style="stroke:#FFFFFF;stroke-width:0.6060606060606061;"/></g><!--link current4 to new4--><g id="link_current4_new4"><path codeLine="172" d="M704.8303,142.7212 C704.2424,154.2848 704.2485,167.2485 704.8424,178.8061 " fill="none" id="current4-new4" style="stroke:#FFFFFF;stroke-width:0.6060606060606061;"/></g><!--link current4 to new4--><g id="link_current4_new4"><path codeLine="174" d="M720.0324,146.3523 C720.6566,157.9159 720.6586,163.6175 720.0283,175.1751 " fill="none" id="current4-new4-1" style="stroke:#008000;stroke-width:1.2121212121212122;"/><polygon fill="#008000" points="719.8364,142.7212,717.7097,148.2985,719.9997,145.7471,722.5511,148.0371,719.8364,142.7212" style="stroke:#008000;stroke-width:1.2121212121212122;"/><polygon fill="#008000" points="719.8303,178.8061,722.548,173.4916,719.9953,175.7803,717.7067,173.2276,719.8303,178.8061" style="stroke:#008000;stroke-width:1.2121212121212122;"/></g><!--link next4 to new4--><g id="link_next4_new4"><path codeLine="173" d="M746.7513,145.3831 C739.9877,158.3771 735.6192,166.7628 729.0374,179.3991 " fill="none" id="next4-new4" style="stroke:#008000;stroke-width:1.2121212121212122;"/><polygon fill="#008000" points="748.4303,142.1576,743.7615,145.8766,747.0312,144.8455,748.0622,148.1152,748.4303,142.1576" style="stroke:#008000;stroke-width:1.2121212121212122;"/><polygon fill="#008000" points="727.3576,182.6242,732.0274,178.9065,728.7574,179.9367,727.7273,176.6667,727.3576,182.6242" style="stroke:#008000;stroke-width:1.2121212121212122;"/></g><!--link first to second--><g id="link_first_second"><path codeLine="177" d="M10.8942,46.6572 C10.9395,46.5117 10.9851,46.3665 11.0312,46.2214 C11.1234,45.9312 11.2173,45.6419 11.313,45.3534 C11.5043,44.7764 11.7026,44.2028 11.9081,43.6331 C12.3191,42.4936 12.7588,41.3694 13.2291,40.2635 C16.9909,31.417 22.7015,23.7485 31.2121,18.8606 C57.7212,3.6364 142.2788,3.6364 168.7879,18.8606 C187.2303,29.4545 198.2121,50.3909 204.6553,69.4061 C205.4607,71.783 206.1952,74.1298 206.8645,76.4227 C207.1991,77.5692 207.5174,78.7021 207.8202,79.8186 C207.9715,80.3769 208.119,80.931 208.2627,81.4806 C208.3345,81.7554 208.4054,82.0291 208.4753,82.3016 " fill="none" id="first-second" style="stroke:#FFFFFF;stroke-width:0.6060606060606061;"/></g><!--link third to fourth--><g id="link_third_fourth"><path codeLine="178" d="M419.3791,46.6572 C419.4243,46.5117 419.47,46.3665 419.5161,46.2214 C419.6082,45.9312 419.7022,45.6419 419.7978,45.3534 C419.9891,44.7764 420.1874,44.2028 420.3929,43.6331 C420.8039,42.4936 421.2437,41.3694 421.7139,40.2635 C425.4758,31.417 431.1864,23.7485 439.697,18.8606 C466.2061,3.6364 550.7636,3.6364 577.2727,18.8606 C595.7152,29.4545 606.697,50.3909 613.1402,69.4061 C613.9455,71.783 614.68,74.1298 615.3493,76.4227 C615.6839,77.5692 616.0023,78.7021 616.305,79.8186 C616.4564,80.3769 616.6039,80.931 616.7475,81.4806 C616.8194,81.7554 616.8902,82.0291 616.9602,82.3016 " fill="none" id="third-fourth" style="stroke:#FFFFFF;stroke-width:0.6060606060606061;"/></g><!--SRC=[nTP1RuCW503Wkx_YfJikB1KuB9lp9-mFB3jGfTF4QOCubopxxnDG13NToSAfy5xV0_nIssQiul1uF49VvhA8pe9zSZZ41s0jd4lHIlY9O1WP4pbS1F-AuKqlg96SKYO1GMnNNePX9ohTJj0mxAJctt8xaZF9zEHzRfjrGl1QhZhlsrLbhmzxl_TXQzx7S7SP7ik7uBpsD_3A-zswcuUR885IU-DcMzFrcvY-5p-0SZJkkofh_jGNfUJHRpHfmbfJoxEcpfUSS31E-FQSS11EE1Wdx7F2hXhiS5e4HaxOusIQ3ukecxurnlN1djN7XrDJvOjCMtKxULPAj59Pb6A5b0H3IcwFb0H1Ie8X9JvIubeaO8qkrurHicLKLPoGakj8YOUK_8kKcXTpqmbPB9NIO4hfxPNI84ffCANKLqfTZLGf7MzboN5ECM3f5bZgWALNmDfYoL0jTSjjYTN_7jNEnZU_szZypAhWQDaD_W40]--></g></svg>