<?xml version="1.0" encoding="us-ascii" standalone="no"?><svg xmlns="http://www.w3.org/2000/svg" xmlns:xlink="http://www.w3.org/1999/xlink" contentStyleType="text/css" height="380px" preserveAspectRatio="none" style="width:984px;height:380px;background:#FFFFFF;" version="1.1" viewBox="0 0 984 380" width="984px" zoomAndPan="magnify"><defs/><g><!--cluster first--><g id="cluster_first"><rect fill="none" height="297" rx="2.5" ry="2.5" style="stroke:#181818;stroke-width:1.0;" width="297" x="7" y="77.12"/><path d="M25,77.12 L25,90.3919 L15,100.3919 L7,100.3919 " fill="none" style="stroke:#181818;stroke-width:1.0;"/><text fill="#000000" font-family="sans-serif" font-size="14" font-weight="bold" lengthAdjust="spacing" textLength="8" x="10" y="94.3599">1</text></g><!--cluster second--><g id="cluster_second"><rect fill="none" height="297" rx="2.5" ry="2.5" style="stroke:#181818;stroke-width:1.0;" width="297" x="344" y="77.12"/><path d="M362,77.12 L362,90.3919 L352,100.3919 L344,100.3919 " fill="none" style="stroke:#181818;stroke-width:1.0;"/><text fill="#000000" font-family="sans-serif" font-size="14" font-weight="bold" lengthAdjust="spacing" textLength="8" x="347" y="94.3599">2</text></g><!--cluster third--><g id="cluster_third"><rect fill="none" height="297" rx="2.5" ry="2.5" style="stroke:#181818;stroke-width:1.0;" width="297" x="681" y="77.12"/><path d="M699,77.12 L699,90.3919 L689,100.3919 L681,100.3919 " fill="none" style="stroke:#181818;stroke-width:1.0;"/><text fill="#000000" font-family="sans-serif" font-size="14" font-weight="bold" lengthAdjust="spacing" textLength="8" x="684" y="94.3599">3</text></g><!--entity prev1--><g id="elem_prev1"><rect fill="#F1F1F1" height="82.8157" rx="2.5" ry="2.5" style="stroke:#181818;stroke-width:0.5;" width="53" x="50.5" y="124.12"/><text fill="#000000" font-family="sans-serif" font-size="14" font-weight="bold" lengthAdjust="spacing" textLength="33" x="60.5" y="143.3599">at - 1</text><line style="stroke:#181818;stroke-width:1.0;" x1="51.5" x2="102.5" y1="147.3919" y2="147.3919"/><line style="stroke:#181818;stroke-width:1.0;" x1="51.5" x2="102.5" y1="149.3919" y2="149.3919"/><text fill="#000000" font-family="sans-serif" font-size="14" lengthAdjust="spacing" textLength="29" x="60.5" y="167.6318">next</text><line style="stroke:#181818;stroke-width:1.0;" x1="51.5" x2="102.5" y1="175.6638" y2="175.6638"/><text fill="#000000" font-family="sans-serif" font-size="14" lengthAdjust="spacing" textLength="30" x="60.5" y="195.9038">data</text></g><!--entity current1--><g id="elem_current1"><rect fill="#F1F1F1" height="82.8157" rx="2.5" ry="2.5" style="stroke:#181818;stroke-width:0.5;" width="50" x="139" y="124.12"/><text fill="#000000" font-family="sans-serif" font-size="14" font-weight="bold" lengthAdjust="spacing" textLength="14" x="149" y="143.3599">at</text><line style="stroke:#181818;stroke-width:1.0;" x1="140" x2="188" y1="147.3919" y2="147.3919"/><line style="stroke:#181818;stroke-width:1.0;" x1="140" x2="188" y1="149.3919" y2="149.3919"/><text fill="#000000" font-family="sans-serif" font-size="14" lengthAdjust="spacing" textLength="29" x="149" y="167.6318">next</text><line style="stroke:#181818;stroke-width:1.0;" x1="140" x2="188" y1="175.6638" y2="175.6638"/><text fill="#000000" font-family="sans-serif" font-size="14" lengthAdjust="spacing" textLength="30" x="149" y="195.9038">data</text></g><!--entity next1--><g id="elem_next1"><rect fill="#F1F1F1" height="82.8157" rx="2.5" ry="2.5" style="stroke:#181818;stroke-width:0.5;" width="56" x="224" y="124.12"/><text fill="#000000" font-family="sans-serif" font-size="14" font-weight="bold" lengthAdjust="spacing" textLength="36" x="234" y="143.3599">at + 1</text><line style="stroke:#181818;stroke-width:1.0;" x1="225" x2="279" y1="147.3919" y2="147.3919"/><line style="stroke:#181818;stroke-width:1.0;" x1="225" x2="279" y1="149.3919" y2="149.3919"/><text fill="#000000" font-family="sans-serif" font-size="14" lengthAdjust="spacing" textLength="29" x="234" y="167.6318">next</text><line style="stroke:#181818;stroke-width:1.0;" x1="225" x2="279" y1="175.6638" y2="175.6638"/><text fill="#000000" font-family="sans-serif" font-size="14" lengthAdjust="spacing" textLength="30" x="234" y="195.9038">data</text></g><!--entity new1--><g id="elem_new1"><rect fill="#98FB98" height="82.8157" rx="2.5" ry="2.5" style="stroke:#181818;stroke-width:0.5;" width="50" x="139" y="267.12"/><text fill="#000000" font-family="sans-serif" font-size="14" font-weight="bold" lengthAdjust="spacing" textLength="30" x="149" y="286.3599">New</text><line style="stroke:#181818;stroke-width:1.0;" x1="140" x2="188" y1="290.3919" y2="290.3919"/><line style="stroke:#181818;stroke-width:1.0;" x1="140" x2="188" y1="292.3919" y2="292.3919"/><text fill="#000000" font-family="sans-serif" font-size="14" lengthAdjust="spacing" textLength="29" x="149" y="310.6318">next</text><line style="stroke:#181818;stroke-width:1.0;" x1="140" x2="188" y1="318.6638" y2="318.6638"/><text fill="#000000" font-family="sans-serif" font-size="14" lengthAdjust="spacing" textLength="30" x="149" y="338.9038">data</text></g><!--entity prev2--><g id="elem_prev2"><rect fill="#F1F1F1" height="82.8157" rx="2.5" ry="2.5" style="stroke:#181818;stroke-width:0.5;" width="53" x="387.5" y="124.12"/><text fill="#000000" font-family="sans-serif" font-size="14" font-weight="bold" lengthAdjust="spacing" textLength="33" x="397.5" y="143.3599">at - 1</text><line style="stroke:#181818;stroke-width:1.0;" x1="388.5" x2="439.5" y1="147.3919" y2="147.3919"/><line style="stroke:#181818;stroke-width:1.0;" x1="388.5" x2="439.5" y1="149.3919" y2="149.3919"/><text fill="#000000" font-family="sans-serif" font-size="14" lengthAdjust="spacing" textLength="29" x="397.5" y="167.6318">next</text><line style="stroke:#181818;stroke-width:1.0;" x1="388.5" x2="439.5" y1="175.6638" y2="175.6638"/><text fill="#000000" font-family="sans-serif" font-size="14" lengthAdjust="spacing" textLength="30" x="397.5" y="195.9038">data</text></g><!--entity current2--><g id="elem_current2"><rect fill="#F1F1F1" height="82.8157" rx="2.5" ry="2.5" style="stroke:#181818;stroke-width:0.5;" width="50" x="476" y="124.12"/><text fill="#000000" font-family="sans-serif" font-size="14" font-weight="bold" lengthAdjust="spacing" textLength="14" x="486" y="143.3599">at</text><line style="stroke:#181818;stroke-width:1.0;" x1="477" x2="525" y1="147.3919" y2="147.3919"/><line style="stroke:#181818;stroke-width:1.0;" x1="477" x2="525" y1="149.3919" y2="149.3919"/><text fill="#000000" font-family="sans-serif" font-size="14" lengthAdjust="spacing" textLength="29" x="486" y="167.6318">next</text><line style="stroke:#181818;stroke-width:1.0;" x1="477" x2="525" y1="175.6638" y2="175.6638"/><text fill="#000000" font-family="sans-serif" font-size="14" lengthAdjust="spacing" textLength="30" x="486" y="195.9038">data</text></g><!--entity next2--><g id="elem_next2"><rect fill="#F1F1F1" height="82.8157" rx="2.5" ry="2.5" style="stroke:#181818;stroke-width:0.5;" width="56" x="561" y="124.12"/><text fill="#000000" font-family="sans-serif" font-size="14" font-weight="bold" lengthAdjust="spacing" textLength="36" x="571" y="143.3599">at + 1</text><line style="stroke:#181818;stroke-width:1.0;" x1="562" x2="616" y1="147.3919" y2="147.3919"/><line style="stroke:#181818;stroke-width:1.0;" x1="562" x2="616" y1="149.3919" y2="149.3919"/><text fill="#000000" font-family="sans-serif" font-size="14" lengthAdjust="spacing" textLength="29" x="571" y="167.6318">next</text><line style="stroke:#181818;stroke-width:1.0;" x1="562" x2="616" y1="175.6638" y2="175.6638"/><text fill="#000000" font-family="sans-serif" font-size="14" lengthAdjust="spacing" textLength="30" x="571" y="195.9038">data</text></g><!--entity new2--><g id="elem_new2"><rect fill="#98FB98" height="82.8157" rx="2.5" ry="2.5" style="stroke:#181818;stroke-width:0.5;" width="50" x="520" y="267.12"/><text fill="#000000" font-family="sans-serif" font-size="14" font-weight="bold" lengthAdjust="spacing" textLength="30" x="530" y="286.3599">New</text><line style="stroke:#181818;stroke-width:1.0;" x1="521" x2="569" y1="290.3919" y2="290.3919"/><line style="stroke:#181818;stroke-width:1.0;" x1="521" x2="569" y1="292.3919" y2="292.3919"/><text fill="#000000" font-family="sans-serif" font-size="14" lengthAdjust="spacing" textLength="29" x="530" y="310.6318">next</text><line style="stroke:#181818;stroke-width:1.0;" x1="521" x2="569" y1="318.6638" y2="318.6638"/><text fill="#000000" font-family="sans-serif" font-size="14" lengthAdjust="spacing" textLength="30" x="530" y="338.9038">data</text></g><!--entity prev3--><g id="elem_prev3"><rect fill="#F1F1F1" height="82.8157" rx="2.5" ry="2.5" style="stroke:#181818;stroke-width:0.5;" width="53" x="724.5" y="124.12"/><text fill="#000000" font-family="sans-serif" font-size="14" font-weight="bold" lengthAdjust="spacing" textLength="33" x="734.5" y="143.3599">at - 1</text><line style="stroke:#181818;stroke-width:1.0;" x1="725.5" x2="776.5" y1="147.3919" y2="147.3919"/><line style="stroke:#181818;stroke-width:1.0;" x1="725.5" x2="776.5" y1="149.3919" y2="149.3919"/><text fill="#000000" font-family="sans-serif" font-size="14" lengthAdjust="spacing" textLength="29" x="734.5" y="167.6318">next</text><line style="stroke:#181818;stroke-width:1.0;" x1="725.5" x2="776.5" y1="175.6638" y2="175.6638"/><text fill="#000000" font-family="sans-serif" font-size="14" lengthAdjust="spacing" textLength="30" x="734.5" y="195.9038">data</text></g><!--entity current3--><g id="elem_current3"><rect fill="#F1F1F1" height="82.8157" rx="2.5" ry="2.5" style="stroke:#181818;stroke-width:0.5;" width="50" x="813" y="124.12"/><text fill="#000000" font-family="sans-serif" font-size="14" font-weight="bold" lengthAdjust="spacing" textLength="14" x="823" y="143.3599">at</text><line style="stroke:#181818;stroke-width:1.0;" x1="814" x2="862" y1="147.3919" y2="147.3919"/><line style="stroke:#181818;stroke-width:1.0;" x1="814" x2="862" y1="149.3919" y2="149.3919"/><text fill="#000000" font-family="sans-serif" font-size="14" lengthAdjust="spacing" textLength="29" x="823" y="167.6318">next</text><line style="stroke:#181818;stroke-width:1.0;" x1="814" x2="862" y1="175.6638" y2="175.6638"/><text fill="#000000" font-family="sans-serif" font-size="14" lengthAdjust="spacing" textLength="30" x="823" y="195.9038">data</text></g><!--entity next3--><g id="elem_next3"><rect fill="#F1F1F1" height="82.8157" rx="2.5" ry="2.5" style="stroke:#181818;stroke-width:0.5;" width="56" x="898" y="124.12"/><text fill="#000000" font-family="sans-serif" font-size="14" font-weight="bold" lengthAdjust="spacing" textLength="36" x="908" y="143.3599">at + 1</text><line style="stroke:#181818;stroke-width:1.0;" x1="899" x2="953" y1="147.3919" y2="147.3919"/><line style="stroke:#181818;stroke-width:1.0;" x1="899" x2="953" y1="149.3919" y2="149.3919"/><text fill="#000000" font-family="sans-serif" font-size="14" lengthAdjust="spacing" textLength="29" x="908" y="167.6318">next</text><line style="stroke:#181818;stroke-width:1.0;" x1="899" x2="953" y1="175.6638" y2="175.6638"/><text fill="#000000" font-family="sans-serif" font-size="14" lengthAdjust="spacing" textLength="30" x="908" y="195.9038">data</text></g><!--entity new3--><g id="elem_new3"><rect fill="#98FB98" height="82.8157" rx="2.5" ry="2.5" style="stroke:#181818;stroke-width:0.5;" width="50" x="813" y="267.12"/><text fill="#000000" font-family="sans-serif" font-size="14" font-weight="bold" lengthAdjust="spacing" textLength="30" x="823" y="286.3599">New</text><line style="stroke:#181818;stroke-width:1.0;" x1="814" x2="862" y1="290.3919" y2="290.3919"/><line style="stroke:#181818;stroke-width:1.0;" x1="814" x2="862" y1="292.3919" y2="292.3919"/><text fill="#000000" font-family="sans-serif" font-size="14" lengthAdjust="spacing" textLength="29" x="823" y="310.6318">next</text><line style="stroke:#181818;stroke-width:1.0;" x1="814" x2="862" y1="318.6638" y2="318.6638"/><text fill="#000000" font-family="sans-serif" font-size="14" lengthAdjust="spacing" textLength="30" x="823" y="338.9038">data</text></g><!--link prev1 to current1--><g id="link_prev1_current1"><path codeLine="31" d="M103.51,165.62 C115.32,165.62 121.14,165.62 132.95,165.62 " fill="none" id="prev1-to-current1" style="stroke:#181818;stroke-width:1.0;"/><polygon fill="#181818" points="138.95,165.62,129.95,161.62,133.95,165.62,129.95,169.62,138.95,165.62" style="stroke:#181818;stroke-width:1.0;"/></g><!--link current1 to next1--><g id="link_current1_next1"><path codeLine="32" d="M189.09,165.62 C200.72,165.62 206.36,165.62 217.99,165.62 " fill="none" id="current1-to-next1" style="stroke:#181818;stroke-width:1.0;"/><polygon fill="#181818" points="223.99,165.62,214.99,161.62,218.99,165.62,214.99,169.62,223.99,165.62" style="stroke:#181818;stroke-width:1.0;"/></g><!--link current1 to new1--><g id="link_current1_new1"><path codeLine="33" d="M164,207.4 C164,226.11 164,248.23 164,266.93 " fill="none" id="current1-new1" style="stroke:#FFFFFF;stroke-width:1.0;"/></g><!--link prev2 to current2--><g id="link_prev2_current2"><path codeLine="65" d="M440.51,165.62 C452.32,165.62 458.14,165.62 469.95,165.62 " fill="none" id="prev2-to-current2" style="stroke:#181818;stroke-width:1.0;"/><polygon fill="#181818" points="475.95,165.62,466.95,161.62,470.95,165.62,466.95,169.62,475.95,165.62" style="stroke:#181818;stroke-width:1.0;"/></g><!--link current2 to next2--><g id="link_current2_next2"><path codeLine="66" d="M526.09,165.62 C537.72,165.62 543.36,165.62 554.99,165.62 " fill="none" id="current2-to-next2" style="stroke:#181818;stroke-width:1.0;"/><polygon fill="#181818" points="560.99,165.62,551.99,161.62,555.99,165.62,551.99,169.62,560.99,165.62" style="stroke:#181818;stroke-width:1.0;"/></g><!--link current2 to new2--><g id="link_current2_new2"><path codeLine="67" d="M513.73,207.4 C519.56,226.11 526.47,248.23 532.3,266.93 " fill="none" id="current2-new2" style="stroke:#FFFFFF;stroke-width:1.0;"/></g><!--reverse link next2 to new2--><g id="link_next2_new2"><path codeLine="68" d="M574.4851,213.1283 C568.6551,231.8383 563.53,248.23 557.7,266.93 " fill="none" id="next2-backto-new2" style="stroke:#008000;stroke-width:2.0;"/><polygon fill="#008000" points="576.27,207.4,569.7737,214.8026,574.7825,212.1736,577.4115,217.1825,576.27,207.4" style="stroke:#008000;stroke-width:2.0;"/></g><!--link prev3 to current3--><g id="link_prev3_current3"><path codeLine="100" d="M777.51,165.62 C789.32,165.62 795.14,165.62 806.95,165.62 " fill="none" id="prev3-to-current3" style="stroke:#181818;stroke-width:1.0;"/><polygon fill="#181818" points="812.95,165.62,803.95,161.62,807.95,165.62,803.95,169.62,812.95,165.62" style="stroke:#181818;stroke-width:1.0;"/></g><!--link current3 to next3--><g id="link_current3_next3"><path codeLine="101" d="M863.09,165.62 C874.72,165.62 880.36,165.62 891.99,165.62 " fill="none" id="current3-to-next3" style="stroke:#FFFFFF;stroke-width:1.0;"/><polygon fill="#FFFFFF" points="897.99,165.62,888.99,161.62,892.99,165.62,888.99,169.62,897.99,165.62" style="stroke:#FFFFFF;stroke-width:1.0;"/></g><!--link current3 to new3--><g id="link_current3_new3"><path codeLine="102" d="M826.32,207.4 C824.89,226.11 824.89,248.23 826.32,266.93 " fill="none" id="current3-new3" style="stroke:#FFFFFF;stroke-width:1.0;"/></g><!--link current3 to new3--><g id="link_current3_new3"><path codeLine="104" d="M850.37,207.4 C851.88,226.11 852.3661,242.2497 850.8461,260.9497 " fill="none" id="current3-to-new3" style="stroke:#008000;stroke-width:2.0;"/><polygon fill="#008000" points="850.36,266.93,855.076,258.2836,850.7651,261.9464,847.1023,257.6355,850.36,266.93" style="stroke:#008000;stroke-width:2.0;"/></g><!--reverse link next3 to new3--><g id="link_next3_new3"><path codeLine="103" d="M897.3727,212.4897 C885.5927,231.3597 874.82,248.62 863.09,267.42 " fill="none" id="next3-backto-new3" style="stroke:#008000;stroke-width:2.0;"/><polygon fill="#008000" points="900.55,207.4,892.3909,212.9163,897.9022,211.6414,899.1771,217.1527,900.55,207.4" style="stroke:#008000;stroke-width:2.0;"/></g><!--link first to second--><g id="link_first_second"><path codeLine="107" d="M19.0233,76.6871 C19.089,76.4665 19.1553,76.2461 19.2222,76.026 C19.4898,75.1454 19.7671,74.2688 20.0542,73.3967 C21.2028,69.9081 22.51,66.4914 23.9942,63.1839 C29.9313,49.9538 38.7025,38.47 51.5,31.12 C95.24,6 234.76,6 278.5,31.12 C306.65,47.29 324.6625,78.595 335.8063,106.9363 C338.5922,114.0216 340.9488,120.9216 342.9272,127.3537 C343.1745,128.1577 343.4159,128.9544 343.6515,129.7432 C343.7104,129.9404 343.769,130.1371 343.8271,130.3334 " fill="none" id="first-second" style="stroke:#FFFFFF;stroke-width:1.0;"/></g><!--link second to third--><g id="link_second_third"><path codeLine="108" d="M356.0233,76.6871 C356.089,76.4665 356.1553,76.2461 356.2222,76.026 C356.4898,75.1454 356.7671,74.2688 357.0542,73.3967 C358.2028,69.9081 359.51,66.4914 360.9942,63.1839 C366.9313,49.9538 375.7025,38.47 388.5,31.12 C432.24,6 571.76,6 615.5,31.12 C643.65,47.29 661.6625,78.595 672.8062,106.9363 C675.5922,114.0216 677.9488,120.9216 679.9272,127.3537 C680.1745,128.1577 680.4159,128.9544 680.6515,129.7432 C680.7104,129.9404 680.769,130.1371 680.8271,130.3334 " fill="none" id="second-third" style="stroke:#FFFFFF;stroke-width:1.0;"/></g><!--SRC=[jPNDReCm3CVlF8NL7QTC8hxjWqVe2qmxfCIiI2ojGZecJNltXGII0DrfZK_O3hRn_oVIQF51i2jt87feMjqR-2x0MYsqXBEcpn9UNM2qvqCb330eG-J5Md0KVPdWC6l1aS88vxp5ulL5Qr9cK_yMjSVJsy7lRpEueg64kxFew5qJgMMRFGt_xE6NpZIhmefyxtbVBkM-S1MNR9gjQnKz3iVMKF5J58tNc3kDUwfFIgv5vfb5vhb4vXb5vfb5vWkHUIecZoAlurvalX3PjxP1TfdVcl9k-AVnyU5mwcI20peSpB7L6nemCmsOYmRCI0DcfW4ND62gEaOQSADxFEF9m6jaO2G3_o1ZNQjAYrt3o5qMTh3vbvAsdK9ZrXEM9dy1]--></g></svg>