<?xml version="1.0" encoding="us-ascii" standalone="no"?><svg xmlns="http://www.w3.org/2000/svg" xmlns:xlink="http://www.w3.org/1999/xlink" contentStyleType="text/css" height="752px" preserveAspectRatio="none" style="width:1537px;height:752px;background:#FFFFFF;" version="1.1" viewBox="0 0 1537 752" width="1537px" zoomAndPan="magnify"><defs/><g><!--cluster Min Heap--><g id="cluster_Min Heap"><rect fill="none" height="739.5" rx="2.5" ry="2.5" style="stroke:#181818;stroke-width:1.0;" width="1523" x="7" y="7"/><line style="stroke:#181818;stroke-width:1.0;" x1="7" x2="1530" y1="31.2719" y2="31.2719"/><text fill="#000000" font-family="sans-serif" font-size="14" font-weight="bold" lengthAdjust="spacing" textLength="64" x="736.5" y="25.2399">Min Heap</text></g><!--cluster r1--><g id="cluster_r1"><rect fill="none" height="318" rx="2.5" ry="2.5" style="stroke:#181818;stroke-width:1.0;" width="276" x="39" y="62"/><text fill="#000000" font-family="sans-serif" font-size="14" font-weight="bold" lengthAdjust="spacing" textLength="43" x="155.5" y="80.2399">Step 1</text></g><!--cluster r2--><g id="cluster_r2"><rect fill="none" height="356.5" rx="2.5" ry="2.5" style="stroke:#181818;stroke-width:1.0;" width="349" x="355" y="168"/><text fill="#000000" font-family="sans-serif" font-size="14" font-weight="bold" lengthAdjust="spacing" textLength="43" x="508" y="186.2399">Step 2</text></g><!--cluster r3--><g id="cluster_r3"><rect fill="none" height="345.5" rx="2.5" ry="2.5" style="stroke:#181818;stroke-width:1.0;" width="357" x="744" y="274"/><text fill="#000000" font-family="sans-serif" font-size="14" font-weight="bold" lengthAdjust="spacing" textLength="43" x="901" y="292.2399">Step 3</text></g><!--cluster r4--><g id="cluster_r4"><rect fill="none" height="294.5" rx="2.5" ry="2.5" style="stroke:#181818;stroke-width:1.0;" width="357" x="1141" y="420"/><text fill="#000000" font-family="sans-serif" font-size="14" font-weight="bold" lengthAdjust="spacing" textLength="43" x="1298" y="438.2399">Step 4</text></g><g id="elem_t1n1"><ellipse cx="206.799" cy="126.3344" fill="#F1F1F1" rx="22.799" ry="17.3344" style="stroke:#181818;stroke-width:0.5;"/><text fill="#000000" font-family="sans-serif" font-size="14" lengthAdjust="spacing" textLength="16" x="198.799" y="130.4384">10</text></g><g id="elem_t1n2"><ellipse cx="166.799" cy="232.3344" fill="#F1F1F1" rx="22.799" ry="17.3344" style="stroke:#181818;stroke-width:0.5;"/><text fill="#000000" font-family="sans-serif" font-size="14" lengthAdjust="spacing" textLength="16" x="158.799" y="236.4384">15</text></g><g id="elem_t1n3"><ellipse cx="250.799" cy="232.3344" fill="#F1F1F1" rx="22.799" ry="17.3344" style="stroke:#181818;stroke-width:0.5;"/><text fill="#000000" font-family="sans-serif" font-size="14" lengthAdjust="spacing" textLength="16" x="242.799" y="236.4384">20</text></g><g id="elem_t1n4"><ellipse cx="85.799" cy="338.3344" fill="#F1F1F1" rx="22.799" ry="17.3344" style="stroke:#181818;stroke-width:0.5;"/><text fill="#000000" font-family="sans-serif" font-size="14" lengthAdjust="spacing" textLength="16" x="77.799" y="342.4384">35</text></g><g id="elem_t1n5"><ellipse cx="166.799" cy="338.3344" fill="#F1F1F1" rx="22.799" ry="17.3344" style="stroke:#181818;stroke-width:0.5;"/><text fill="#000000" font-family="sans-serif" font-size="14" lengthAdjust="spacing" textLength="16" x="158.799" y="342.4384">40</text></g><g id="elem_t1n6"><ellipse cx="253.9562" cy="338.3346" fill="#F1F1F1" rx="28.4562" ry="17.3346" style="stroke:#181818;stroke-width:0.5;"/><text fill="#000000" font-family="sans-serif" font-size="14" lengthAdjust="spacing" textLength="24" x="241.8567" y="342.4947">100</text></g><g id="elem_t1n7"><ellipse cx="126.1476" cy="126.4181" fill="#FFFF00" rx="19.1476" ry="15.9181" style="stroke:#181818;stroke-width:0.5;"/><text fill="#000000" font-family="sans-serif" font-size="14" lengthAdjust="spacing" textLength="8" x="121.7818" y="130.753">5</text></g><g id="elem_t2n1"><ellipse cx="525.799" cy="232.3344" fill="#F1F1F1" rx="22.799" ry="17.3344" style="stroke:#181818;stroke-width:0.5;"/><text fill="#000000" font-family="sans-serif" font-size="14" lengthAdjust="spacing" textLength="16" x="517.799" y="236.4384">10</text></g><g id="elem_t2n2"><ellipse cx="482.799" cy="338.3344" fill="#F1F1F1" rx="22.799" ry="17.3344" style="stroke:#181818;stroke-width:0.5;"/><text fill="#000000" font-family="sans-serif" font-size="14" lengthAdjust="spacing" textLength="16" x="474.799" y="342.4384">15</text></g><g id="elem_t2n3"><ellipse cx="569.799" cy="338.3344" fill="#ADD8E6" rx="22.799" ry="17.3344" style="stroke:#181818;stroke-width:0.5;"/><text fill="#000000" font-family="sans-serif" font-size="14" lengthAdjust="spacing" textLength="16" x="561.799" y="342.4384">20</text></g><g id="elem_t2n4"><ellipse cx="401.799" cy="482.8344" fill="#F1F1F1" rx="22.799" ry="17.3344" style="stroke:#181818;stroke-width:0.5;"/><text fill="#000000" font-family="sans-serif" font-size="14" lengthAdjust="spacing" textLength="16" x="393.799" y="486.9384">35</text></g><g id="elem_t2n5"><ellipse cx="482.799" cy="482.8344" fill="#F1F1F1" rx="22.799" ry="17.3344" style="stroke:#181818;stroke-width:0.5;"/><text fill="#000000" font-family="sans-serif" font-size="14" lengthAdjust="spacing" textLength="16" x="474.799" y="486.9384">40</text></g><g id="elem_t2n6"><ellipse cx="569.9562" cy="482.8346" fill="#F1F1F1" rx="28.4562" ry="17.3346" style="stroke:#181818;stroke-width:0.5;"/><text fill="#000000" font-family="sans-serif" font-size="14" lengthAdjust="spacing" textLength="24" x="557.8567" y="486.9947">100</text></g><g id="elem_t2n7"><ellipse cx="653.1476" cy="482.9181" fill="#FFFF00" rx="19.1476" ry="15.9181" style="stroke:#181818;stroke-width:0.5;"/><text fill="#000000" font-family="sans-serif" font-size="14" lengthAdjust="spacing" textLength="8" x="648.7818" y="487.253">5</text></g><g id="elem_t3n1"><ellipse cx="914.799" cy="338.3344" fill="#ADD8E6" rx="22.799" ry="17.3344" style="stroke:#181818;stroke-width:0.5;"/><text fill="#000000" font-family="sans-serif" font-size="14" lengthAdjust="spacing" textLength="16" x="906.799" y="342.4384">10</text></g><g id="elem_t3n2"><ellipse cx="871.799" cy="482.8344" fill="#F1F1F1" rx="22.799" ry="17.3344" style="stroke:#181818;stroke-width:0.5;"/><text fill="#000000" font-family="sans-serif" font-size="14" lengthAdjust="spacing" textLength="16" x="863.799" y="486.9384">15</text></g><g id="elem_t3n3"><ellipse cx="958.9562" cy="577.8346" fill="#F1F1F1" rx="28.4562" ry="17.3346" style="stroke:#181818;stroke-width:0.5;"/><text fill="#000000" font-family="sans-serif" font-size="14" lengthAdjust="spacing" textLength="24" x="946.8567" y="581.9947">100</text></g><g id="elem_t3n4"><ellipse cx="790.799" cy="577.8344" fill="#F1F1F1" rx="22.799" ry="17.3344" style="stroke:#181818;stroke-width:0.5;"/><text fill="#000000" font-family="sans-serif" font-size="14" lengthAdjust="spacing" textLength="16" x="782.799" y="581.9384">35</text></g><g id="elem_t3n5"><ellipse cx="871.799" cy="577.8344" fill="#F1F1F1" rx="22.799" ry="17.3344" style="stroke:#181818;stroke-width:0.5;"/><text fill="#000000" font-family="sans-serif" font-size="14" lengthAdjust="spacing" textLength="16" x="863.799" y="581.9384">40</text></g><g id="elem_t3n6"><ellipse cx="1045.799" cy="577.8344" fill="#F1F1F1" rx="22.799" ry="17.3344" style="stroke:#181818;stroke-width:0.5;"/><text fill="#000000" font-family="sans-serif" font-size="14" lengthAdjust="spacing" textLength="16" x="1037.799" y="581.9384">20</text></g><g id="elem_t3n7"><ellipse cx="959.1476" cy="482.9181" fill="#FFFF00" rx="19.1476" ry="15.9181" style="stroke:#181818;stroke-width:0.5;"/><text fill="#000000" font-family="sans-serif" font-size="14" lengthAdjust="spacing" textLength="8" x="954.7818" y="487.253">5</text></g><g id="elem_t4n1"><ellipse cx="1276.799" cy="577.8344" fill="#F1F1F1" rx="22.799" ry="17.3344" style="stroke:#181818;stroke-width:0.5;"/><text fill="#000000" font-family="sans-serif" font-size="14" lengthAdjust="spacing" textLength="16" x="1268.799" y="581.9384">15</text></g><g id="elem_t4n2"><ellipse cx="1363.799" cy="577.8344" fill="#F1F1F1" rx="22.799" ry="17.3344" style="stroke:#181818;stroke-width:0.5;"/><text fill="#000000" font-family="sans-serif" font-size="14" lengthAdjust="spacing" textLength="16" x="1355.799" y="581.9384">10</text></g><g id="elem_t4n3"><ellipse cx="1195.799" cy="672.8344" fill="#F1F1F1" rx="22.799" ry="17.3344" style="stroke:#181818;stroke-width:0.5;"/><text fill="#000000" font-family="sans-serif" font-size="14" lengthAdjust="spacing" textLength="16" x="1187.799" y="676.9384">35</text></g><g id="elem_t4n4"><ellipse cx="1363.9562" cy="672.8346" fill="#F1F1F1" rx="28.4562" ry="17.3346" style="stroke:#181818;stroke-width:0.5;"/><text fill="#000000" font-family="sans-serif" font-size="14" lengthAdjust="spacing" textLength="24" x="1351.8567" y="676.9947">100</text></g><g id="elem_t4n5"><ellipse cx="1450.799" cy="672.8344" fill="#F1F1F1" rx="22.799" ry="17.3344" style="stroke:#181818;stroke-width:0.5;"/><text fill="#000000" font-family="sans-serif" font-size="14" lengthAdjust="spacing" textLength="16" x="1442.799" y="676.9384">20</text></g><g id="elem_t4n6"><ellipse cx="1276.799" cy="672.8344" fill="#F1F1F1" rx="22.799" ry="17.3344" style="stroke:#181818;stroke-width:0.5;"/><text fill="#000000" font-family="sans-serif" font-size="14" lengthAdjust="spacing" textLength="16" x="1268.799" y="676.9384">40</text></g><g id="elem_t4n7"><ellipse cx="1320.1476" cy="482.9181" fill="#FFFF00" rx="19.1476" ry="15.9181" style="stroke:#181818;stroke-width:0.5;"/><text fill="#000000" font-family="sans-serif" font-size="14" lengthAdjust="spacing" textLength="8" x="1315.7818" y="487.253">5</text></g><!--link t1n1 to t1n2--><g id="link_t1n1_t1n2"><path d="M200.75,143.75 C193.24,163.29 182.8533,190.2797 175.3633,209.7597 " fill="none" id="t1n1-to-t1n2" style="stroke:#181818;stroke-width:1.0;"/><polygon fill="#181818" points="173.21,215.36,180.1735,208.3951,175.0044,210.6931,172.7064,205.524,173.21,215.36" style="stroke:#181818;stroke-width:1.0;"/></g><!--link t1n1 to t1n3--><g id="link_t1n1_t1n3"><path d="M213.68,143.3 C221.95,162.84 233.6247,190.4131 241.9147,210.0331 " fill="none" id="t1n1-to-t1n3" style="stroke:#181818;stroke-width:1.0;"/><polygon fill="#181818" points="244.25,215.56,244.4317,205.7128,242.3039,210.9543,237.0625,208.8265,244.25,215.56" style="stroke:#181818;stroke-width:1.0;"/></g><!--link t1n2 to t1n4--><g id="link_t1n2_t1n4"><path d="M147.43,242.25 C140.04,246.26 131.99,251.56 126,258 C108.74,276.55 99.1684,298.299 93.0884,315.609 " fill="none" id="t1n2-to-t1n4" style="stroke:#181818;stroke-width:1.0;"/><polygon fill="#181818" points="91.1,321.27,97.8565,314.1041,92.757,316.5525,90.3086,311.453,91.1,321.27" style="stroke:#181818;stroke-width:1.0;"/></g><!--link t1n2 to t1n5--><g id="link_t1n2_t1n5"><path d="M167,250.21 C167,269.62 167,295.44 167,314.83 " fill="none" id="t1n2-to-t1n5" style="stroke:#181818;stroke-width:1.0;"/><polygon fill="#181818" points="167,320.83,171,311.83,167,315.83,163,311.83,167,320.83" style="stroke:#181818;stroke-width:1.0;"/></g><!--link t1n3 to t1n6--><g id="link_t1n3_t1n6"><path d="M251.48,250.21 C252.04,269.62 252.7868,295.4425 253.3468,314.8325 " fill="none" id="t1n3-to-t1n6" style="stroke:#181818;stroke-width:1.0;"/><polygon fill="#181818" points="253.52,320.83,257.2585,311.7183,253.3757,315.8321,249.2618,311.9492,253.52,320.83" style="stroke:#181818;stroke-width:1.0;"/></g><!--link t2n1 to t2n2--><g id="link_t2n1_t2n2"><path d="M519.47,249.3 C511.39,268.84 499.992,296.395 491.882,316.015 " fill="none" id="t2n1-to-t2n2" style="stroke:#181818;stroke-width:1.0;"/><polygon fill="#181818" points="489.59,321.56,496.7247,314.7706,491.5,316.9392,489.3314,311.7145,489.59,321.56" style="stroke:#181818;stroke-width:1.0;"/></g><!--link t2n1 to t2n3--><g id="link_t2n1_t2n3"><path d="M532.68,249.3 C540.95,268.84 552.6247,296.4131 560.9147,316.0331 " fill="none" id="t2n1-to-t2n3" style="stroke:#181818;stroke-width:1.0;"/><polygon fill="#181818" points="563.25,321.56,563.4317,311.7128,561.3039,316.9543,556.0625,314.8265,563.25,321.56" style="stroke:#181818;stroke-width:1.0;"/></g><!--link t2n2 to t2n4--><g id="link_t2n2_t2n4"><path d="M473.32,354.43 C465.02,367.39 452.88,386.73 443,404 C430.85,425.25 420.5748,445.0443 412.5548,460.9243 " fill="none" id="t2n2-to-t2n4" style="stroke:#181818;stroke-width:1.0;"/><polygon fill="#181818" points="409.85,466.28,417.4778,460.0496,412.104,461.8169,410.3368,456.4432,409.85,466.28" style="stroke:#181818;stroke-width:1.0;"/></g><!--link t2n2 to t2n5--><g id="link_t2n2_t2n5"><path d="M483,356.13 C483,383.58 483,432.09 483,459.48 " fill="none" id="t2n2-to-t2n5" style="stroke:#181818;stroke-width:1.0;"/><polygon fill="#181818" points="483,465.48,487,456.48,483,460.48,479,456.48,483,465.48" style="stroke:#181818;stroke-width:1.0;"/></g><!--link t2n3 to t2n6--><g id="link_t2n3_t2n6"><path d="M570,356.13 C570,383.58 570,432.09 570,459.48 " fill="none" id="t2n3-to-t2n6" style="stroke:#181818;stroke-width:1.0;"/><polygon fill="#181818" points="570,465.48,574,456.48,570,460.48,566,456.48,570,465.48" style="stroke:#181818;stroke-width:1.0;"/></g><!--link t2n3 to t2n7--><g id="link_t2n3_t2n7"><path d="M581.36,353.86 C591.18,366.62 605.41,385.98 616,404 C628.53,425.32 637.937,446.0364 644.707,461.9964 " fill="none" id="t2n3-to-t2n7" style="stroke:#181818;stroke-width:1.0;"/><polygon fill="#181818" points="647.05,467.52,647.2179,457.6726,645.0975,462.917,639.853,460.7966,647.05,467.52" style="stroke:#181818;stroke-width:1.0;"/></g><!--link t3n1 to t3n2--><g id="link_t3n1_t3n2"><path d="M910.07,355.85 C901.77,383.33 886.8622,432.7355 878.6122,460.0955 " fill="none" id="t3n1-to-t3n2" style="stroke:#181818;stroke-width:1.0;"/><polygon fill="#181818" points="876.88,465.84,883.3079,458.378,878.3235,461.0529,875.6486,456.0684,876.88,465.84" style="stroke:#181818;stroke-width:1.0;"/></g><!--link t3n1 to t3n7--><g id="link_t3n1_t3n7"><path d="M920.05,355.85 C928.67,383.77 944.3398,434.5171 952.6398,461.3971 " fill="none" id="t3n1-to-t3n7" style="stroke:#181818;stroke-width:1.0;"/><polygon fill="#181818" points="954.41,467.13,955.5766,457.3505,952.9348,462.3526,947.9327,459.7108,954.41,467.13" style="stroke:#181818;stroke-width:1.0;"/></g><!--link t3n2 to t3n4--><g id="link_t3n2_t3n4"><path d="M859.7,498.12 C844.38,515.71 822.3419,541.0265 807.0919,558.5265 " fill="none" id="t3n2-to-t3n4" style="stroke:#181818;stroke-width:1.0;"/><polygon fill="#181818" points="803.15,563.05,812.0784,558.8927,806.4349,559.2805,806.0472,553.6369,803.15,563.05" style="stroke:#181818;stroke-width:1.0;"/></g><!--link t3n2 to t3n5--><g id="link_t3n2_t3n5"><path d="M872,500.63 C872,517.45 872,537.32 872,554.2 " fill="none" id="t3n2-to-t3n5" style="stroke:#181818;stroke-width:1.0;"/><polygon fill="#181818" points="872,560.2,876,551.2,872,555.2,868,551.2,872,560.2" style="stroke:#181818;stroke-width:1.0;"/></g><!--link t3n7 to t3n6--><g id="link_t3n7_t3n6"><path d="M970.37,496.16 C986.59,513.49 1012.1511,540.8183 1029.1111,558.9483 " fill="none" id="t3n7-to-t3n6" style="stroke:#181818;stroke-width:1.0;"/><polygon fill="#181818" points="1033.21,563.33,1029.9828,554.0249,1029.7942,559.6786,1024.1405,559.4901,1033.21,563.33" style="stroke:#181818;stroke-width:1.0;"/></g><!--link t3n7 to t3n3--><g id="link_t3n7_t3n3"><path d="M959,499.36 C959,516.18 959,537.05 959,554.36 " fill="none" id="t3n7-to-t3n3" style="stroke:#181818;stroke-width:1.0;"/><polygon fill="#181818" points="959,560.36,963,551.36,959,555.36,955,551.36,959,560.36" style="stroke:#181818;stroke-width:1.0;"/></g><!--link t4n7 to t4n2--><g id="link_t4n7_t4n2"><path d="M1326.68,498.12 C1334.71,515.1 1345.5839,538.0664 1353.9539,555.7564 " fill="none" id="t4n7-to-t4n2" style="stroke:#181818;stroke-width:1.0;"/><polygon fill="#181818" points="1356.52,561.18,1356.2865,551.3339,1354.3815,556.6604,1349.0551,554.7554,1356.52,561.18" style="stroke:#181818;stroke-width:1.0;"/></g><!--link t4n7 to t4n1--><g id="link_t4n7_t4n1"><path d="M1314.59,498.6 C1310.19,510.12 1303.64,526.54 1297,540.5 C1293.65,547.55 1292.5073,549.9082 1288.8973,556.3382 " fill="none" id="t4n7-to-t4n1" style="stroke:#181818;stroke-width:1.0;"/><polygon fill="#181818" points="1285.96,561.57,1293.8539,555.6804,1288.4078,557.2101,1286.8781,551.764,1285.96,561.57" style="stroke:#181818;stroke-width:1.0;"/></g><!--link t4n2 to t4n4--><g id="link_t4n2_t4n4"><path d="M1364,595.63 C1364,612.45 1364,632.32 1364,649.2 " fill="none" id="t4n2-to-t4n4" style="stroke:#181818;stroke-width:1.0;"/><polygon fill="#181818" points="1364,655.2,1368,646.2,1364,650.2,1360,646.2,1364,655.2" style="stroke:#181818;stroke-width:1.0;"/></g><!--link t4n2 to t4n5--><g id="link_t4n2_t4n5"><path d="M1376.84,592.72 C1393.29,610.31 1417.5416,636.2279 1434.0116,653.8379 " fill="none" id="t4n2-to-t4n5" style="stroke:#181818;stroke-width:1.0;"/><polygon fill="#181818" points="1438.11,658.22,1434.8838,648.9146,1434.6946,654.5682,1429.041,654.3791,1438.11,658.22" style="stroke:#181818;stroke-width:1.0;"/></g><!--link t4n1 to t4n6--><g id="link_t4n1_t4n6"><path d="M1277,595.63 C1277,612.45 1277,632.32 1277,649.2 " fill="none" id="t4n1-to-t4n6" style="stroke:#181818;stroke-width:1.0;"/><polygon fill="#181818" points="1277,655.2,1281,646.2,1277,650.2,1273,646.2,1277,655.2" style="stroke:#181818;stroke-width:1.0;"/></g><!--link t4n1 to t4n3--><g id="link_t4n1_t4n3"><path d="M1264.7,593.12 C1249.38,610.71 1227.3419,636.0265 1212.0919,653.5265 " fill="none" id="t4n1-to-t4n3" style="stroke:#181818;stroke-width:1.0;"/><polygon fill="#181818" points="1208.15,658.05,1217.0784,653.8927,1211.4349,654.2805,1211.0472,648.6369,1208.15,658.05" style="stroke:#181818;stroke-width:1.0;"/></g><!--link r1 to r2--><g id="link_r1_r2"><path d="M315.5662,127.4027 C316.027,127.3982 316.505,127.3936 317.0001,127.3889 C318.9803,127.3703 321.2324,127.3507 323.7365,127.3313 C333.7529,127.2538 347.8005,127.1802 364.6005,127.1853 C398.2003,127.1956 442.8094,127.5212 488.1963,128.7625 C578.97,131.245 672.855,137.39 688,152 C691.095,154.985 693.5578,158.4128 695.4962,162.1324 C696.4653,163.9922 695.2581,160.2843 695.9785,162.2711 " fill="none" id="r1-to-r2" style="stroke:#FFFFFF;stroke-width:1.0;"/><polygon fill="#FFFFFF" points="698.0238,167.9118,698.7164,158.0873,696.3194,163.2113,691.1955,160.8143,698.0238,167.9118" style="stroke:#FFFFFF;stroke-width:1.0;"/></g><!--link r2 to r3--><g id="link_r2_r3"><path d="M704.0591,233.3985 C704.2854,233.396 704.5161,233.3934 704.7513,233.3908 C705.2216,233.3856 705.7096,233.3802 706.2149,233.3748 C708.2363,233.3532 710.5353,233.3302 713.0915,233.3071 C723.3164,233.2146 737.6573,233.1202 754.8083,233.1023 C789.1103,233.0666 834.6531,233.3369 880.9913,234.5413 C973.6675,236.95 1069.525,243.095 1085,258 C1088.0975,260.9838 1090.5622,264.4106 1092.5019,268.1296 C1093.4717,269.989 1092.2638,266.2813 1092.9847,268.2679 " fill="none" id="r2-to-r3" style="stroke:#FFFFFF;stroke-width:1.0;"/><polygon fill="#FFFFFF" points="1095.0312,273.9081,1095.7215,264.0835,1093.3257,269.2079,1088.2013,266.8122,1095.0312,273.9081" style="stroke:#FFFFFF;stroke-width:1.0;"/></g><!--link r3 to r4--><g id="link_r3_r4"><path d="M1101.0643,360.0187 C1101.1414,360.2149 1101.2189,360.4122 1101.2968,360.6105 C1101.6085,361.4037 1101.9269,362.2137 1102.2514,363.0395 C1107.4441,376.2528 1114.2281,393.5156 1121.0113,410.7763 C1127.7944,428.0369 1134.5766,445.2953 1139.7655,458.4998 C1140.0898,459.3251 1140.4079,460.1346 1140.7193,460.9272 C1140.7972,461.1254 1138.6802,455.7381 1138.7573,455.9342 " fill="none" id="r3-to-r4" style="stroke:#FFFFFF;stroke-width:1.0;"/><polygon fill="#FFFFFF" points="1140.9517,461.5185,1141.3829,451.6791,1139.123,456.8649,1133.9372,454.605,1140.9517,461.5185" style="stroke:#FFFFFF;stroke-width:1.0;"/></g><!--SRC=[VPH1ReD034Ntd684wqWPsy2kwswwwWae6IL8Y4Q4AAggtBsJJ72nC6R7-vx8_0Tfc_7WyezkSE-XEUVkDtFn6aCxDSEn3ox_dCBP-Tmr5pVwL_ouhfVGDfSuuFVFSFA3Ly9o3c4T0f_4TOXyajOXySbIMuZJQftopzQk-0bz_ttBUEZn36vtsBt9XGL6CGxCISUb64VcQRDxfjODgMwmwWQhRh3gXhX6qNV7q_JLNyDsys0r3sRpO3GFQlF05Izt5nZ5E30d7PTY79bNEguj8PY4e2K4uwfMhRCRrDnmSsXz2sWPGSq8SBWj15KXoCql5nQu5kF0d7HSYl6QUQLZj8HG4aAgaDTpaVg5xESGjdicJG8h8iq2S5XkAoB30gaMY0jPBYom5-F0d7JylzuozvnNEfOs8eyu_a4LjrCtfPSztZqX2eW9qWplsHy0]--></g></svg>