<?xml version="1.0" encoding="us-ascii" standalone="no"?><svg xmlns="http://www.w3.org/2000/svg" xmlns:xlink="http://www.w3.org/1999/xlink" contentStyleType="text/css" height="282.4291px" preserveAspectRatio="none" style="width:800px;height:282px;background:#FFFFFF;" version="1.1" viewBox="0 0 800 282" width="800.6478px" zoomAndPan="magnify"><defs/><g><!--cluster first--><g id="cluster_first"><rect fill="none" height="117.8947" rx="1.6194" ry="1.6194" style="stroke:#181818;stroke-width:0.6477732793522267;" width="192.3887" x="4.5344" y="49.9563"/><path d="M16.1943,49.9563 L16.1943,58.5535 L9.7166,65.0312 L4.5344,65.0312 " fill="none" style="stroke:#181818;stroke-width:0.6477732793522267;"/><text fill="#000000" font-family="sans-serif" font-size="9.0688" font-weight="bold" lengthAdjust="spacing" textLength="5.1822" x="6.4777" y="61.1238">1</text></g><!--cluster second--><g id="cluster_second"><rect fill="none" height="117.8947" rx="1.6194" ry="1.6194" style="stroke:#181818;stroke-width:0.6477732793522267;" width="192.3887" x="222.834" y="49.9563"/><path d="M234.4939,49.9563 L234.4939,58.5535 L228.0162,65.0312 L222.834,65.0312 " fill="none" style="stroke:#181818;stroke-width:0.6477732793522267;"/><text fill="#000000" font-family="sans-serif" font-size="9.0688" font-weight="bold" lengthAdjust="spacing" textLength="5.1822" x="224.7773" y="61.1238">2</text></g><!--cluster third--><g id="cluster_third"><rect fill="none" height="117.8947" rx="1.6194" ry="1.6194" style="stroke:#181818;stroke-width:0.6477732793522267;" width="192.3887" x="441.1336" y="49.9563"/><path d="M452.7935,49.9563 L452.7935,58.5535 L446.3158,65.0312 L441.1336,65.0312 " fill="none" style="stroke:#181818;stroke-width:0.6477732793522267;"/><text fill="#000000" font-family="sans-serif" font-size="9.0688" font-weight="bold" lengthAdjust="spacing" textLength="5.1822" x="443.0769" y="61.1238">3</text></g><!--cluster fourth--><g id="cluster_fourth"><rect fill="none" height="228.664" rx="1.6194" ry="1.6194" style="stroke:#181818;stroke-width:0.6477732793522267;" width="137.3279" x="659.4332" y="49.9563"/><path d="M671.0931,49.9563 L671.0931,58.5535 L664.6154,65.0312 L659.4332,65.0312 " fill="none" style="stroke:#181818;stroke-width:0.6477732793522267;"/><text fill="#000000" font-family="sans-serif" font-size="9.0688" font-weight="bold" lengthAdjust="spacing" textLength="5.1822" x="661.3765" y="61.1238">4</text></g><!--entity prev1--><g id="elem_prev1"><rect fill="#F1F1F1" height="71.9596" rx="1.6194" ry="1.6194" style="stroke:#181818;stroke-width:0.32388663967611336;" width="34.332" x="32.7126" y="80.4016"/><text fill="#000000" font-family="sans-serif" font-size="9.0688" font-weight="bold" lengthAdjust="spacing" textLength="21.3765" x="39.1903" y="92.8647">at - 1</text><line style="stroke:#181818;stroke-width:0.6477732793522267;" x1="33.3603" x2="66.3968" y1="95.4765" y2="95.4765"/><line style="stroke:#181818;stroke-width:0.6477732793522267;" x1="33.3603" x2="66.3968" y1="96.7721" y2="96.7721"/><text fill="#000000" font-family="sans-serif" font-size="9.0688" lengthAdjust="spacing" textLength="18.7854" x="39.1903" y="108.5874">prev</text><line style="stroke:#181818;stroke-width:0.6477732793522267;" x1="33.3603" x2="66.3968" y1="113.7903" y2="113.7903"/><text fill="#000000" font-family="sans-serif" font-size="9.0688" lengthAdjust="spacing" textLength="18.7854" x="39.1903" y="126.9012">next</text><line style="stroke:#181818;stroke-width:0.6477732793522267;" x1="33.3603" x2="66.3968" y1="132.1041" y2="132.1041"/><text fill="#000000" font-family="sans-serif" font-size="9.0688" lengthAdjust="spacing" textLength="19.4332" x="39.1903" y="145.215">data</text></g><!--entity current1--><g id="elem_current1"><rect fill="#F1F1F1" height="71.9596" rx="1.6194" ry="1.6194" style="stroke:#181818;stroke-width:0.32388663967611336;" width="32.3887" x="90.0405" y="80.4016"/><text fill="#000000" font-family="sans-serif" font-size="9.0688" font-weight="bold" lengthAdjust="spacing" textLength="9.0688" x="96.5182" y="92.8647">at</text><line style="stroke:#181818;stroke-width:0.6477732793522267;" x1="90.6883" x2="121.7814" y1="95.4765" y2="95.4765"/><line style="stroke:#181818;stroke-width:0.6477732793522267;" x1="90.6883" x2="121.7814" y1="96.7721" y2="96.7721"/><text fill="#000000" font-family="sans-serif" font-size="9.0688" lengthAdjust="spacing" textLength="18.7854" x="96.5182" y="108.5874">prev</text><line style="stroke:#181818;stroke-width:0.6477732793522267;" x1="90.6883" x2="121.7814" y1="113.7903" y2="113.7903"/><text fill="#000000" font-family="sans-serif" font-size="9.0688" lengthAdjust="spacing" textLength="18.7854" x="96.5182" y="126.9012">next</text><line style="stroke:#181818;stroke-width:0.6477732793522267;" x1="90.6883" x2="121.7814" y1="132.1041" y2="132.1041"/><text fill="#000000" font-family="sans-serif" font-size="9.0688" lengthAdjust="spacing" textLength="19.4332" x="96.5182" y="145.215">data</text></g><!--entity next1--><g id="elem_next1"><rect fill="#F1F1F1" height="71.9596" rx="1.6194" ry="1.6194" style="stroke:#181818;stroke-width:0.32388663967611336;" width="36.2753" x="145.1012" y="80.4016"/><text fill="#000000" font-family="sans-serif" font-size="9.0688" font-weight="bold" lengthAdjust="spacing" textLength="23.3198" x="151.5789" y="92.8647">at + 1</text><line style="stroke:#181818;stroke-width:0.6477732793522267;" x1="145.749" x2="180.7287" y1="95.4765" y2="95.4765"/><line style="stroke:#181818;stroke-width:0.6477732793522267;" x1="145.749" x2="180.7287" y1="96.7721" y2="96.7721"/><text fill="#000000" font-family="sans-serif" font-size="9.0688" lengthAdjust="spacing" textLength="18.7854" x="151.5789" y="108.5874">prev</text><line style="stroke:#181818;stroke-width:0.6477732793522267;" x1="145.749" x2="180.7287" y1="113.7903" y2="113.7903"/><text fill="#000000" font-family="sans-serif" font-size="9.0688" lengthAdjust="spacing" textLength="18.7854" x="151.5789" y="126.9012">next</text><line style="stroke:#181818;stroke-width:0.6477732793522267;" x1="145.749" x2="180.7287" y1="132.1041" y2="132.1041"/><text fill="#000000" font-family="sans-serif" font-size="9.0688" lengthAdjust="spacing" textLength="19.4332" x="151.5789" y="145.215">data</text></g><!--entity prev2--><g id="elem_prev2"><rect fill="#F1F1F1" height="71.9596" rx="1.6194" ry="1.6194" style="stroke:#181818;stroke-width:0.32388663967611336;" width="34.332" x="251.0121" y="80.4016"/><text fill="#000000" font-family="sans-serif" font-size="9.0688" font-weight="bold" lengthAdjust="spacing" textLength="21.3765" x="257.4899" y="92.8647">at - 1</text><line style="stroke:#181818;stroke-width:0.6477732793522267;" x1="251.6599" x2="284.6964" y1="95.4765" y2="95.4765"/><line style="stroke:#181818;stroke-width:0.6477732793522267;" x1="251.6599" x2="284.6964" y1="96.7721" y2="96.7721"/><text fill="#000000" font-family="sans-serif" font-size="9.0688" lengthAdjust="spacing" textLength="18.7854" x="257.4899" y="108.5874">prev</text><line style="stroke:#181818;stroke-width:0.6477732793522267;" x1="251.6599" x2="284.6964" y1="113.7903" y2="113.7903"/><text fill="#000000" font-family="sans-serif" font-size="9.0688" lengthAdjust="spacing" textLength="18.7854" x="257.4899" y="126.9012">next</text><line style="stroke:#181818;stroke-width:0.6477732793522267;" x1="251.6599" x2="284.6964" y1="132.1041" y2="132.1041"/><text fill="#000000" font-family="sans-serif" font-size="9.0688" lengthAdjust="spacing" textLength="19.4332" x="257.4899" y="145.215">data</text></g><!--entity current2--><g id="elem_current2"><rect fill="#F1F1F1" height="71.9596" rx="1.6194" ry="1.6194" style="stroke:#181818;stroke-width:0.32388663967611336;" width="32.3887" x="308.3401" y="80.4016"/><text fill="#000000" font-family="sans-serif" font-size="9.0688" font-weight="bold" lengthAdjust="spacing" textLength="9.0688" x="314.8178" y="92.8647">at</text><line style="stroke:#181818;stroke-width:0.6477732793522267;" x1="308.9879" x2="340.081" y1="95.4765" y2="95.4765"/><line style="stroke:#181818;stroke-width:0.6477732793522267;" x1="308.9879" x2="340.081" y1="96.7721" y2="96.7721"/><text fill="#000000" font-family="sans-serif" font-size="9.0688" lengthAdjust="spacing" textLength="18.7854" x="314.8178" y="108.5874">prev</text><line style="stroke:#181818;stroke-width:0.6477732793522267;" x1="308.9879" x2="340.081" y1="113.7903" y2="113.7903"/><text fill="#000000" font-family="sans-serif" font-size="9.0688" lengthAdjust="spacing" textLength="18.7854" x="314.8178" y="126.9012">next</text><line style="stroke:#181818;stroke-width:0.6477732793522267;" x1="308.9879" x2="340.081" y1="132.1041" y2="132.1041"/><text fill="#000000" font-family="sans-serif" font-size="9.0688" lengthAdjust="spacing" textLength="19.4332" x="314.8178" y="145.215">data</text></g><!--entity next2--><g id="elem_next2"><rect fill="#F1F1F1" height="71.9596" rx="1.6194" ry="1.6194" style="stroke:#181818;stroke-width:0.32388663967611336;" width="36.2753" x="363.4008" y="80.4016"/><text fill="#000000" font-family="sans-serif" font-size="9.0688" font-weight="bold" lengthAdjust="spacing" textLength="23.3198" x="369.8785" y="92.8647">at + 1</text><line style="stroke:#181818;stroke-width:0.6477732793522267;" x1="364.0486" x2="399.0283" y1="95.4765" y2="95.4765"/><line style="stroke:#181818;stroke-width:0.6477732793522267;" x1="364.0486" x2="399.0283" y1="96.7721" y2="96.7721"/><text fill="#000000" font-family="sans-serif" font-size="9.0688" lengthAdjust="spacing" textLength="18.7854" x="369.8785" y="108.5874">prev</text><line style="stroke:#181818;stroke-width:0.6477732793522267;" x1="364.0486" x2="399.0283" y1="113.7903" y2="113.7903"/><text fill="#000000" font-family="sans-serif" font-size="9.0688" lengthAdjust="spacing" textLength="18.7854" x="369.8785" y="126.9012">next</text><line style="stroke:#181818;stroke-width:0.6477732793522267;" x1="364.0486" x2="399.0283" y1="132.1041" y2="132.1041"/><text fill="#000000" font-family="sans-serif" font-size="9.0688" lengthAdjust="spacing" textLength="19.4332" x="369.8785" y="145.215">data</text></g><!--entity prev3--><g id="elem_prev3"><rect fill="#F1F1F1" height="71.9596" rx="1.6194" ry="1.6194" style="stroke:#181818;stroke-width:0.32388663967611336;" width="34.332" x="469.3117" y="80.4016"/><text fill="#000000" font-family="sans-serif" font-size="9.0688" font-weight="bold" lengthAdjust="spacing" textLength="21.3765" x="475.7895" y="92.8647">at - 1</text><line style="stroke:#181818;stroke-width:0.6477732793522267;" x1="469.9595" x2="502.996" y1="95.4765" y2="95.4765"/><line style="stroke:#181818;stroke-width:0.6477732793522267;" x1="469.9595" x2="502.996" y1="96.7721" y2="96.7721"/><text fill="#000000" font-family="sans-serif" font-size="9.0688" lengthAdjust="spacing" textLength="18.7854" x="475.7895" y="108.5874">prev</text><line style="stroke:#181818;stroke-width:0.6477732793522267;" x1="469.9595" x2="502.996" y1="113.7903" y2="113.7903"/><text fill="#000000" font-family="sans-serif" font-size="9.0688" lengthAdjust="spacing" textLength="18.7854" x="475.7895" y="126.9012">next</text><line style="stroke:#181818;stroke-width:0.6477732793522267;" x1="469.9595" x2="502.996" y1="132.1041" y2="132.1041"/><text fill="#000000" font-family="sans-serif" font-size="9.0688" lengthAdjust="spacing" textLength="19.4332" x="475.7895" y="145.215">data</text></g><!--entity current3--><g id="elem_current3"><rect fill="#F1F1F1" height="71.9596" rx="1.6194" ry="1.6194" style="stroke:#181818;stroke-width:0.32388663967611336;" width="32.3887" x="526.6397" y="80.4016"/><text fill="#000000" font-family="sans-serif" font-size="9.0688" font-weight="bold" lengthAdjust="spacing" textLength="9.0688" x="533.1174" y="92.8647">at</text><line style="stroke:#181818;stroke-width:0.6477732793522267;" x1="527.2874" x2="558.3806" y1="95.4765" y2="95.4765"/><line style="stroke:#181818;stroke-width:0.6477732793522267;" x1="527.2874" x2="558.3806" y1="96.7721" y2="96.7721"/><text fill="#000000" font-family="sans-serif" font-size="9.0688" lengthAdjust="spacing" textLength="18.7854" x="533.1174" y="108.5874">prev</text><line style="stroke:#181818;stroke-width:0.6477732793522267;" x1="527.2874" x2="558.3806" y1="113.7903" y2="113.7903"/><text fill="#000000" font-family="sans-serif" font-size="9.0688" lengthAdjust="spacing" textLength="18.7854" x="533.1174" y="126.9012">next</text><line style="stroke:#181818;stroke-width:0.6477732793522267;" x1="527.2874" x2="558.3806" y1="132.1041" y2="132.1041"/><text fill="#000000" font-family="sans-serif" font-size="9.0688" lengthAdjust="spacing" textLength="19.4332" x="533.1174" y="145.215">data</text></g><!--entity next3--><g id="elem_next3"><rect fill="#F1F1F1" height="71.9596" rx="1.6194" ry="1.6194" style="stroke:#181818;stroke-width:0.32388663967611336;" width="36.2753" x="581.7004" y="80.4016"/><text fill="#000000" font-family="sans-serif" font-size="9.0688" font-weight="bold" lengthAdjust="spacing" textLength="23.3198" x="588.1781" y="92.8647">at + 1</text><line style="stroke:#181818;stroke-width:0.6477732793522267;" x1="582.3482" x2="617.3279" y1="95.4765" y2="95.4765"/><line style="stroke:#181818;stroke-width:0.6477732793522267;" x1="582.3482" x2="617.3279" y1="96.7721" y2="96.7721"/><text fill="#000000" font-family="sans-serif" font-size="9.0688" lengthAdjust="spacing" textLength="18.7854" x="588.1781" y="108.5874">prev</text><line style="stroke:#181818;stroke-width:0.6477732793522267;" x1="582.3482" x2="617.3279" y1="113.7903" y2="113.7903"/><text fill="#000000" font-family="sans-serif" font-size="9.0688" lengthAdjust="spacing" textLength="18.7854" x="588.1781" y="126.9012">next</text><line style="stroke:#181818;stroke-width:0.6477732793522267;" x1="582.3482" x2="617.3279" y1="132.1041" y2="132.1041"/><text fill="#000000" font-family="sans-serif" font-size="9.0688" lengthAdjust="spacing" textLength="19.4332" x="588.1781" y="145.215">data</text></g><!--entity prev4--><g id="elem_prev4"><rect fill="#F1F1F1" height="71.9596" rx="1.6194" ry="1.6194" style="stroke:#181818;stroke-width:0.32388663967611336;" width="34.332" x="687.6113" y="80.4016"/><text fill="#000000" font-family="sans-serif" font-size="9.0688" font-weight="bold" lengthAdjust="spacing" textLength="21.3765" x="694.0891" y="92.8647">at - 1</text><line style="stroke:#181818;stroke-width:0.6477732793522267;" x1="688.2591" x2="721.2955" y1="95.4765" y2="95.4765"/><line style="stroke:#181818;stroke-width:0.6477732793522267;" x1="688.2591" x2="721.2955" y1="96.7721" y2="96.7721"/><text fill="#000000" font-family="sans-serif" font-size="9.0688" lengthAdjust="spacing" textLength="18.7854" x="694.0891" y="108.5874">prev</text><line style="stroke:#181818;stroke-width:0.6477732793522267;" x1="688.2591" x2="721.2955" y1="113.7903" y2="113.7903"/><text fill="#000000" font-family="sans-serif" font-size="9.0688" lengthAdjust="spacing" textLength="18.7854" x="694.0891" y="126.9012">next</text><line style="stroke:#181818;stroke-width:0.6477732793522267;" x1="688.2591" x2="721.2955" y1="132.1041" y2="132.1041"/><text fill="#000000" font-family="sans-serif" font-size="9.0688" lengthAdjust="spacing" textLength="19.4332" x="694.0891" y="145.215">data</text></g><!--entity current4--><g id="elem_current4"><rect fill="#FF6347" height="71.9596" rx="1.6194" ry="1.6194" style="stroke:#181818;stroke-width:0.32388663967611336;" width="32.3887" x="717.7328" y="191.1709"/><text fill="#000000" font-family="sans-serif" font-size="9.0688" font-weight="bold" lengthAdjust="spacing" textLength="9.0688" x="724.2105" y="203.634">at</text><line style="stroke:#181818;stroke-width:0.6477732793522267;" x1="718.3806" x2="749.4737" y1="206.2458" y2="206.2458"/><line style="stroke:#181818;stroke-width:0.6477732793522267;" x1="718.3806" x2="749.4737" y1="207.5413" y2="207.5413"/><text fill="#000000" font-family="sans-serif" font-size="9.0688" lengthAdjust="spacing" textLength="18.7854" x="724.2105" y="219.3567">prev</text><line style="stroke:#181818;stroke-width:0.6477732793522267;" x1="718.3806" x2="749.4737" y1="224.5596" y2="224.5596"/><text fill="#000000" font-family="sans-serif" font-size="9.0688" lengthAdjust="spacing" textLength="18.7854" x="724.2105" y="237.6704">next</text><line style="stroke:#181818;stroke-width:0.6477732793522267;" x1="718.3806" x2="749.4737" y1="242.8734" y2="242.8734"/><text fill="#000000" font-family="sans-serif" font-size="9.0688" lengthAdjust="spacing" textLength="19.4332" x="724.2105" y="255.9842">data</text></g><!--entity next4--><g id="elem_next4"><rect fill="#F1F1F1" height="71.9596" rx="1.6194" ry="1.6194" style="stroke:#181818;stroke-width:0.32388663967611336;" width="36.2753" x="744.9393" y="80.4016"/><text fill="#000000" font-family="sans-serif" font-size="9.0688" font-weight="bold" lengthAdjust="spacing" textLength="23.3198" x="751.417" y="92.8647">at + 1</text><line style="stroke:#181818;stroke-width:0.6477732793522267;" x1="745.587" x2="780.5668" y1="95.4765" y2="95.4765"/><line style="stroke:#181818;stroke-width:0.6477732793522267;" x1="745.587" x2="780.5668" y1="96.7721" y2="96.7721"/><text fill="#000000" font-family="sans-serif" font-size="9.0688" lengthAdjust="spacing" textLength="18.7854" x="751.417" y="108.5874">prev</text><line style="stroke:#181818;stroke-width:0.6477732793522267;" x1="745.587" x2="780.5668" y1="113.7903" y2="113.7903"/><text fill="#000000" font-family="sans-serif" font-size="9.0688" lengthAdjust="spacing" textLength="18.7854" x="751.417" y="126.9012">next</text><line style="stroke:#181818;stroke-width:0.6477732793522267;" x1="745.587" x2="780.5668" y1="132.1041" y2="132.1041"/><text fill="#000000" font-family="sans-serif" font-size="9.0688" lengthAdjust="spacing" textLength="19.4332" x="751.417" y="145.215">data</text></g><!--link prev1 to current1--><g id="link_prev1_current1"><path codeLine="31" d="M70.9377,116.353 C78.5879,116.353 78.4713,116.353 86.1215,116.353 " fill="none" id="prev1-current1" style="stroke:#181818;stroke-width:0.6477732793522267;"/><polygon fill="#181818" points="67.051,116.353,72.881,118.9441,70.2899,116.353,72.881,113.7619,67.051,116.353" style="stroke:#181818;stroke-width:0.6477732793522267;"/><polygon fill="#181818" points="90.0081,116.353,84.1781,113.7619,86.7692,116.353,84.1781,118.9441,90.0081,116.353" style="stroke:#181818;stroke-width:0.6477732793522267;"/></g><!--link current1 to next1--><g id="link_current1_next1"><path codeLine="32" d="M126.3741,116.353 C133.9077,116.353 133.6745,116.353 141.2081,116.353 " fill="none" id="current1-next1" style="stroke:#181818;stroke-width:0.6477732793522267;"/><polygon fill="#181818" points="122.4874,116.353,128.3174,118.9441,125.7263,116.353,128.3174,113.7619,122.4874,116.353" style="stroke:#181818;stroke-width:0.6477732793522267;"/><polygon fill="#181818" points="145.0947,116.353,139.2648,113.7619,141.8559,116.353,139.2648,118.9441,145.0947,116.353" style="stroke:#181818;stroke-width:0.6477732793522267;"/></g><!--reverse link prev2 to current2--><g id="link_prev2_current2"><path codeLine="63" d="M289.2372,116.353 C296.8874,116.353 300.6575,116.353 308.3077,116.353 " fill="none" id="prev2-backto-current2" style="stroke:#181818;stroke-width:0.6477732793522267;"/><polygon fill="#181818" points="285.3506,116.353,291.1806,118.9441,288.5895,116.353,291.1806,113.7619,285.3506,116.353" style="stroke:#181818;stroke-width:0.6477732793522267;"/></g><!--link current2 to next2--><g id="link_current2_next2"><path codeLine="64" d="M344.6737,116.353 C352.2073,116.353 351.9741,116.353 359.5077,116.353 " fill="none" id="current2-next2" style="stroke:#181818;stroke-width:0.6477732793522267;"/><polygon fill="#181818" points="340.787,116.353,346.617,118.9441,344.0259,116.353,346.617,113.7619,340.787,116.353" style="stroke:#181818;stroke-width:0.6477732793522267;"/><polygon fill="#181818" points="363.3943,116.353,357.5644,113.7619,360.1555,116.353,357.5644,118.9441,363.3943,116.353" style="stroke:#181818;stroke-width:0.6477732793522267;"/></g><!--link prev2 to next2--><g id="link_prev2_next2"><path codeLine="65" d="M272.285,80.3433 C276.936,58.3968 286.8534,32.3109 308.0162,20.1587 C320.4988,12.9879 327.9223,12.9879 340.4049,20.1587 C361.6648,32.3692 371.0871,54.6643 376.0491,76.5914 " fill="none" id="prev2-to-next2" style="stroke:#008000;stroke-width:1.2955465587044535;"/><polygon fill="#008000" points="376.9069,80.3822,378.1473,74.1241,376.192,77.2232,373.0929,75.2679,376.9069,80.3822" style="stroke:#008000;stroke-width:1.2955465587044535;"/></g><!--reverse link prev3 to current3--><g id="link_prev3_current3"><path codeLine="96" d="M507.5368,116.353 C515.187,116.353 518.9571,116.353 526.6073,116.353 " fill="none" id="prev3-backto-current3" style="stroke:#181818;stroke-width:0.6477732793522267;"/><polygon fill="#181818" points="503.6502,116.353,509.4802,118.9441,506.8891,116.353,509.4802,113.7619,503.6502,116.353" style="stroke:#181818;stroke-width:0.6477732793522267;"/></g><!--link current3 to next3--><g id="link_current3_next3"><path codeLine="97" d="M559.0866,116.353 C566.6202,116.353 570.2737,116.353 577.8073,116.353 " fill="none" id="current3-to-next3" style="stroke:#181818;stroke-width:0.6477732793522267;"/><polygon fill="#181818" points="581.6939,116.353,575.864,113.7619,578.4551,116.353,575.864,118.9441,581.6939,116.353" style="stroke:#181818;stroke-width:0.6477732793522267;"/></g><!--link prev3 to next3--><g id="link_prev3_next3"><path codeLine="98" d="M491.3904,76.5411 C496.0414,54.5946 505.153,32.3109 526.3158,20.1587 C538.7984,12.9879 546.2219,12.9879 558.7045,20.1587 C579.9644,32.3692 589.3867,54.6643 594.3487,76.5914 " fill="none" id="prev3-next3" style="stroke:#008000;stroke-width:1.2955465587044535;"/><polygon fill="#008000" points="490.5846,80.3433,494.3281,75.1772,491.2561,77.1748,489.2585,74.1028,490.5846,80.3433" style="stroke:#008000;stroke-width:1.2955465587044535;"/><polygon fill="#008000" points="595.2065,80.3822,596.4469,74.1241,594.4916,77.2232,591.3925,75.2679,595.2065,80.3822" style="stroke:#008000;stroke-width:1.2955465587044535;"/></g><!--link prev4 to current4--><g id="link_prev4_current4"><path codeLine="130" d="M714.2413,152.5441 C717.532,164.9036 721.2243,178.7595 724.5085,191.1126 " fill="none" id="prev4-current4" style="stroke:#FFFFFF;stroke-width:0.6477732793522267;"/></g><!--link next4 to current4--><g id="link_next4_current4"><path codeLine="131" d="M753.613,152.5441 C750.3223,164.9036 746.63,178.7595 743.3457,191.1126 " fill="none" id="next4-current4" style="stroke:#FFFFFF;stroke-width:0.6477732793522267;"/></g><!--link prev4 to next4--><g id="link_prev4_next4"><path codeLine="132" d="M725.9725,116.353 C733.5514,116.353 733.3571,116.353 740.936,116.353 " fill="none" id="prev4-next4" style="stroke:#008000;stroke-width:1.2955465587044535;"/><polygon fill="#008000" points="722.0858,116.353,727.9158,118.9441,725.3247,116.353,727.9158,113.7619,722.0858,116.353" style="stroke:#008000;stroke-width:1.2955465587044535;"/><polygon fill="#008000" points="744.8227,116.353,738.9927,113.7619,741.5838,116.353,738.9927,118.9441,744.8227,116.353" style="stroke:#008000;stroke-width:1.2955465587044535;"/></g><!--link first to second--><g id="link_first_second"><path codeLine="135" d="M11.644,49.8684 C11.6924,49.713 11.7412,49.5577 11.7904,49.4026 C11.889,49.0925 11.9893,48.7832 12.0916,48.4749 C12.2961,47.8581 12.508,47.2451 12.7277,46.6361 C13.1669,45.4182 13.637,44.2166 14.1396,43.0347 C18.1603,33.5794 24.264,25.383 33.3603,20.1587 C61.6939,3.8866 152.0713,3.8866 180.4049,20.1587 C200.1166,31.4818 211.8543,53.8591 218.7409,74.183 C219.6017,76.7235 220.3868,79.2319 221.1021,81.6826 C221.4598,82.908 221.8,84.1189 222.1236,85.3122 C222.2854,85.9089 222.443,86.5011 222.5966,87.0886 C222.6733,87.3823 222.7491,87.6748 222.8238,87.9661 " fill="none" id="first-second" style="stroke:#FFFFFF;stroke-width:0.6477732793522267;"/></g><!--link third to fourth--><g id="link_third_fourth"><path codeLine="136" d="M448.2432,49.8684 C448.2916,49.713 448.3404,49.5577 448.3896,49.4026 C448.4882,49.0925 448.5885,48.7832 448.6908,48.4749 C448.8953,47.8581 449.1072,47.2451 449.3268,46.6361 C449.7661,45.4182 450.2362,44.2166 450.7388,43.0347 C454.7595,33.5794 460.8632,25.383 469.9595,20.1587 C498.2931,3.8866 588.6704,3.8866 617.004,20.1587 C636.7158,31.4818 648.4534,53.8591 655.3401,74.183 C656.2009,76.7235 656.9859,79.2319 657.7013,81.6826 C658.0589,82.908 658.3992,84.1189 658.7228,85.3122 C658.8846,85.9089 659.0422,86.5011 659.1957,87.0886 C659.2725,87.3823 659.3483,87.6748 659.423,87.9661 " fill="none" id="third-fourth" style="stroke:#FFFFFF;stroke-width:0.6477732793522267;"/></g><!--SRC=[nTL1RuCW503Wkx_YfJqkB1KuB5lNFzBiG8LE4uiDFjSco_xx19HHNRPJaPF04tXyY6qXQWLFcmrSAebbTZJYf62Lhq2qSAnCY_2PGLyAOIISZVh8OUyQRDaUTWA1G1vQNliIAZOyL4XVGaMhA_xU8mKALtdxcRReZ54QPpFVTrORFK_suOx9-ktT4aDs8MU_dd43V9zRMVQLZLhKQRMgQBISSj75k6XwBfgSYpgIa7AiHICj6hqmDi6whhHwVZTAwHVx-7XeQXcnCiUAPMLcgcmnLPPUbILNPJUgB5Pb453PJVpGzgygzrThqnaifwnyCLOEQsnE0flql3mfRp3ZG2I9qdTibx925NFtKHqPbZaDyQECylmFUVSVjITgkAFZaVptRJk7Cn5tVWC0]--></g></svg>