<?xml version="1.0" encoding="us-ascii" standalone="no"?><svg xmlns="http://www.w3.org/2000/svg" xmlns:xlink="http://www.w3.org/1999/xlink" contentStyleType="text/css" height="622px" preserveAspectRatio="none" style="width:476px;height:622px;background:#FFFFFF;" version="1.1" viewBox="0 0 476 622" width="476px" zoomAndPan="magnify"><defs/><g><!--class ListNode--><g id="elem_ListNode"><rect codeLine="3" fill="#F1F1F1" height="68.2719" id="ListNode" rx="2.5" ry="2.5" style="stroke:#181818;stroke-width:0.5;" width="101" x="184.5" y="378.5"/><ellipse cx="204" cy="394.5" fill="#ADD1B2" rx="11" ry="11" style="stroke:#181818;stroke-width:1.0;"/><path d="M204.2344,401.2031 C205.3906,401.2031 206.4844,400.7188 207.3125,399.6875 L205.8906,398.1719 C205.5,398.7188 205.0313,399.0313 204.4688,399.0313 C203.2813,399.0313 202.2656,397.8906 202.2656,394.6563 C202.2656,391.5 203.3281,390.3281 204.3594,390.3281 C204.9531,390.3281 205.3281,390.625 205.75,391.125 L207.1719,389.5625 C206.5,388.8125 205.5313,388.1719 204.25,388.1719 C201.8281,388.1719 199.6875,390.1406 199.6875,394.7656 C199.6875,399.4063 201.8281,401.2031 204.2344,401.2031 Z " fill="#000000"/><text fill="#000000" font-family="sans-serif" font-size="14" lengthAdjust="spacing" textLength="59" x="219" y="400.604">ListNode</text><line style="stroke:#181818;stroke-width:0.5;" x1="185.5" x2="284.5" y1="410.5" y2="410.5"/><text fill="#000000" font-family="sans-serif" font-size="14" lengthAdjust="spacing" textLength="89" x="190.5" y="430.7399">+data  :object</text><line style="stroke:#181818;stroke-width:0.5;" x1="185.5" x2="284.5" y1="438.7719" y2="438.7719"/></g><!--class LinkedList--><g id="elem_LinkedList"><rect codeLine="6" fill="#F1F1F1" height="291.2629" id="LinkedList" rx="2.5" ry="2.5" style="stroke:#181818;stroke-width:0.5;" width="230" x="120" y="7"/><ellipse cx="195.75" cy="23" fill="#A9DCDF" rx="11" ry="11" style="stroke:#181818;stroke-width:1.0;"/><path d="M191.875,29 L194.2656,29 L194.7813,25.7656 L197.1875,25.7656 L197.7031,29 L200.125,29 L197.7344,16.375 L194.2656,16.375 L191.875,29 Z M195.0781,23.7969 L195.2969,22.4219 C195.5313,21.1094 195.7656,19.6719 195.9375,18.2969 L196,18.2969 C196.2188,19.6719 196.4063,21.1094 196.6406,22.4219 L196.8594,23.7969 L195.0781,23.7969 Z " fill="#000000"/><text fill="#000000" font-family="sans-serif" font-size="14" font-style="italic" lengthAdjust="spacing" textLength="70" x="216.25" y="29.104">LinkedList</text><line style="stroke:#181818;stroke-width:0.5;" x1="121" x2="349" y1="39" y2="39"/><line style="stroke:#181818;stroke-width:0.5;" x1="121" x2="349" y1="47" y2="47"/><text fill="#000000" font-family="sans-serif" font-size="14" lengthAdjust="spacing" textLength="99" x="126" y="67.2399">+empty()  :bool</text><text fill="#000000" font-family="sans-serif" font-size="14" lengthAdjust="spacing" textLength="72" x="126" y="87.5118">+size()  :int</text><text fill="#000000" font-family="sans-serif" font-size="14" lengthAdjust="spacing" textLength="124" x="126" y="107.7838">+index(object)  :int</text><text fill="#000000" font-family="sans-serif" font-size="14" lengthAdjust="spacing" textLength="218" x="126" y="128.0557">+search_by_index(int)  :ListNode</text><text fill="#000000" font-family="sans-serif" font-size="14" lengthAdjust="spacing" textLength="172" x="126" y="148.3276">+search(object)  :ListNode</text><text fill="#000000" font-family="sans-serif" font-size="14" lengthAdjust="spacing" textLength="205" x="126" y="168.5995">+insert_at_head(object)  :None</text><text fill="#000000" font-family="sans-serif" font-size="14" lengthAdjust="spacing" textLength="192" x="126" y="188.8714">+insert_at_tail(object)  :None</text><text fill="#000000" font-family="sans-serif" font-size="14" lengthAdjust="spacing" textLength="167" x="126" y="209.1433">+insert(int, object)  :None</text><text fill="#000000" font-family="sans-serif" font-size="14" lengthAdjust="spacing" textLength="192" x="126" y="229.4152">+delete_at_head()  :ListNode</text><text fill="#000000" font-family="sans-serif" font-size="14" lengthAdjust="spacing" textLength="179" x="126" y="249.6871">+delete_at_tail()  :ListNode</text><text fill="#000000" font-family="sans-serif" font-size="14" lengthAdjust="spacing" textLength="147" x="126" y="269.959">+delete(int)  :ListNode</text><text fill="#000000" font-family="sans-serif" font-size="14" lengthAdjust="spacing" textLength="142" x="126" y="290.231">+iterate()  :list[object]</text></g><!--class SllNode--><g id="elem_SllNode"><rect codeLine="21" fill="#F1F1F1" height="68.2719" id="SllNode" rx="2.5" ry="2.5" style="stroke:#181818;stroke-width:0.5;" width="118" x="98" y="537.5"/><ellipse cx="128.75" cy="553.5" fill="#ADD1B2" rx="11" ry="11" style="stroke:#181818;stroke-width:1.0;"/><path d="M128.9844,560.2031 C130.1406,560.2031 131.2344,559.7188 132.0625,558.6875 L130.6406,557.1719 C130.25,557.7188 129.7813,558.0313 129.2188,558.0313 C128.0313,558.0313 127.0156,556.8906 127.0156,553.6563 C127.0156,550.5 128.0781,549.3281 129.1094,549.3281 C129.7031,549.3281 130.0781,549.625 130.5,550.125 L131.9219,548.5625 C131.25,547.8125 130.2813,547.1719 129,547.1719 C126.5781,547.1719 124.4375,549.1406 124.4375,553.7656 C124.4375,558.4063 126.5781,560.2031 128.9844,560.2031 Z " fill="#000000"/><text fill="#000000" font-family="sans-serif" font-size="14" lengthAdjust="spacing" textLength="51" x="146.25" y="559.604">SllNode</text><line style="stroke:#181818;stroke-width:0.5;" x1="99" x2="215" y1="569.5" y2="569.5"/><text fill="#000000" font-family="sans-serif" font-size="14" lengthAdjust="spacing" textLength="106" x="104" y="589.7399">+next  :ListNode</text><line style="stroke:#181818;stroke-width:0.5;" x1="99" x2="215" y1="597.7719" y2="597.7719"/></g><!--class SinglyLinkedList--><g id="elem_SinglyLinkedList"><rect codeLine="24" fill="#F1F1F1" height="108.8157" id="SinglyLinkedList" rx="2.5" ry="2.5" style="stroke:#181818;stroke-width:0.5;" width="142" x="7" y="358"/><ellipse cx="22" cy="374" fill="#ADD1B2" rx="11" ry="11" style="stroke:#181818;stroke-width:1.0;"/><path d="M22.2344,380.7031 C23.3906,380.7031 24.4844,380.2188 25.3125,379.1875 L23.8906,377.6719 C23.5,378.2188 23.0313,378.5313 22.4688,378.5313 C21.2813,378.5313 20.2656,377.3906 20.2656,374.1563 C20.2656,371 21.3281,369.8281 22.3594,369.8281 C22.9531,369.8281 23.3281,370.125 23.75,370.625 L25.1719,369.0625 C24.5,368.3125 23.5313,367.6719 22.25,367.6719 C19.8281,367.6719 17.6875,369.6406 17.6875,374.2656 C17.6875,378.9063 19.8281,380.7031 22.2344,380.7031 Z " fill="#000000"/><text fill="#000000" font-family="sans-serif" font-size="14" lengthAdjust="spacing" textLength="110" x="36" y="380.104">SinglyLinkedList</text><line style="stroke:#181818;stroke-width:0.5;" x1="8" x2="148" y1="390" y2="390"/><text fill="#000000" font-family="sans-serif" font-size="14" lengthAdjust="spacing" textLength="67" x="13" y="410.2399">-_size  :int</text><text fill="#000000" font-family="sans-serif" font-size="14" lengthAdjust="spacing" textLength="103" x="13" y="430.5118">+head  :SllNode</text><text fill="#000000" font-family="sans-serif" font-size="14" lengthAdjust="spacing" textLength="90" x="13" y="450.7838">+tail  :SllNode</text><line style="stroke:#181818;stroke-width:0.5;" x1="8" x2="148" y1="458.8157" y2="458.8157"/></g><!--class DllNode--><g id="elem_DllNode"><rect codeLine="32" fill="#F1F1F1" height="88.5438" id="DllNode" rx="2.5" ry="2.5" style="stroke:#181818;stroke-width:0.5;" width="118" x="253" y="527"/><ellipse cx="282.85" cy="543" fill="#ADD1B2" rx="11" ry="11" style="stroke:#181818;stroke-width:1.0;"/><path d="M283.0844,549.7031 C284.2406,549.7031 285.3344,549.2188 286.1625,548.1875 L284.7406,546.6719 C284.35,547.2188 283.8813,547.5313 283.3188,547.5313 C282.1313,547.5313 281.1156,546.3906 281.1156,543.1563 C281.1156,540 282.1781,538.8281 283.2094,538.8281 C283.8031,538.8281 284.1781,539.125 284.6,539.625 L286.0219,538.0625 C285.35,537.3125 284.3813,536.6719 283.1,536.6719 C280.6781,536.6719 278.5375,538.6406 278.5375,543.2656 C278.5375,547.9063 280.6781,549.7031 283.0844,549.7031 Z " fill="#000000"/><text fill="#000000" font-family="sans-serif" font-size="14" lengthAdjust="spacing" textLength="53" x="300.15" y="549.104">DllNode</text><line style="stroke:#181818;stroke-width:0.5;" x1="254" x2="370" y1="559" y2="559"/><text fill="#000000" font-family="sans-serif" font-size="14" lengthAdjust="spacing" textLength="106" x="259" y="579.2399">+prev  :ListNode</text><text fill="#000000" font-family="sans-serif" font-size="14" lengthAdjust="spacing" textLength="106" x="259" y="599.5118">+next  :ListNode</text><line style="stroke:#181818;stroke-width:0.5;" x1="254" x2="370" y1="607.5438" y2="607.5438"/></g><!--class DoublyLinkedList--><g id="elem_DoublyLinkedList"><rect codeLine="36" fill="#F1F1F1" height="108.8157" id="DoublyLinkedList" rx="2.5" ry="2.5" style="stroke:#181818;stroke-width:0.5;" width="149" x="320.5" y="358"/><ellipse cx="335.5" cy="374" fill="#ADD1B2" rx="11" ry="11" style="stroke:#181818;stroke-width:1.0;"/><path d="M335.7344,380.7031 C336.8906,380.7031 337.9844,380.2188 338.8125,379.1875 L337.3906,377.6719 C337,378.2188 336.5313,378.5313 335.9688,378.5313 C334.7813,378.5313 333.7656,377.3906 333.7656,374.1563 C333.7656,371 334.8281,369.8281 335.8594,369.8281 C336.4531,369.8281 336.8281,370.125 337.25,370.625 L338.6719,369.0625 C338,368.3125 337.0313,367.6719 335.75,367.6719 C333.3281,367.6719 331.1875,369.6406 331.1875,374.2656 C331.1875,378.9063 333.3281,380.7031 335.7344,380.7031 Z " fill="#000000"/><text fill="#000000" font-family="sans-serif" font-size="14" lengthAdjust="spacing" textLength="117" x="349.5" y="380.104">DoublyLinkedList</text><line style="stroke:#181818;stroke-width:0.5;" x1="321.5" x2="468.5" y1="390" y2="390"/><text fill="#000000" font-family="sans-serif" font-size="14" lengthAdjust="spacing" textLength="67" x="326.5" y="410.2399">-_size  :int</text><text fill="#000000" font-family="sans-serif" font-size="14" lengthAdjust="spacing" textLength="105" x="326.5" y="430.5118">+head  :DllNode</text><text fill="#000000" font-family="sans-serif" font-size="14" lengthAdjust="spacing" textLength="92" x="326.5" y="450.7838">+tail  :DllNode</text><line style="stroke:#181818;stroke-width:0.5;" x1="321.5" x2="468.5" y1="458.8157" y2="458.8157"/></g><!--link LinkedList to ListNode--><g id="link_LinkedList_ListNode"><path codeLine="20" d="M235,298.34 C235,328.43 235,345.36 235,366.43 " fill="none" id="LinkedList-to-ListNode" style="stroke:#181818;stroke-width:1.0;"/><polygon fill="#181818" points="235,378.43,239,372.43,235,366.43,231,372.43,235,378.43" style="stroke:#181818;stroke-width:1.0;"/></g><!--reverse link ListNode to SllNode--><g id="link_ListNode_SllNode"><path codeLine="29" d="M210.4489,462.919 C197.2089,489.559 186.75,510.62 173.52,537.25 " fill="none" id="ListNode-backto-SllNode" style="stroke:#181818;stroke-width:1.0;"/><polygon fill="none" points="218.46,446.8,205.0759,460.2486,215.8219,465.5894,218.46,446.8" style="stroke:#181818;stroke-width:1.0;"/></g><!--reverse link LinkedList to SinglyLinkedList--><g id="link_LinkedList_SinglyLinkedList"><path codeLine="30" d="M137.5035,313.7171 C124.5735,334.9671 121.35,340.26 110.56,357.99 " fill="none" id="LinkedList-backto-SinglyLinkedList" style="stroke:#181818;stroke-width:1.0;"/><polygon fill="none" points="146.86,298.34,132.3778,310.5983,142.6292,316.836,146.86,298.34" style="stroke:#181818;stroke-width:1.0;"/></g><!--link SinglyLinkedList to SllNode--><g id="link_SinglyLinkedList_SllNode"><path codeLine="31" d="M104.97,467.09 C116.68,490.37 127.3341,511.5398 137.5741,531.8998 " fill="none" id="SinglyLinkedList-to-SllNode" style="stroke:#181818;stroke-width:1.0;"/><polygon fill="#181818" points="140.27,537.26,139.7996,527.4224,138.0234,532.7931,132.6526,531.0169,140.27,537.26" style="stroke:#181818;stroke-width:1.0;"/><text fill="#000000" font-family="sans-serif" font-size="13" lengthAdjust="spacing" textLength="6" x="130.3857" y="525.8815">*</text></g><!--reverse link ListNode to DllNode--><g id="link_ListNode_DllNode"><path codeLine="41" d="M259.2548,462.9616 C270.6848,486.2716 278.15,501.49 290.57,526.81 " fill="none" id="ListNode-backto-DllNode" style="stroke:#181818;stroke-width:1.0;"/><polygon fill="none" points="251.33,446.8,253.8676,465.6032,264.642,460.32,251.33,446.8" style="stroke:#181818;stroke-width:1.0;"/></g><!--reverse link LinkedList to DoublyLinkedList--><g id="link_LinkedList_DoublyLinkedList"><path codeLine="42" d="M334.3075,313.6366 C347.4875,334.8866 350.82,340.26 361.81,357.99 " fill="none" id="LinkedList-backto-DoublyLinkedList" style="stroke:#181818;stroke-width:1.0;"/><polygon fill="none" points="324.82,298.34,329.2086,316.7991,339.4064,310.4741,324.82,298.34" style="stroke:#181818;stroke-width:1.0;"/></g><!--link DoublyLinkedList to DllNode--><g id="link_DoublyLinkedList_DllNode"><path codeLine="43" d="M366.67,467.09 C356.38,486.55 347.7064,502.9768 337.9164,521.4768 " fill="none" id="DoublyLinkedList-to-DllNode" style="stroke:#181818;stroke-width:1.0;"/><polygon fill="#181818" points="335.11,526.78,342.8551,520.6961,337.4487,522.3607,335.7841,516.9542,335.11,526.78" style="stroke:#181818;stroke-width:1.0;"/><text fill="#000000" font-family="sans-serif" font-size="13" lengthAdjust="spacing" textLength="6" x="332.315" y="515.4004">*</text></g><!--SRC=[XL6nJiCm5Dpp5LQdKeZ4p509aGK9TUc8KEJ4JzJKjIFx1JL0_nsxjbEdZY1RtftVtRqpUouxgkc1F0bgp2EYvasFyDmgkULVGEwBrW7aXHlSA0Rako3sksKKAI4Fglc05ejJGHk3chP88btkWRb7yG4SEXoMD_PDevGWVcYin7d69OOHbmoEIxztYXYWkjtLpL1xZaKSONIMif854O_h3MYiATOxe2oXRPJCA4Yv-8FY7DoHEPo108HHPSRcXN4MoOrwmdN888-WAVhB2OkyUWzljeVayAKkLsDleSQj46cB4euuyNQAF2xVnP2rMDQkCT-At-3osV-mryzSecHsAg9gsPS_wukbJ2JYSJ33ADTaiLh47C5jDKtLQVZCRdOLTKnQgRxv9ocPHArcebPZr6e-QgQIHSqP8MhS_Gi0]--></g></svg>