<?xml version="1.0" encoding="us-ascii" standalone="no"?><svg xmlns="http://www.w3.org/2000/svg" xmlns:xlink="http://www.w3.org/1999/xlink" contentStyleType="text/css" height="309.2574px" preserveAspectRatio="none" style="width:800px;height:309px;background:#FFFFFF;" version="1.1" viewBox="0 0 800 309" width="800.8138px" zoomAndPan="magnify"><defs/><g><!--cluster first--><g id="cluster_first"><rect fill="none" height="241.7091" rx="2.0346" ry="2.0346" style="stroke:#181818;stroke-width:0.8138351983723296;" width="241.7091" x="5.6968" y="62.763"/><path d="M20.3459,62.763 L20.3459,73.5641 L12.2075,81.7025 L5.6968,81.7025 " fill="none" style="stroke:#181818;stroke-width:0.8138351983723296;"/><text fill="#000000" font-family="sans-serif" font-size="11.3937" font-weight="bold" lengthAdjust="spacing" textLength="6.5107" x="8.1384" y="76.7934">1</text></g><!--cluster second--><g id="cluster_second"><rect fill="none" height="241.7091" rx="2.0346" ry="2.0346" style="stroke:#181818;stroke-width:0.8138351983723296;" width="241.7091" x="279.9593" y="62.763"/><path d="M294.6083,62.763 L294.6083,73.5641 L286.47,81.7025 L279.9593,81.7025 " fill="none" style="stroke:#181818;stroke-width:0.8138351983723296;"/><text fill="#000000" font-family="sans-serif" font-size="11.3937" font-weight="bold" lengthAdjust="spacing" textLength="6.5107" x="282.4008" y="76.7934">2</text></g><!--cluster third--><g id="cluster_third"><rect fill="none" height="241.7091" rx="2.0346" ry="2.0346" style="stroke:#181818;stroke-width:0.8138351983723296;" width="241.7091" x="554.2218" y="62.763"/><path d="M568.8708,62.763 L568.8708,73.5641 L560.7325,81.7025 L554.2218,81.7025 " fill="none" style="stroke:#181818;stroke-width:0.8138351983723296;"/><text fill="#000000" font-family="sans-serif" font-size="11.3937" font-weight="bold" lengthAdjust="spacing" textLength="6.5107" x="556.6633" y="76.7934">3</text></g><!--entity prev1--><g id="elem_prev1"><rect fill="#F1F1F1" height="67.3984" rx="2.0346" ry="2.0346" style="stroke:#181818;stroke-width:0.4069175991861648;" width="43.1333" x="41.0987" y="101.0132"/><text fill="#000000" font-family="sans-serif" font-size="11.3937" font-weight="bold" lengthAdjust="spacing" textLength="26.8566" x="49.237" y="116.6714">at - 1</text><line style="stroke:#181818;stroke-width:0.8138351983723296;" x1="41.9125" x2="83.4181" y1="119.9527" y2="119.9527"/><line style="stroke:#181818;stroke-width:0.8138351983723296;" x1="41.9125" x2="83.4181" y1="121.5804" y2="121.5804"/><text fill="#000000" font-family="sans-serif" font-size="11.3937" lengthAdjust="spacing" textLength="23.6012" x="49.237" y="136.4247">next</text><line style="stroke:#181818;stroke-width:0.8138351983723296;" x1="41.9125" x2="83.4181" y1="142.9614" y2="142.9614"/><text fill="#000000" font-family="sans-serif" font-size="11.3937" lengthAdjust="spacing" textLength="24.4151" x="49.237" y="159.4334">data</text></g><!--entity current1--><g id="elem_current1"><rect fill="#F1F1F1" height="67.3984" rx="2.0346" ry="2.0346" style="stroke:#181818;stroke-width:0.4069175991861648;" width="40.6918" x="113.1231" y="101.0132"/><text fill="#000000" font-family="sans-serif" font-size="11.3937" font-weight="bold" lengthAdjust="spacing" textLength="11.3937" x="121.2614" y="116.6714">at</text><line style="stroke:#181818;stroke-width:0.8138351983723296;" x1="113.9369" x2="153.001" y1="119.9527" y2="119.9527"/><line style="stroke:#181818;stroke-width:0.8138351983723296;" x1="113.9369" x2="153.001" y1="121.5804" y2="121.5804"/><text fill="#000000" font-family="sans-serif" font-size="11.3937" lengthAdjust="spacing" textLength="23.6012" x="121.2614" y="136.4247">next</text><line style="stroke:#181818;stroke-width:0.8138351983723296;" x1="113.9369" x2="153.001" y1="142.9614" y2="142.9614"/><text fill="#000000" font-family="sans-serif" font-size="11.3937" lengthAdjust="spacing" textLength="24.4151" x="121.2614" y="159.4334">data</text></g><!--entity next1--><g id="elem_next1"><rect fill="#F1F1F1" height="67.3984" rx="2.0346" ry="2.0346" style="stroke:#181818;stroke-width:0.4069175991861648;" width="45.5748" x="182.2991" y="101.0132"/><text fill="#000000" font-family="sans-serif" font-size="11.3937" font-weight="bold" lengthAdjust="spacing" textLength="29.2981" x="190.4374" y="116.6714">at + 1</text><line style="stroke:#181818;stroke-width:0.8138351983723296;" x1="183.1129" x2="227.06" y1="119.9527" y2="119.9527"/><line style="stroke:#181818;stroke-width:0.8138351983723296;" x1="183.1129" x2="227.06" y1="121.5804" y2="121.5804"/><text fill="#000000" font-family="sans-serif" font-size="11.3937" lengthAdjust="spacing" textLength="23.6012" x="190.4374" y="136.4247">next</text><line style="stroke:#181818;stroke-width:0.8138351983723296;" x1="183.1129" x2="227.06" y1="142.9614" y2="142.9614"/><text fill="#000000" font-family="sans-serif" font-size="11.3937" lengthAdjust="spacing" textLength="24.4151" x="190.4374" y="159.4334">data</text></g><!--entity new1--><g id="elem_new1"><rect fill="#98FB98" height="67.3984" rx="2.0346" ry="2.0346" style="stroke:#181818;stroke-width:0.4069175991861648;" width="40.6918" x="113.1231" y="217.3917"/><text fill="#000000" font-family="sans-serif" font-size="11.3937" font-weight="bold" lengthAdjust="spacing" textLength="24.4151" x="121.2614" y="233.0498">New</text><line style="stroke:#181818;stroke-width:0.8138351983723296;" x1="113.9369" x2="153.001" y1="236.3312" y2="236.3312"/><line style="stroke:#181818;stroke-width:0.8138351983723296;" x1="113.9369" x2="153.001" y1="237.9588" y2="237.9588"/><text fill="#000000" font-family="sans-serif" font-size="11.3937" lengthAdjust="spacing" textLength="23.6012" x="121.2614" y="252.8031">next</text><line style="stroke:#181818;stroke-width:0.8138351983723296;" x1="113.9369" x2="153.001" y1="259.3398" y2="259.3398"/><text fill="#000000" font-family="sans-serif" font-size="11.3937" lengthAdjust="spacing" textLength="24.4151" x="121.2614" y="275.8118">data</text></g><!--entity prev2--><g id="elem_prev2"><rect fill="#F1F1F1" height="67.3984" rx="2.0346" ry="2.0346" style="stroke:#181818;stroke-width:0.4069175991861648;" width="43.1333" x="315.3611" y="101.0132"/><text fill="#000000" font-family="sans-serif" font-size="11.3937" font-weight="bold" lengthAdjust="spacing" textLength="26.8566" x="323.4995" y="116.6714">at - 1</text><line style="stroke:#181818;stroke-width:0.8138351983723296;" x1="316.175" x2="357.6806" y1="119.9527" y2="119.9527"/><line style="stroke:#181818;stroke-width:0.8138351983723296;" x1="316.175" x2="357.6806" y1="121.5804" y2="121.5804"/><text fill="#000000" font-family="sans-serif" font-size="11.3937" lengthAdjust="spacing" textLength="23.6012" x="323.4995" y="136.4247">next</text><line style="stroke:#181818;stroke-width:0.8138351983723296;" x1="316.175" x2="357.6806" y1="142.9614" y2="142.9614"/><text fill="#000000" font-family="sans-serif" font-size="11.3937" lengthAdjust="spacing" textLength="24.4151" x="323.4995" y="159.4334">data</text></g><!--entity current2--><g id="elem_current2"><rect fill="#F1F1F1" height="67.3984" rx="2.0346" ry="2.0346" style="stroke:#181818;stroke-width:0.4069175991861648;" width="40.6918" x="387.3856" y="101.0132"/><text fill="#000000" font-family="sans-serif" font-size="11.3937" font-weight="bold" lengthAdjust="spacing" textLength="11.3937" x="395.5239" y="116.6714">at</text><line style="stroke:#181818;stroke-width:0.8138351983723296;" x1="388.1994" x2="427.2635" y1="119.9527" y2="119.9527"/><line style="stroke:#181818;stroke-width:0.8138351983723296;" x1="388.1994" x2="427.2635" y1="121.5804" y2="121.5804"/><text fill="#000000" font-family="sans-serif" font-size="11.3937" lengthAdjust="spacing" textLength="23.6012" x="395.5239" y="136.4247">next</text><line style="stroke:#181818;stroke-width:0.8138351983723296;" x1="388.1994" x2="427.2635" y1="142.9614" y2="142.9614"/><text fill="#000000" font-family="sans-serif" font-size="11.3937" lengthAdjust="spacing" textLength="24.4151" x="395.5239" y="159.4334">data</text></g><!--entity next2--><g id="elem_next2"><rect fill="#F1F1F1" height="67.3984" rx="2.0346" ry="2.0346" style="stroke:#181818;stroke-width:0.4069175991861648;" width="45.5748" x="456.5615" y="101.0132"/><text fill="#000000" font-family="sans-serif" font-size="11.3937" font-weight="bold" lengthAdjust="spacing" textLength="29.2981" x="464.6999" y="116.6714">at + 1</text><line style="stroke:#181818;stroke-width:0.8138351983723296;" x1="457.3754" x2="501.3225" y1="119.9527" y2="119.9527"/><line style="stroke:#181818;stroke-width:0.8138351983723296;" x1="457.3754" x2="501.3225" y1="121.5804" y2="121.5804"/><text fill="#000000" font-family="sans-serif" font-size="11.3937" lengthAdjust="spacing" textLength="23.6012" x="464.6999" y="136.4247">next</text><line style="stroke:#181818;stroke-width:0.8138351983723296;" x1="457.3754" x2="501.3225" y1="142.9614" y2="142.9614"/><text fill="#000000" font-family="sans-serif" font-size="11.3937" lengthAdjust="spacing" textLength="24.4151" x="464.6999" y="159.4334">data</text></g><!--entity new2--><g id="elem_new2"><rect fill="#98FB98" height="67.3984" rx="2.0346" ry="2.0346" style="stroke:#181818;stroke-width:0.4069175991861648;" width="40.6918" x="423.1943" y="217.3917"/><text fill="#000000" font-family="sans-serif" font-size="11.3937" font-weight="bold" lengthAdjust="spacing" textLength="24.4151" x="431.3327" y="233.0498">New</text><line style="stroke:#181818;stroke-width:0.8138351983723296;" x1="424.0081" x2="463.0722" y1="236.3312" y2="236.3312"/><line style="stroke:#181818;stroke-width:0.8138351983723296;" x1="424.0081" x2="463.0722" y1="237.9588" y2="237.9588"/><text fill="#000000" font-family="sans-serif" font-size="11.3937" lengthAdjust="spacing" textLength="23.6012" x="431.3327" y="252.8031">next</text><line style="stroke:#181818;stroke-width:0.8138351983723296;" x1="424.0081" x2="463.0722" y1="259.3398" y2="259.3398"/><text fill="#000000" font-family="sans-serif" font-size="11.3937" lengthAdjust="spacing" textLength="24.4151" x="431.3327" y="275.8118">data</text></g><!--entity prev3--><g id="elem_prev3"><rect fill="#F1F1F1" height="67.3984" rx="2.0346" ry="2.0346" style="stroke:#181818;stroke-width:0.4069175991861648;" width="43.1333" x="589.6236" y="101.0132"/><text fill="#000000" font-family="sans-serif" font-size="11.3937" font-weight="bold" lengthAdjust="spacing" textLength="26.8566" x="597.762" y="116.6714">at - 1</text><line style="stroke:#181818;stroke-width:0.8138351983723296;" x1="590.4374" x2="631.943" y1="119.9527" y2="119.9527"/><line style="stroke:#181818;stroke-width:0.8138351983723296;" x1="590.4374" x2="631.943" y1="121.5804" y2="121.5804"/><text fill="#000000" font-family="sans-serif" font-size="11.3937" lengthAdjust="spacing" textLength="23.6012" x="597.762" y="136.4247">next</text><line style="stroke:#181818;stroke-width:0.8138351983723296;" x1="590.4374" x2="631.943" y1="142.9614" y2="142.9614"/><text fill="#000000" font-family="sans-serif" font-size="11.3937" lengthAdjust="spacing" textLength="24.4151" x="597.762" y="159.4334">data</text></g><!--entity current3--><g id="elem_current3"><rect fill="#F1F1F1" height="67.3984" rx="2.0346" ry="2.0346" style="stroke:#181818;stroke-width:0.4069175991861648;" width="40.6918" x="661.648" y="101.0132"/><text fill="#000000" font-family="sans-serif" font-size="11.3937" font-weight="bold" lengthAdjust="spacing" textLength="11.3937" x="669.7864" y="116.6714">at</text><line style="stroke:#181818;stroke-width:0.8138351983723296;" x1="662.4619" x2="701.5259" y1="119.9527" y2="119.9527"/><line style="stroke:#181818;stroke-width:0.8138351983723296;" x1="662.4619" x2="701.5259" y1="121.5804" y2="121.5804"/><text fill="#000000" font-family="sans-serif" font-size="11.3937" lengthAdjust="spacing" textLength="23.6012" x="669.7864" y="136.4247">next</text><line style="stroke:#181818;stroke-width:0.8138351983723296;" x1="662.4619" x2="701.5259" y1="142.9614" y2="142.9614"/><text fill="#000000" font-family="sans-serif" font-size="11.3937" lengthAdjust="spacing" textLength="24.4151" x="669.7864" y="159.4334">data</text></g><!--entity next3--><g id="elem_next3"><rect fill="#F1F1F1" height="67.3984" rx="2.0346" ry="2.0346" style="stroke:#181818;stroke-width:0.4069175991861648;" width="45.5748" x="730.824" y="101.0132"/><text fill="#000000" font-family="sans-serif" font-size="11.3937" font-weight="bold" lengthAdjust="spacing" textLength="29.2981" x="738.9624" y="116.6714">at + 1</text><line style="stroke:#181818;stroke-width:0.8138351983723296;" x1="731.6378" x2="775.5849" y1="119.9527" y2="119.9527"/><line style="stroke:#181818;stroke-width:0.8138351983723296;" x1="731.6378" x2="775.5849" y1="121.5804" y2="121.5804"/><text fill="#000000" font-family="sans-serif" font-size="11.3937" lengthAdjust="spacing" textLength="23.6012" x="738.9624" y="136.4247">next</text><line style="stroke:#181818;stroke-width:0.8138351983723296;" x1="731.6378" x2="775.5849" y1="142.9614" y2="142.9614"/><text fill="#000000" font-family="sans-serif" font-size="11.3937" lengthAdjust="spacing" textLength="24.4151" x="738.9624" y="159.4334">data</text></g><!--entity new3--><g id="elem_new3"><rect fill="#98FB98" height="67.3984" rx="2.0346" ry="2.0346" style="stroke:#181818;stroke-width:0.4069175991861648;" width="40.6918" x="661.648" y="217.3917"/><text fill="#000000" font-family="sans-serif" font-size="11.3937" font-weight="bold" lengthAdjust="spacing" textLength="24.4151" x="669.7864" y="233.0498">New</text><line style="stroke:#181818;stroke-width:0.8138351983723296;" x1="662.4619" x2="701.5259" y1="236.3312" y2="236.3312"/><line style="stroke:#181818;stroke-width:0.8138351983723296;" x1="662.4619" x2="701.5259" y1="237.9588" y2="237.9588"/><text fill="#000000" font-family="sans-serif" font-size="11.3937" lengthAdjust="spacing" textLength="23.6012" x="669.7864" y="252.8031">next</text><line style="stroke:#181818;stroke-width:0.8138351983723296;" x1="662.4619" x2="701.5259" y1="259.3398" y2="259.3398"/><text fill="#000000" font-family="sans-serif" font-size="11.3937" lengthAdjust="spacing" textLength="24.4151" x="669.7864" y="275.8118">data</text></g><!--link prev1 to current1--><g id="link_prev1_current1"><path codeLine="32" d="M84.2401,134.7874 C93.8515,134.7874 98.588,134.7874 108.1994,134.7874 " fill="none" id="prev1-to-current1" style="stroke:#181818;stroke-width:0.8138351983723296;"/><polygon fill="#181818" points="113.0824,134.7874,105.7579,131.532,109.0132,134.7874,105.7579,138.0427,113.0824,134.7874" style="stroke:#181818;stroke-width:0.8138351983723296;"/></g><!--link current1 to next1--><g id="link_current1_next1"><path codeLine="33" d="M153.8881,134.7874 C163.353,134.7874 167.943,134.7874 177.4079,134.7874 " fill="none" id="current1-to-next1" style="stroke:#181818;stroke-width:0.8138351983723296;"/><polygon fill="#181818" points="182.2909,134.7874,174.9664,131.532,178.2218,134.7874,174.9664,138.0427,182.2909,134.7874" style="stroke:#181818;stroke-width:0.8138351983723296;"/></g><!--link current1 to new1--><g id="link_current1_new1"><path codeLine="34" d="M133.469,168.7894 C133.469,184.0163 133.469,202.0183 133.469,217.237 " fill="none" id="current1-new1" style="stroke:#FFFFFF;stroke-width:0.8138351983723296;"/></g><!--link prev2 to current2--><g id="link_prev2_current2"><path codeLine="66" d="M358.5025,134.7874 C368.1139,134.7874 372.8505,134.7874 382.4619,134.7874 " fill="none" id="prev2-to-current2" style="stroke:#181818;stroke-width:0.8138351983723296;"/><polygon fill="#181818" points="387.3449,134.7874,380.0203,131.532,383.2757,134.7874,380.0203,138.0427,387.3449,134.7874" style="stroke:#181818;stroke-width:0.8138351983723296;"/></g><!--link current2 to next2--><g id="link_current2_next2"><path codeLine="67" d="M428.1506,134.7874 C437.6155,134.7874 442.2055,134.7874 451.6704,134.7874 " fill="none" id="current2-to-next2" style="stroke:#181818;stroke-width:0.8138351983723296;"/><polygon fill="#181818" points="456.5534,134.7874,449.2289,131.532,452.4842,134.7874,449.2289,138.0427,456.5534,134.7874" style="stroke:#181818;stroke-width:0.8138351983723296;"/></g><!--link current2 to new2--><g id="link_current2_new2"><path codeLine="68" d="M418.0916,168.7894 C422.8362,184.0163 428.4598,202.0183 433.2045,217.237 " fill="none" id="current2-new2" style="stroke:#FFFFFF;stroke-width:0.8138351983723296;"/></g><!--reverse link next2 to new2--><g id="link_next2_new2"><path codeLine="69" d="M467.5362,173.4514 C462.7915,188.6782 458.6205,202.0183 453.8759,217.237 " fill="none" id="next2-backto-new2" style="stroke:#008000;stroke-width:1.6276703967446593;"/><polygon fill="#008000" points="468.9888,168.7894,463.7019,174.8139,467.7783,172.6744,469.9178,176.7508,468.9888,168.7894" style="stroke:#008000;stroke-width:1.6276703967446593;"/></g><!--link prev3 to current3--><g id="link_prev3_current3"><path codeLine="101" d="M632.765,134.7874 C642.3764,134.7874 647.1129,134.7874 656.7243,134.7874 " fill="none" id="prev3-to-current3" style="stroke:#181818;stroke-width:0.8138351983723296;"/><polygon fill="#181818" points="661.6073,134.7874,654.2828,131.532,657.5381,134.7874,654.2828,138.0427,661.6073,134.7874" style="stroke:#181818;stroke-width:0.8138351983723296;"/></g><!--link current3 to next3--><g id="link_current3_next3"><path codeLine="102" d="M702.413,134.7874 C711.8779,134.7874 716.468,134.7874 725.9329,134.7874 " fill="none" id="current3-to-next3" style="stroke:#FFFFFF;stroke-width:0.8138351983723296;"/><polygon fill="#FFFFFF" points="730.8159,134.7874,723.4914,131.532,726.7467,134.7874,723.4914,138.0427,730.8159,134.7874" style="stroke:#FFFFFF;stroke-width:0.8138351983723296;"/></g><!--link current3 to new3--><g id="link_current3_new3"><path codeLine="103" d="M672.4883,168.7894 C671.3245,184.0163 671.3245,202.0183 672.4883,217.237 " fill="none" id="current3-new3" style="stroke:#FFFFFF;stroke-width:0.8138351983723296;"/></g><!--link current3 to new3--><g id="link_current3_new3"><path codeLine="105" d="M692.061,168.7894 C693.2899,184.0163 693.6855,197.1514 692.4485,212.3701 " fill="none" id="current3-to-new3" style="stroke:#008000;stroke-width:1.6276703967446593;"/><polygon fill="#008000" points="692.0529,217.237,695.8909,210.2003,692.3826,213.1812,689.4017,209.6729,692.0529,217.237" style="stroke:#008000;stroke-width:1.6276703967446593;"/></g><!--reverse link next3 to new3--><g id="link_next3_new3"><path codeLine="104" d="M730.3135,172.9316 C720.7265,188.2886 711.9593,202.3357 702.413,217.6358 " fill="none" id="next3-backto-new3" style="stroke:#008000;stroke-width:1.6276703967446593;"/><polygon fill="#008000" points="732.8993,168.7894,726.2591,173.2788,730.7444,172.2412,731.782,176.7265,732.8993,168.7894" style="stroke:#008000;stroke-width:1.6276703967446593;"/></g><!--link first to second--><g id="link_first_second"><path codeLine="108" d="M15.4818,62.4107 C15.5353,62.2311 15.5893,62.0518 15.6437,61.8726 C15.8615,61.156 16.0871,60.4426 16.3208,59.7328 C17.2556,56.8937 18.3194,54.1131 19.5273,51.4213 C24.3591,40.6541 31.4975,31.3082 41.9125,25.3266 C77.5097,4.883 191.056,4.883 226.6531,25.3266 C249.5626,38.4863 264.2218,63.9634 273.2909,87.0285 C275.5582,92.7948 277.4762,98.4103 279.0863,103.6449 C279.2875,104.2992 279.484,104.9476 279.6757,105.5896 C279.7236,105.7501 279.7713,105.9102 279.8186,106.0699 " fill="none" id="first-second" style="stroke:#FFFFFF;stroke-width:0.8138351983723296;"/></g><!--link second to third--><g id="link_second_third"><path codeLine="109" d="M289.7443,62.4107 C289.7978,62.2311 289.8517,62.0518 289.9062,61.8726 C290.124,61.156 290.3496,60.4426 290.5833,59.7328 C291.5181,56.8937 292.5819,54.1131 293.7898,51.4213 C298.6216,40.6541 305.7599,31.3082 316.175,25.3266 C351.7721,4.883 465.3184,4.883 500.9156,25.3266 C523.825,38.4863 538.4842,63.9634 547.5534,87.0285 C549.8207,92.7948 551.7386,98.4103 553.3487,103.6449 C553.55,104.2992 553.7464,104.9476 553.9382,105.5896 C553.9861,105.7501 554.0337,105.9102 554.0811,106.0699 " fill="none" id="second-third" style="stroke:#FFFFFF;stroke-width:0.8138351983723296;"/></g><!--SRC=[jPNDReCm3CVlF8NL7QTC9RvC- -0HzW9J3obn1n9Bgv2EITNUVI414g0xhV49sy4s_lz4sb8q18_RBNIrD5LsqEAJO9DlGBHmg7Lhu9A1jL9e2ITDNpcykq1lB_j2662GJv5NQvEZwDjC3hCsEL8OuPnTA5wUjIPbLlLlKRi_lHxy_ZQ3A-fok3lPHNve8ZLlyqRTFtlufJFDYcb5llUuBvToNxY8IpRCrjIAdhggDfJzPAF6t6dSKdbKSYaoJomoJoKoJoWoJomodudCOp5v47aPzoBpcSY-jGsoy_ZMa7V3F_UF3_jZ8oCSqE5WgbglQC34D60g6Z0X3PYO1fpHWB7g66Z0bUxXZ2S3hv61WGpyWunbhI8kTWqZTrdOmSPVIjns2FLPJrYS_0K0]--></g></svg>