<?xml version="1.0" encoding="us-ascii" standalone="no"?><svg xmlns="http://www.w3.org/2000/svg" xmlns:xlink="http://www.w3.org/1999/xlink" contentStyleType="text/css" height="419px" preserveAspectRatio="none" style="width:602px;height:419px;background:#FFFFFF;" version="1.1" viewBox="0 0 602 419" width="602px" zoomAndPan="magnify"><defs/><g><line style="stroke:#181818;stroke-width:0.5;stroke-dasharray:5.0,5.0;" x1="48" x2="48" y1="85.2719" y2="335.04"/><line style="stroke:#181818;stroke-width:0.5;stroke-dasharray:5.0,5.0;" x1="123.5" x2="123.5" y1="85.2719" y2="335.04"/><line style="stroke:#181818;stroke-width:0.5;stroke-dasharray:5.0,5.0;" x1="188.5" x2="188.5" y1="85.2719" y2="335.04"/><line style="stroke:#181818;stroke-width:0.5;stroke-dasharray:5.0,5.0;" x1="260.5" x2="260.5" y1="85.2719" y2="335.04"/><line style="stroke:#181818;stroke-width:0.5;stroke-dasharray:5.0,5.0;" x1="319.5" x2="319.5" y1="85.2719" y2="335.04"/><line style="stroke:#181818;stroke-width:0.5;stroke-dasharray:5.0,5.0;" x1="385.5" x2="385.5" y1="85.2719" y2="335.04"/><line style="stroke:#181818;stroke-width:0.5;stroke-dasharray:5.0,5.0;" x1="475.5" x2="475.5" y1="85.2719" y2="335.04"/><line style="stroke:#181818;stroke-width:0.5;stroke-dasharray:5.0,5.0;" x1="563.5" x2="563.5" y1="85.2719" y2="335.04"/><rect fill="#E2E2F0" height="34.2719" rx="2.5" ry="2.5" style="stroke:#181818;stroke-width:0.5;" width="87" x="5" y="50"/><text fill="#000000" font-family="sans-serif" font-size="14" lengthAdjust="spacing" textLength="73" x="12" y="73.2399">Participant</text><rect fill="#E2E2F0" height="34.2719" rx="2.5" ry="2.5" style="stroke:#181818;stroke-width:0.5;" width="87" x="5" y="334.04"/><text fill="#000000" font-family="sans-serif" font-size="14" lengthAdjust="spacing" textLength="73" x="12" y="357.28">Participant</text><text fill="#000000" font-family="sans-serif" font-size="14" lengthAdjust="spacing" textLength="34" x="103.5" y="81.2399">Actor</text><ellipse cx="123.5" cy="13.5" fill="#E2E2F0" rx="8" ry="8" style="stroke:#181818;stroke-width:0.5;"/><path d="M123.5,21.5 L123.5,48.5 M110.5,29.5 L136.5,29.5 M123.5,48.5 L110.5,63.5 M123.5,48.5 L136.5,63.5 " fill="none" style="stroke:#181818;stroke-width:0.5;"/><text fill="#000000" font-family="sans-serif" font-size="14" lengthAdjust="spacing" textLength="34" x="103.5" y="350.28">Actor</text><ellipse cx="123.5" cy="362.8119" fill="#E2E2F0" rx="8" ry="8" style="stroke:#181818;stroke-width:0.5;"/><path d="M123.5,370.8119 L123.5,397.8119 M110.5,378.8119 L136.5,378.8119 M123.5,397.8119 L110.5,412.8119 M123.5,397.8119 L136.5,412.8119 " fill="none" style="stroke:#181818;stroke-width:0.5;"/><text fill="#000000" font-family="sans-serif" font-size="14" lengthAdjust="spacing" textLength="64" x="153.5" y="81.2399">Boundary</text><path d="M168,37 L168,61 M168,49 L185,49 " fill="none" style="stroke:#181818;stroke-width:0.5;"/><ellipse cx="197" cy="49" fill="#E2E2F0" rx="12" ry="12" style="stroke:#181818;stroke-width:0.5;"/><text fill="#000000" font-family="sans-serif" font-size="14" lengthAdjust="spacing" textLength="64" x="153.5" y="350.28">Boundary</text><path d="M168,358.3119 L168,382.3119 M168,370.3119 L185,370.3119 " fill="none" style="stroke:#181818;stroke-width:0.5;"/><ellipse cx="197" cy="370.3119" fill="#E2E2F0" rx="12" ry="12" style="stroke:#181818;stroke-width:0.5;"/><text fill="#000000" font-family="sans-serif" font-size="14" lengthAdjust="spacing" textLength="48" x="233.5" y="81.2399">Control</text><ellipse cx="260.5" cy="49" fill="#E2E2F0" rx="12" ry="12" style="stroke:#181818;stroke-width:0.5;"/><polygon fill="#181818" points="256.5,37,262.5,32,260.5,37,262.5,42,256.5,37" style="stroke:#181818;stroke-width:1.0;"/><text fill="#000000" font-family="sans-serif" font-size="14" lengthAdjust="spacing" textLength="48" x="233.5" y="350.28">Control</text><ellipse cx="260.5" cy="370.3119" fill="#E2E2F0" rx="12" ry="12" style="stroke:#181818;stroke-width:0.5;"/><polygon fill="#181818" points="256.5,358.3119,262.5,353.3119,260.5,358.3119,262.5,363.3119,256.5,358.3119" style="stroke:#181818;stroke-width:1.0;"/><text fill="#000000" font-family="sans-serif" font-size="14" lengthAdjust="spacing" textLength="38" x="297.5" y="81.2399">Entity</text><ellipse cx="319.5" cy="49" fill="#E2E2F0" rx="12" ry="12" style="stroke:#181818;stroke-width:0.5;"/><line style="stroke:#181818;stroke-width:0.5;" x1="307.5" x2="331.5" y1="63" y2="63"/><text fill="#000000" font-family="sans-serif" font-size="14" lengthAdjust="spacing" textLength="38" x="297.5" y="350.28">Entity</text><ellipse cx="319.5" cy="370.3119" fill="#E2E2F0" rx="12" ry="12" style="stroke:#181818;stroke-width:0.5;"/><line style="stroke:#181818;stroke-width:0.5;" x1="307.5" x2="331.5" y1="384.3119" y2="384.3119"/><text fill="#000000" font-family="sans-serif" font-size="14" lengthAdjust="spacing" textLength="63" x="351.5" y="81.2399">Database</text><path d="M368,29 C368,19 386,19 386,19 C386,19 404,19 404,29 L404,55 C404,65 386,65 386,65 C386,65 368,65 368,55 L368,29 " fill="#E2E2F0" style="stroke:#181818;stroke-width:1.5;"/><path d="M368,29 C368,39 386,39 386,39 C386,39 404,39 404,29 " fill="none" style="stroke:#181818;stroke-width:1.5;"/><text fill="#000000" font-family="sans-serif" font-size="14" lengthAdjust="spacing" textLength="63" x="351.5" y="350.28">Database</text><path d="M368,364.3119 C368,354.3119 386,354.3119 386,354.3119 C386,354.3119 404,354.3119 404,364.3119 L404,390.3119 C404,400.3119 386,400.3119 386,400.3119 C386,400.3119 368,400.3119 368,390.3119 L368,364.3119 " fill="#E2E2F0" style="stroke:#181818;stroke-width:1.5;"/><path d="M368,364.3119 C368,374.3119 386,374.3119 386,374.3119 C386,374.3119 404,374.3119 404,364.3119 " fill="none" style="stroke:#181818;stroke-width:1.5;"/><rect fill="#E2E2F0" height="34.2719" style="stroke:#181818;stroke-width:0.5;" width="87" x="434.5" y="46"/><rect fill="#E2E2F0" height="34.2719" style="stroke:#181818;stroke-width:0.5;" width="87" x="430.5" y="50"/><text fill="#000000" font-family="sans-serif" font-size="14" lengthAdjust="spacing" textLength="73" x="437.5" y="73.2399">Collections</text><rect fill="#E2E2F0" height="34.2719" style="stroke:#181818;stroke-width:0.5;" width="87" x="434.5" y="334.04"/><rect fill="#E2E2F0" height="34.2719" style="stroke:#181818;stroke-width:0.5;" width="87" x="430.5" y="338.04"/><text fill="#000000" font-family="sans-serif" font-size="14" lengthAdjust="spacing" textLength="73" x="437.5" y="361.28">Collections</text><path d="M536.5,55 L590.5,55 C595.5,55 595.5,70.136 595.5,70.136 C595.5,70.136 595.5,85.2719 590.5,85.2719 L536.5,85.2719 C531.5,85.2719 531.5,70.136 531.5,70.136 C531.5,70.136 531.5,55 536.5,55 " fill="#E2E2F0" style="stroke:#181818;stroke-width:0.5;"/><path d="M590.5,55 C585.5,55 585.5,70.136 585.5,70.136 C585.5,85.2719 590.5,85.2719 590.5,85.2719 " fill="none" style="stroke:#181818;stroke-width:0.5;"/><text fill="#000000" font-family="sans-serif" font-size="14" lengthAdjust="spacing" textLength="44" x="536.5" y="76.2399">Queue</text><path d="M536.5,334.04 L590.5,334.04 C595.5,334.04 595.5,349.176 595.5,349.176 C595.5,349.176 595.5,364.3119 590.5,364.3119 L536.5,364.3119 C531.5,364.3119 531.5,349.176 531.5,349.176 C531.5,349.176 531.5,334.04 536.5,334.04 " fill="#E2E2F0" style="stroke:#181818;stroke-width:0.5;"/><path d="M590.5,334.04 C585.5,334.04 585.5,349.176 585.5,349.176 C585.5,364.3119 590.5,364.3119 590.5,364.3119 " fill="none" style="stroke:#181818;stroke-width:0.5;"/><text fill="#000000" font-family="sans-serif" font-size="14" lengthAdjust="spacing" textLength="44" x="536.5" y="355.28">Queue</text><polygon fill="#181818" points="111.5,116.0959,121.5,120.0959,111.5,124.0959,115.5,120.0959" style="stroke:#181818;stroke-width:1.0;"/><line style="stroke:#181818;stroke-width:1.0;" x1="48.5" x2="117.5" y1="120.0959" y2="120.0959"/><text fill="#000000" font-family="sans-serif" font-size="13" lengthAdjust="spacing" textLength="51" x="55.5" y="114.3519">To actor</text><polygon fill="#181818" points="176.5,148.9199,186.5,152.9199,176.5,156.9199,180.5,152.9199" style="stroke:#181818;stroke-width:1.0;"/><line style="stroke:#181818;stroke-width:1.0;" x1="48.5" x2="182.5" y1="152.9199" y2="152.9199"/><text fill="#000000" font-family="sans-serif" font-size="13" lengthAdjust="spacing" textLength="78" x="55.5" y="147.1759">To boundary</text><polygon fill="#181818" points="248.5,181.744,258.5,185.744,248.5,189.744,252.5,185.744" style="stroke:#181818;stroke-width:1.0;"/><line style="stroke:#181818;stroke-width:1.0;" x1="48.5" x2="254.5" y1="185.744" y2="185.744"/><text fill="#000000" font-family="sans-serif" font-size="13" lengthAdjust="spacing" textLength="64" x="55.5" y="180">To control</text><polygon fill="#181818" points="307.5,214.568,317.5,218.568,307.5,222.568,311.5,218.568" style="stroke:#181818;stroke-width:1.0;"/><line style="stroke:#181818;stroke-width:1.0;" x1="48.5" x2="313.5" y1="218.568" y2="218.568"/><text fill="#000000" font-family="sans-serif" font-size="13" lengthAdjust="spacing" textLength="55" x="55.5" y="212.824">To entity</text><polygon fill="#181818" points="374,247.392,384,251.392,374,255.392,378,251.392" style="stroke:#181818;stroke-width:1.0;"/><line style="stroke:#181818;stroke-width:1.0;" x1="48.5" x2="380" y1="251.392" y2="251.392"/><text fill="#000000" font-family="sans-serif" font-size="13" lengthAdjust="spacing" textLength="74" x="55.5" y="245.648">To database</text><polygon fill="#181818" points="464,280.216,474,284.216,464,288.216,468,284.216" style="stroke:#181818;stroke-width:1.0;"/><line style="stroke:#181818;stroke-width:1.0;" x1="48.5" x2="470" y1="284.216" y2="284.216"/><text fill="#000000" font-family="sans-serif" font-size="13" lengthAdjust="spacing" textLength="87" x="55.5" y="278.472">To collections</text><polygon fill="#181818" points="551.5,313.04,561.5,317.04,551.5,321.04,555.5,317.04" style="stroke:#181818;stroke-width:1.0;"/><line style="stroke:#181818;stroke-width:1.0;" x1="48.5" x2="557.5" y1="317.04" y2="317.04"/><text fill="#000000" font-family="sans-serif" font-size="13" lengthAdjust="spacing" textLength="57" x="55.5" y="311.296">To queue</text><!--SRC=[JOyx2iCm44JxFOKka2B-Gef0ldK2kS1QLY4mMbjU5xvzRAsTh0enp4E3Ne-HlVKz1ZOlbN4qJo90onIDd8lAWe_Gq1HQZFFQNLKMde6bm96wzEQcil0SN63Fism-L1PUG8kC3OvkxUug2o-N_QvpbZs5STd_P-4L39ERtFRdjyh2QrWkSpWd5tCo7p99MDMPrBkd8hcGpL21Ge2egRwKVbTIfDgdVW8Areab4VW2]--></g></svg>