<?xml version="1.0" encoding="us-ascii" standalone="no"?><svg xmlns="http://www.w3.org/2000/svg" xmlns:xlink="http://www.w3.org/1999/xlink" contentStyleType="text/css" height="754px" preserveAspectRatio="none" style="width:1464px;height:754px;background:#FFFFFF;" version="1.1" viewBox="0 0 1464 754" width="1464px" zoomAndPan="magnify"><defs/><g><!--cluster Min Heap--><g id="cluster_Min Heap"><rect fill="none" height="741" rx="2.5" ry="2.5" style="stroke:#181818;stroke-width:1.0;" width="1450" x="7" y="7"/><line style="stroke:#181818;stroke-width:1.0;" x1="7" x2="1457" y1="31.2719" y2="31.2719"/><text fill="#000000" font-family="sans-serif" font-size="14" font-weight="bold" lengthAdjust="spacing" textLength="64" x="700" y="25.2399">Min Heap</text></g><!--cluster r1--><g id="cluster_r1"><rect fill="none" height="318" rx="2.5" ry="2.5" style="stroke:#181818;stroke-width:1.0;" width="357" x="39" y="62"/><text fill="#000000" font-family="sans-serif" font-size="14" font-weight="bold" lengthAdjust="spacing" textLength="43" x="196" y="80.2399">Step 1</text></g><!--cluster r2--><g id="cluster_r2"><rect fill="none" height="358" rx="2.5" ry="2.5" style="stroke:#181818;stroke-width:1.0;" width="357" x="436" y="168"/><text fill="#000000" font-family="sans-serif" font-size="14" font-weight="bold" lengthAdjust="spacing" textLength="43" x="593" y="186.2399">Step 2</text></g><!--cluster r3--><g id="cluster_r3"><rect fill="none" height="347" rx="2.5" ry="2.5" style="stroke:#181818;stroke-width:1.0;" width="276" x="833" y="274"/><text fill="#000000" font-family="sans-serif" font-size="14" font-weight="bold" lengthAdjust="spacing" textLength="43" x="949.5" y="292.2399">Step 3</text></g><!--cluster r4--><g id="cluster_r4"><rect fill="none" height="296" rx="2.5" ry="2.5" style="stroke:#181818;stroke-width:1.0;" width="276" x="1149" y="420"/><text fill="#000000" font-family="sans-serif" font-size="14" font-weight="bold" lengthAdjust="spacing" textLength="43" x="1265.5" y="438.2399">Step 4</text></g><g id="elem_t1n1"><ellipse cx="209.799" cy="126.3344" fill="#F1F1F1" rx="22.799" ry="17.3344" style="stroke:#181818;stroke-width:0.5;"/><text fill="#000000" font-family="sans-serif" font-size="14" lengthAdjust="spacing" textLength="16" x="201.799" y="130.4384">10</text></g><g id="elem_t1n2"><ellipse cx="166.799" cy="232.3344" fill="#F1F1F1" rx="22.799" ry="17.3344" style="stroke:#181818;stroke-width:0.5;"/><text fill="#000000" font-family="sans-serif" font-size="14" lengthAdjust="spacing" textLength="16" x="158.799" y="236.4384">50</text></g><g id="elem_t1n3"><ellipse cx="253.799" cy="232.3344" fill="#F1F1F1" rx="22.799" ry="17.3344" style="stroke:#181818;stroke-width:0.5;"/><text fill="#000000" font-family="sans-serif" font-size="14" lengthAdjust="spacing" textLength="16" x="245.799" y="236.4384">30</text></g><g id="elem_t1n4"><ellipse cx="85.799" cy="338.3344" fill="#FF6347" rx="22.799" ry="17.3344" style="stroke:#181818;stroke-width:0.5;"/><text fill="#000000" font-family="sans-serif" font-size="14" lengthAdjust="spacing" textLength="16" x="77.799" y="342.4384">60</text></g><g id="elem_t1n5"><ellipse cx="166.799" cy="338.3344" fill="#F1F1F1" rx="22.799" ry="17.3344" style="stroke:#181818;stroke-width:0.5;"/><text fill="#000000" font-family="sans-serif" font-size="14" lengthAdjust="spacing" textLength="16" x="158.799" y="342.4384">80</text></g><g id="elem_t1n6"><ellipse cx="253.9562" cy="338.3346" fill="#F1F1F1" rx="28.4562" ry="17.3346" style="stroke:#181818;stroke-width:0.5;"/><text fill="#000000" font-family="sans-serif" font-size="14" lengthAdjust="spacing" textLength="24" x="241.8567" y="342.4947">100</text></g><g id="elem_t1n7"><ellipse cx="340.799" cy="338.3344" fill="#ADD8E6" rx="22.799" ry="17.3344" style="stroke:#181818;stroke-width:0.5;"/><text fill="#000000" font-family="sans-serif" font-size="14" lengthAdjust="spacing" textLength="16" x="332.799" y="342.4384">40</text></g><g id="elem_t2n1"><ellipse cx="606.799" cy="232.3344" fill="#F1F1F1" rx="22.799" ry="17.3344" style="stroke:#181818;stroke-width:0.5;"/><text fill="#000000" font-family="sans-serif" font-size="14" lengthAdjust="spacing" textLength="16" x="598.799" y="236.4384">10</text></g><g id="elem_t2n2"><ellipse cx="563.799" cy="338.3344" fill="#F1F1F1" rx="22.799" ry="17.3344" style="stroke:#181818;stroke-width:0.5;"/><text fill="#000000" font-family="sans-serif" font-size="14" lengthAdjust="spacing" textLength="16" x="555.799" y="342.4384">50</text></g><g id="elem_t2n3"><ellipse cx="650.799" cy="338.3344" fill="#F1F1F1" rx="22.799" ry="17.3344" style="stroke:#181818;stroke-width:0.5;"/><text fill="#000000" font-family="sans-serif" font-size="14" lengthAdjust="spacing" textLength="16" x="642.799" y="342.4384">30</text></g><g id="elem_t2n4"><ellipse cx="482.799" cy="484.3344" fill="#ADD8E6" rx="22.799" ry="17.3344" style="stroke:#181818;stroke-width:0.5;"/><text fill="#000000" font-family="sans-serif" font-size="14" lengthAdjust="spacing" textLength="16" x="474.799" y="488.4384">40</text></g><g id="elem_t2n5"><ellipse cx="563.799" cy="484.3344" fill="#F1F1F1" rx="22.799" ry="17.3344" style="stroke:#181818;stroke-width:0.5;"/><text fill="#000000" font-family="sans-serif" font-size="14" lengthAdjust="spacing" textLength="16" x="555.799" y="488.4384">80</text></g><g id="elem_t2n6"><ellipse cx="650.9562" cy="484.3346" fill="#F1F1F1" rx="28.4562" ry="17.3346" style="stroke:#181818;stroke-width:0.5;"/><text fill="#000000" font-family="sans-serif" font-size="14" lengthAdjust="spacing" textLength="24" x="638.8567" y="488.4947">100</text></g><g id="elem_t2n7"><ellipse cx="737.799" cy="484.3344" fill="#FF6347" rx="22.799" ry="17.3344" style="stroke:#181818;stroke-width:0.5;"/><text fill="#000000" font-family="sans-serif" font-size="14" lengthAdjust="spacing" textLength="16" x="729.799" y="488.4384">60</text></g><g id="elem_t3n1"><ellipse cx="1001.799" cy="338.3344" fill="#F1F1F1" rx="22.799" ry="17.3344" style="stroke:#181818;stroke-width:0.5;"/><text fill="#000000" font-family="sans-serif" font-size="14" lengthAdjust="spacing" textLength="16" x="993.799" y="342.4384">10</text></g><g id="elem_t3n2"><ellipse cx="960.799" cy="484.3344" fill="#F1F1F1" rx="22.799" ry="17.3344" style="stroke:#181818;stroke-width:0.5;"/><text fill="#000000" font-family="sans-serif" font-size="14" lengthAdjust="spacing" textLength="16" x="952.799" y="488.4384">50</text></g><g id="elem_t3n3"><ellipse cx="1044.799" cy="484.3344" fill="#F1F1F1" rx="22.799" ry="17.3344" style="stroke:#181818;stroke-width:0.5;"/><text fill="#000000" font-family="sans-serif" font-size="14" lengthAdjust="spacing" textLength="16" x="1036.799" y="488.4384">30</text></g><g id="elem_t3n4"><ellipse cx="879.799" cy="579.3344" fill="#ADD8E6" rx="22.799" ry="17.3344" style="stroke:#181818;stroke-width:0.5;"/><text fill="#000000" font-family="sans-serif" font-size="14" lengthAdjust="spacing" textLength="16" x="871.799" y="583.4384">40</text></g><g id="elem_t3n5"><ellipse cx="960.799" cy="579.3344" fill="#F1F1F1" rx="22.799" ry="17.3344" style="stroke:#181818;stroke-width:0.5;"/><text fill="#000000" font-family="sans-serif" font-size="14" lengthAdjust="spacing" textLength="16" x="952.799" y="583.4384">80</text></g><g id="elem_t3n6"><ellipse cx="1047.9562" cy="579.3346" fill="#F1F1F1" rx="28.4562" ry="17.3346" style="stroke:#181818;stroke-width:0.5;"/><text fill="#000000" font-family="sans-serif" font-size="14" lengthAdjust="spacing" textLength="24" x="1035.8567" y="583.4947">100</text></g><g id="elem_t4n1"><ellipse cx="1326.799" cy="484.3344" fill="#F1F1F1" rx="22.799" ry="17.3344" style="stroke:#181818;stroke-width:0.5;"/><text fill="#000000" font-family="sans-serif" font-size="14" lengthAdjust="spacing" textLength="16" x="1318.799" y="488.4384">10</text></g><g id="elem_t4n2"><ellipse cx="1284.799" cy="579.3344" fill="#ADD8E6" rx="22.799" ry="17.3344" style="stroke:#181818;stroke-width:0.5;"/><text fill="#000000" font-family="sans-serif" font-size="14" lengthAdjust="spacing" textLength="16" x="1276.799" y="583.4384">40</text></g><g id="elem_t4n3"><ellipse cx="1368.799" cy="579.3344" fill="#F1F1F1" rx="22.799" ry="17.3344" style="stroke:#181818;stroke-width:0.5;"/><text fill="#000000" font-family="sans-serif" font-size="14" lengthAdjust="spacing" textLength="16" x="1360.799" y="583.4384">30</text></g><g id="elem_t4n4"><ellipse cx="1203.799" cy="674.3344" fill="#F1F1F1" rx="22.799" ry="17.3344" style="stroke:#181818;stroke-width:0.5;"/><text fill="#000000" font-family="sans-serif" font-size="14" lengthAdjust="spacing" textLength="16" x="1195.799" y="678.4384">50</text></g><g id="elem_t4n5"><ellipse cx="1284.799" cy="674.3344" fill="#F1F1F1" rx="22.799" ry="17.3344" style="stroke:#181818;stroke-width:0.5;"/><text fill="#000000" font-family="sans-serif" font-size="14" lengthAdjust="spacing" textLength="16" x="1276.799" y="678.4384">80</text></g><g id="elem_t4n6"><ellipse cx="1371.9562" cy="674.3346" fill="#F1F1F1" rx="28.4562" ry="17.3346" style="stroke:#181818;stroke-width:0.5;"/><text fill="#000000" font-family="sans-serif" font-size="14" lengthAdjust="spacing" textLength="24" x="1359.8567" y="678.4947">100</text></g><!--link t1n1 to t1n2--><g id="link_t1n1_t1n2"><path d="M203.47,143.3 C195.39,162.84 183.992,190.395 175.882,210.015 " fill="none" id="t1n1-to-t1n2" style="stroke:#181818;stroke-width:1.0;"/><polygon fill="#181818" points="173.59,215.56,180.7247,208.7706,175.5,210.9392,173.3314,205.7145,173.59,215.56" style="stroke:#181818;stroke-width:1.0;"/></g><!--link t1n1 to t1n3--><g id="link_t1n1_t1n3"><path d="M216.68,143.3 C224.95,162.84 236.6247,190.4131 244.9147,210.0331 " fill="none" id="t1n1-to-t1n3" style="stroke:#181818;stroke-width:1.0;"/><polygon fill="#181818" points="247.25,215.56,247.4317,205.7128,245.3039,210.9543,240.0625,208.8265,247.25,215.56" style="stroke:#181818;stroke-width:1.0;"/></g><!--link t1n2 to t1n4--><g id="link_t1n2_t1n4"><path d="M147.43,242.25 C140.04,246.26 131.99,251.56 126,258 C108.74,276.55 99.1684,298.299 93.0884,315.609 " fill="none" id="t1n2-to-t1n4" style="stroke:#181818;stroke-width:1.0;"/><polygon fill="#181818" points="91.1,321.27,97.8565,314.1041,92.757,316.5525,90.3086,311.453,91.1,321.27" style="stroke:#181818;stroke-width:1.0;"/></g><!--link t1n2 to t1n5--><g id="link_t1n2_t1n5"><path d="M167,250.21 C167,269.62 167,295.44 167,314.83 " fill="none" id="t1n2-to-t1n5" style="stroke:#181818;stroke-width:1.0;"/><polygon fill="#181818" points="167,320.83,171,311.83,167,315.83,163,311.83,167,320.83" style="stroke:#181818;stroke-width:1.0;"/></g><!--link t1n3 to t1n6--><g id="link_t1n3_t1n6"><path d="M254,250.21 C254,269.62 254,295.44 254,314.83 " fill="none" id="t1n3-to-t1n6" style="stroke:#181818;stroke-width:1.0;"/><polygon fill="#181818" points="254,320.83,258,311.83,254,315.83,250,311.83,254,320.83" style="stroke:#181818;stroke-width:1.0;"/></g><!--link t1n3 to t1n7--><g id="link_t1n3_t1n7"><path d="M274.53,241.19 C283.19,245.2 292.88,250.79 300,258 C318,276.24 327.8394,298.3298 333.9694,315.7598 " fill="none" id="t1n3-to-t1n7" style="stroke:#181818;stroke-width:1.0;"/><polygon fill="#181818" points="335.96,321.42,336.7475,311.6027,334.3011,316.7032,329.2006,314.2569,335.96,321.42" style="stroke:#181818;stroke-width:1.0;"/></g><!--link t2n1 to t2n2--><g id="link_t2n1_t2n2"><path d="M600.47,249.3 C592.39,268.84 580.992,296.395 572.882,316.015 " fill="none" id="t2n1-to-t2n2" style="stroke:#181818;stroke-width:1.0;"/><polygon fill="#181818" points="570.59,321.56,577.7247,314.7706,572.5,316.9392,570.3314,311.7145,570.59,321.56" style="stroke:#181818;stroke-width:1.0;"/></g><!--link t2n1 to t2n3--><g id="link_t2n1_t2n3"><path d="M613.68,249.3 C621.95,268.84 633.6247,296.4131 641.9147,316.0331 " fill="none" id="t2n1-to-t2n3" style="stroke:#181818;stroke-width:1.0;"/><polygon fill="#181818" points="644.25,321.56,644.4317,311.7128,642.3039,316.9543,637.0625,314.8265,644.25,321.56" style="stroke:#181818;stroke-width:1.0;"/></g><!--link t2n2 to t2n4--><g id="link_t2n2_t2n4"><path d="M554.28,354.42 C545.96,367.36 533.81,386.69 524,404 C511.67,425.75 501.284,446.2089 493.304,462.3889 " fill="none" id="t2n2-to-t2n4" style="stroke:#181818;stroke-width:1.0;"/><polygon fill="#181818" points="490.65,467.77,498.2184,461.4676,492.8616,463.2857,491.0436,457.929,490.65,467.77" style="stroke:#181818;stroke-width:1.0;"/></g><!--link t2n2 to t2n5--><g id="link_t2n2_t2n5"><path d="M564,356.02 C564,383.65 564,432.93 564,460.73 " fill="none" id="t2n2-to-t2n5" style="stroke:#181818;stroke-width:1.0;"/><polygon fill="#181818" points="564,466.73,568,457.73,564,461.73,560,457.73,564,466.73" style="stroke:#181818;stroke-width:1.0;"/></g><!--link t2n3 to t2n6--><g id="link_t2n3_t2n6"><path d="M651,356.02 C651,383.65 651,432.93 651,460.73 " fill="none" id="t2n3-to-t2n6" style="stroke:#181818;stroke-width:1.0;"/><polygon fill="#181818" points="651,466.73,655,457.73,651,461.73,647,457.73,651,466.73" style="stroke:#181818;stroke-width:1.0;"/></g><!--link t2n3 to t2n7--><g id="link_t2n3_t2n7"><path d="M662.22,353.95 C671.94,366.76 686.11,386.15 697,404 C710.02,425.34 720.3062,445.8601 728.0562,462.1801 " fill="none" id="t2n3-to-t2n7" style="stroke:#181818;stroke-width:1.0;"/><polygon fill="#181818" points="730.63,467.6,730.3826,457.7543,728.4852,463.0834,723.156,461.186,730.63,467.6" style="stroke:#181818;stroke-width:1.0;"/></g><!--link t3n1 to t3n2--><g id="link_t3n1_t3n2"><path d="M997.38,355.74 C989.5,383.4 975.2237,433.5595 967.3137,461.3295 " fill="none" id="t3n1-to-t3n2" style="stroke:#181818;stroke-width:1.0;"/><polygon fill="#181818" points="965.67,467.1,971.9825,459.5401,967.0397,462.2913,964.2885,457.3485,965.67,467.1" style="stroke:#181818;stroke-width:1.0;"/></g><!--link t3n1 to t3n3--><g id="link_t3n1_t3n3"><path d="M1006.85,355.74 C1015.11,383.4 1030.0937,433.5807 1038.3837,461.3507 " fill="none" id="t3n1-to-t3n3" style="stroke:#181818;stroke-width:1.0;"/><polygon fill="#181818" points="1040.1,467.1,1041.3584,457.3319,1038.6698,462.3089,1033.6927,459.6203,1040.1,467.1" style="stroke:#181818;stroke-width:1.0;"/></g><!--link t3n2 to t3n4--><g id="link_t3n2_t3n4"><path d="M948.7,499.62 C933.38,517.21 911.3419,542.5265 896.0919,560.0265 " fill="none" id="t3n2-to-t3n4" style="stroke:#181818;stroke-width:1.0;"/><polygon fill="#181818" points="892.15,564.55,901.0784,560.3927,895.4349,560.7805,895.0472,555.1369,892.15,564.55" style="stroke:#181818;stroke-width:1.0;"/></g><!--link t3n2 to t3n5--><g id="link_t3n2_t3n5"><path d="M961,502.13 C961,518.95 961,538.82 961,555.7 " fill="none" id="t3n2-to-t3n5" style="stroke:#181818;stroke-width:1.0;"/><polygon fill="#181818" points="961,561.7,965,552.7,961,556.7,957,552.7,961,561.7" style="stroke:#181818;stroke-width:1.0;"/></g><!--link t3n3 to t3n6--><g id="link_t3n3_t3n6"><path d="M1045.54,502.13 C1046.08,518.95 1046.7146,538.8232 1047.2646,555.7032 " fill="none" id="t3n3-to-t3n6" style="stroke:#181818;stroke-width:1.0;"/><polygon fill="#181818" points="1047.46,561.7,1051.1648,552.5745,1047.2972,556.7027,1043.169,552.835,1047.46,561.7" style="stroke:#181818;stroke-width:1.0;"/></g><!--link t4n1 to t4n2--><g id="link_t4n1_t4n2"><path d="M1319.88,501.28 C1312.15,518.38 1302.3693,540.0417 1294.6293,557.1817 " fill="none" id="t4n1-to-t4n2" style="stroke:#181818;stroke-width:1.0;"/><polygon fill="#181818" points="1292.16,562.65,1299.5096,556.0938,1294.2178,558.0931,1292.2185,552.8013,1292.16,562.65" style="stroke:#181818;stroke-width:1.0;"/></g><!--link t4n1 to t4n3--><g id="link_t4n1_t4n3"><path d="M1334.12,501.28 C1341.85,518.38 1351.6307,540.0417 1359.3707,557.1817 " fill="none" id="t4n1-to-t4n3" style="stroke:#181818;stroke-width:1.0;"/><polygon fill="#181818" points="1361.84,562.65,1361.7815,552.8013,1359.7822,558.0931,1354.4904,556.0938,1361.84,562.65" style="stroke:#181818;stroke-width:1.0;"/></g><!--link t4n2 to t4n4--><g id="link_t4n2_t4n4"><path d="M1272.7,594.62 C1257.38,612.21 1235.3419,637.5265 1220.0919,655.0265 " fill="none" id="t4n2-to-t4n4" style="stroke:#181818;stroke-width:1.0;"/><polygon fill="#181818" points="1216.15,659.55,1225.0784,655.3927,1219.4349,655.7805,1219.0472,650.1369,1216.15,659.55" style="stroke:#181818;stroke-width:1.0;"/></g><!--link t4n2 to t4n5--><g id="link_t4n2_t4n5"><path d="M1285,597.13 C1285,613.95 1285,633.82 1285,650.7 " fill="none" id="t4n2-to-t4n5" style="stroke:#181818;stroke-width:1.0;"/><polygon fill="#181818" points="1285,656.7,1289,647.7,1285,651.7,1281,647.7,1285,656.7" style="stroke:#181818;stroke-width:1.0;"/></g><!--link t4n3 to t4n6--><g id="link_t4n3_t4n6"><path d="M1369.54,597.13 C1370.08,613.95 1370.7146,633.8232 1371.2646,650.7032 " fill="none" id="t4n3-to-t4n6" style="stroke:#181818;stroke-width:1.0;"/><polygon fill="#181818" points="1371.46,656.7,1375.1648,647.5745,1371.2972,651.7027,1367.169,647.835,1371.46,656.7" style="stroke:#181818;stroke-width:1.0;"/></g><!--link r1 to r2--><g id="link_r1_r2"><path d="M396.0591,127.3985 C396.2854,127.396 396.5161,127.3934 396.7513,127.3908 C397.2216,127.3856 397.7096,127.3802 398.2149,127.3748 C400.2363,127.3532 402.5353,127.3302 405.0915,127.3071 C415.3164,127.2146 429.6573,127.1202 446.8083,127.1023 C481.1103,127.0666 526.6531,127.3369 572.9913,128.5413 C665.6675,130.95 761.525,137.095 777,152 C780.0975,154.9838 782.5622,158.4106 784.5019,162.1296 C785.4717,163.989 784.2638,160.2813 784.9847,162.2679 " fill="none" id="r1-to-r2" style="stroke:#FFFFFF;stroke-width:1.0;"/><polygon fill="#FFFFFF" points="787.0312,167.9081,787.7215,158.0835,785.3257,163.2079,780.2013,160.8122,787.0312,167.9081" style="stroke:#FFFFFF;stroke-width:1.0;"/></g><!--link r2 to r3--><g id="link_r2_r3"><path d="M793.0878,233.5385 C794.6892,233.5488 796.5106,233.5618 798.5357,233.5782 C806.6363,233.6438 817.9972,233.7634 831.5838,233.9813 C858.7569,234.4169 894.8325,235.245 931.5325,236.8175 C1004.9325,239.9625 1080.83,246.085 1093,258 C1096.0725,261.0087 1098.5181,264.4545 1100.4437,268.1874 C1101.4064,270.0538 1100.2088,266.346 1100.9248,268.3372 " fill="none" id="r2-to-r3" style="stroke:#FFFFFF;stroke-width:1.0;"/><polygon fill="#FFFFFF" points="1102.9552,273.9832,1103.6737,264.1606,1101.2632,269.2782,1096.1456,266.8678,1102.9552,273.9832" style="stroke:#FFFFFF;stroke-width:1.0;"/></g><!--link r3 to r4--><g id="link_r3_r4"><path d="M1109.0643,360.2354 C1109.1414,360.4336 1109.2189,360.633 1109.2968,360.8334 C1109.6085,361.6349 1109.9269,362.4534 1110.2514,363.288 C1115.4441,376.6403 1122.2281,394.0844 1129.0113,411.5263 C1135.7944,428.9681 1142.5766,446.4078 1147.7655,459.7514 C1148.0898,460.5854 1148.4079,461.4034 1148.7193,462.2043 C1148.7972,462.4046 1146.7001,457.0117 1146.7771,457.2098 " fill="none" id="r3-to-r4" style="stroke:#FFFFFF;stroke-width:1.0;"/><polygon fill="#FFFFFF" points="1148.9517,462.8019,1149.4179,452.964,1147.1396,458.1418,1141.9618,455.8634,1148.9517,462.8019" style="stroke:#FFFFFF;stroke-width:1.0;"/></g><!--SRC=[ZPH1ReCm44NtdCA2TQGoCpPTTPrDLpq19LQ2b98877LHvUvre9buX3CgEzx_GlP_4bqxxapvtWzcwzjpQNuA4v_HTw4TzaTloe_WpwOkJJkPiVwBRyzbybqxnKBzCeUX7kfrQ3c4TOWSuZfq79Afmkch3QTrwPLBDdSmJjqw9GuRKntx_I5y7Y- -uEBjFcQpsxp9mmkCeWxCAO-jg2DpbyVDZAz5rWWiHa0p0feHq8n0pWXnIEbYJwM0AWLoKXo73Kj_Z0CyVNfuWL7KWJdbiHLrPExoM3M2Yn7KZA1c13KZg1d1Vnf1rGZ6Qp_kZRngUYw1KTI1EUMn5NLaxhHLQLcLj5Kfjofn2Eeso3ryheQIEwrM9NLL4giIpqVfgYb6KGVcbCTMr97vVTLvrFZrIEFVele-z65P8RxD40N41T8TNejV]--></g></svg>