<?xml version="1.0" encoding="us-ascii" standalone="no"?><svg xmlns="http://www.w3.org/2000/svg" xmlns:xlink="http://www.w3.org/1999/xlink" contentStyleType="text/css" height="436px" preserveAspectRatio="none" style="width:1321px;height:436px;background:#FFFFFF;" version="1.1" viewBox="0 0 1321 436" width="1321px" zoomAndPan="magnify"><defs/><g><!--cluster first--><g id="cluster_first"><rect fill="none" height="353" rx="2.5" ry="2.5" style="stroke:#181818;stroke-width:1.0;" width="297" x="7" y="77.12"/><path d="M25,77.12 L25,90.3919 L15,100.3919 L7,100.3919 " fill="none" style="stroke:#181818;stroke-width:1.0;"/><text fill="#000000" font-family="sans-serif" font-size="14" font-weight="bold" lengthAdjust="spacing" textLength="8" x="10" y="94.3599">1</text></g><!--cluster second--><g id="cluster_second"><rect fill="none" height="353" rx="2.5" ry="2.5" style="stroke:#181818;stroke-width:1.0;" width="297" x="344" y="77.12"/><path d="M362,77.12 L362,90.3919 L352,100.3919 L344,100.3919 " fill="none" style="stroke:#181818;stroke-width:1.0;"/><text fill="#000000" font-family="sans-serif" font-size="14" font-weight="bold" lengthAdjust="spacing" textLength="8" x="347" y="94.3599">2</text></g><!--cluster third--><g id="cluster_third"><rect fill="none" height="353" rx="2.5" ry="2.5" style="stroke:#181818;stroke-width:1.0;" width="297" x="681" y="77.12"/><path d="M699,77.12 L699,90.3919 L689,100.3919 L681,100.3919 " fill="none" style="stroke:#181818;stroke-width:1.0;"/><text fill="#000000" font-family="sans-serif" font-size="14" font-weight="bold" lengthAdjust="spacing" textLength="8" x="684" y="94.3599">3</text></g><!--cluster fourth--><g id="cluster_fourth"><rect fill="none" height="353" rx="2.5" ry="2.5" style="stroke:#181818;stroke-width:1.0;" width="297" x="1018" y="77.12"/><path d="M1036,77.12 L1036,90.3919 L1026,100.3919 L1018,100.3919 " fill="none" style="stroke:#181818;stroke-width:1.0;"/><text fill="#000000" font-family="sans-serif" font-size="14" font-weight="bold" lengthAdjust="spacing" textLength="8" x="1021" y="94.3599">4</text></g><!--entity prev1--><g id="elem_prev1"><rect fill="#F1F1F1" height="111.0876" rx="2.5" ry="2.5" style="stroke:#181818;stroke-width:0.5;" width="53" x="50.5" y="124.12"/><text fill="#000000" font-family="sans-serif" font-size="14" font-weight="bold" lengthAdjust="spacing" textLength="33" x="60.5" y="143.3599">at - 1</text><line style="stroke:#181818;stroke-width:1.0;" x1="51.5" x2="102.5" y1="147.3919" y2="147.3919"/><line style="stroke:#181818;stroke-width:1.0;" x1="51.5" x2="102.5" y1="149.3919" y2="149.3919"/><text fill="#000000" font-family="sans-serif" font-size="14" lengthAdjust="spacing" textLength="29" x="60.5" y="167.6318">prev</text><line style="stroke:#181818;stroke-width:1.0;" x1="51.5" x2="102.5" y1="175.6638" y2="175.6638"/><text fill="#000000" font-family="sans-serif" font-size="14" lengthAdjust="spacing" textLength="29" x="60.5" y="195.9038">next</text><line style="stroke:#181818;stroke-width:1.0;" x1="51.5" x2="102.5" y1="203.9357" y2="203.9357"/><text fill="#000000" font-family="sans-serif" font-size="14" lengthAdjust="spacing" textLength="30" x="60.5" y="224.1757">data</text></g><!--entity current1--><g id="elem_current1"><rect fill="#F1F1F1" height="111.0876" rx="2.5" ry="2.5" style="stroke:#181818;stroke-width:0.5;" width="50" x="139" y="124.12"/><text fill="#000000" font-family="sans-serif" font-size="14" font-weight="bold" lengthAdjust="spacing" textLength="14" x="149" y="143.3599">at</text><line style="stroke:#181818;stroke-width:1.0;" x1="140" x2="188" y1="147.3919" y2="147.3919"/><line style="stroke:#181818;stroke-width:1.0;" x1="140" x2="188" y1="149.3919" y2="149.3919"/><text fill="#000000" font-family="sans-serif" font-size="14" lengthAdjust="spacing" textLength="29" x="149" y="167.6318">prev</text><line style="stroke:#181818;stroke-width:1.0;" x1="140" x2="188" y1="175.6638" y2="175.6638"/><text fill="#000000" font-family="sans-serif" font-size="14" lengthAdjust="spacing" textLength="29" x="149" y="195.9038">next</text><line style="stroke:#181818;stroke-width:1.0;" x1="140" x2="188" y1="203.9357" y2="203.9357"/><text fill="#000000" font-family="sans-serif" font-size="14" lengthAdjust="spacing" textLength="30" x="149" y="224.1757">data</text></g><!--entity next1--><g id="elem_next1"><rect fill="#F1F1F1" height="111.0876" rx="2.5" ry="2.5" style="stroke:#181818;stroke-width:0.5;" width="56" x="224" y="124.12"/><text fill="#000000" font-family="sans-serif" font-size="14" font-weight="bold" lengthAdjust="spacing" textLength="36" x="234" y="143.3599">at + 1</text><line style="stroke:#181818;stroke-width:1.0;" x1="225" x2="279" y1="147.3919" y2="147.3919"/><line style="stroke:#181818;stroke-width:1.0;" x1="225" x2="279" y1="149.3919" y2="149.3919"/><text fill="#000000" font-family="sans-serif" font-size="14" lengthAdjust="spacing" textLength="29" x="234" y="167.6318">prev</text><line style="stroke:#181818;stroke-width:1.0;" x1="225" x2="279" y1="175.6638" y2="175.6638"/><text fill="#000000" font-family="sans-serif" font-size="14" lengthAdjust="spacing" textLength="29" x="234" y="195.9038">next</text><line style="stroke:#181818;stroke-width:1.0;" x1="225" x2="279" y1="203.9357" y2="203.9357"/><text fill="#000000" font-family="sans-serif" font-size="14" lengthAdjust="spacing" textLength="30" x="234" y="224.1757">data</text></g><!--entity new1--><g id="elem_new1"><rect fill="#98FB98" height="111.0876" rx="2.5" ry="2.5" style="stroke:#181818;stroke-width:0.5;" width="50" x="139" y="295.12"/><text fill="#000000" font-family="sans-serif" font-size="14" font-weight="bold" lengthAdjust="spacing" textLength="30" x="149" y="314.3599">New</text><line style="stroke:#181818;stroke-width:1.0;" x1="140" x2="188" y1="318.3919" y2="318.3919"/><line style="stroke:#181818;stroke-width:1.0;" x1="140" x2="188" y1="320.3919" y2="320.3919"/><text fill="#000000" font-family="sans-serif" font-size="14" lengthAdjust="spacing" textLength="29" x="149" y="338.6318">prev</text><line style="stroke:#181818;stroke-width:1.0;" x1="140" x2="188" y1="346.6638" y2="346.6638"/><text fill="#000000" font-family="sans-serif" font-size="14" lengthAdjust="spacing" textLength="29" x="149" y="366.9038">next</text><line style="stroke:#181818;stroke-width:1.0;" x1="140" x2="188" y1="374.9357" y2="374.9357"/><text fill="#000000" font-family="sans-serif" font-size="14" lengthAdjust="spacing" textLength="30" x="149" y="395.1757">data</text></g><!--entity prev2--><g id="elem_prev2"><rect fill="#F1F1F1" height="111.0876" rx="2.5" ry="2.5" style="stroke:#181818;stroke-width:0.5;" width="53" x="387.5" y="124.12"/><text fill="#000000" font-family="sans-serif" font-size="14" font-weight="bold" lengthAdjust="spacing" textLength="33" x="397.5" y="143.3599">at - 1</text><line style="stroke:#181818;stroke-width:1.0;" x1="388.5" x2="439.5" y1="147.3919" y2="147.3919"/><line style="stroke:#181818;stroke-width:1.0;" x1="388.5" x2="439.5" y1="149.3919" y2="149.3919"/><text fill="#000000" font-family="sans-serif" font-size="14" lengthAdjust="spacing" textLength="29" x="397.5" y="167.6318">prev</text><line style="stroke:#181818;stroke-width:1.0;" x1="388.5" x2="439.5" y1="175.6638" y2="175.6638"/><text fill="#000000" font-family="sans-serif" font-size="14" lengthAdjust="spacing" textLength="29" x="397.5" y="195.9038">next</text><line style="stroke:#181818;stroke-width:1.0;" x1="388.5" x2="439.5" y1="203.9357" y2="203.9357"/><text fill="#000000" font-family="sans-serif" font-size="14" lengthAdjust="spacing" textLength="30" x="397.5" y="224.1757">data</text></g><!--entity current2--><g id="elem_current2"><rect fill="#F1F1F1" height="111.0876" rx="2.5" ry="2.5" style="stroke:#181818;stroke-width:0.5;" width="50" x="476" y="124.12"/><text fill="#000000" font-family="sans-serif" font-size="14" font-weight="bold" lengthAdjust="spacing" textLength="14" x="486" y="143.3599">at</text><line style="stroke:#181818;stroke-width:1.0;" x1="477" x2="525" y1="147.3919" y2="147.3919"/><line style="stroke:#181818;stroke-width:1.0;" x1="477" x2="525" y1="149.3919" y2="149.3919"/><text fill="#000000" font-family="sans-serif" font-size="14" lengthAdjust="spacing" textLength="29" x="486" y="167.6318">prev</text><line style="stroke:#181818;stroke-width:1.0;" x1="477" x2="525" y1="175.6638" y2="175.6638"/><text fill="#000000" font-family="sans-serif" font-size="14" lengthAdjust="spacing" textLength="29" x="486" y="195.9038">next</text><line style="stroke:#181818;stroke-width:1.0;" x1="477" x2="525" y1="203.9357" y2="203.9357"/><text fill="#000000" font-family="sans-serif" font-size="14" lengthAdjust="spacing" textLength="30" x="486" y="224.1757">data</text></g><!--entity next2--><g id="elem_next2"><rect fill="#F1F1F1" height="111.0876" rx="2.5" ry="2.5" style="stroke:#181818;stroke-width:0.5;" width="56" x="561" y="124.12"/><text fill="#000000" font-family="sans-serif" font-size="14" font-weight="bold" lengthAdjust="spacing" textLength="36" x="571" y="143.3599">at + 1</text><line style="stroke:#181818;stroke-width:1.0;" x1="562" x2="616" y1="147.3919" y2="147.3919"/><line style="stroke:#181818;stroke-width:1.0;" x1="562" x2="616" y1="149.3919" y2="149.3919"/><text fill="#000000" font-family="sans-serif" font-size="14" lengthAdjust="spacing" textLength="29" x="571" y="167.6318">prev</text><line style="stroke:#181818;stroke-width:1.0;" x1="562" x2="616" y1="175.6638" y2="175.6638"/><text fill="#000000" font-family="sans-serif" font-size="14" lengthAdjust="spacing" textLength="29" x="571" y="195.9038">next</text><line style="stroke:#181818;stroke-width:1.0;" x1="562" x2="616" y1="203.9357" y2="203.9357"/><text fill="#000000" font-family="sans-serif" font-size="14" lengthAdjust="spacing" textLength="30" x="571" y="224.1757">data</text></g><!--entity new2--><g id="elem_new2"><rect fill="#98FB98" height="111.0876" rx="2.5" ry="2.5" style="stroke:#181818;stroke-width:0.5;" width="50" x="476" y="295.12"/><text fill="#000000" font-family="sans-serif" font-size="14" font-weight="bold" lengthAdjust="spacing" textLength="30" x="486" y="314.3599">New</text><line style="stroke:#181818;stroke-width:1.0;" x1="477" x2="525" y1="318.3919" y2="318.3919"/><line style="stroke:#181818;stroke-width:1.0;" x1="477" x2="525" y1="320.3919" y2="320.3919"/><text fill="#000000" font-family="sans-serif" font-size="14" lengthAdjust="spacing" textLength="29" x="486" y="338.6318">prev</text><line style="stroke:#181818;stroke-width:1.0;" x1="477" x2="525" y1="346.6638" y2="346.6638"/><text fill="#000000" font-family="sans-serif" font-size="14" lengthAdjust="spacing" textLength="29" x="486" y="366.9038">next</text><line style="stroke:#181818;stroke-width:1.0;" x1="477" x2="525" y1="374.9357" y2="374.9357"/><text fill="#000000" font-family="sans-serif" font-size="14" lengthAdjust="spacing" textLength="30" x="486" y="395.1757">data</text></g><!--entity prev3--><g id="elem_prev3"><rect fill="#F1F1F1" height="111.0876" rx="2.5" ry="2.5" style="stroke:#181818;stroke-width:0.5;" width="53" x="724.5" y="124.12"/><text fill="#000000" font-family="sans-serif" font-size="14" font-weight="bold" lengthAdjust="spacing" textLength="33" x="734.5" y="143.3599">at - 1</text><line style="stroke:#181818;stroke-width:1.0;" x1="725.5" x2="776.5" y1="147.3919" y2="147.3919"/><line style="stroke:#181818;stroke-width:1.0;" x1="725.5" x2="776.5" y1="149.3919" y2="149.3919"/><text fill="#000000" font-family="sans-serif" font-size="14" lengthAdjust="spacing" textLength="29" x="734.5" y="167.6318">prev</text><line style="stroke:#181818;stroke-width:1.0;" x1="725.5" x2="776.5" y1="175.6638" y2="175.6638"/><text fill="#000000" font-family="sans-serif" font-size="14" lengthAdjust="spacing" textLength="29" x="734.5" y="195.9038">next</text><line style="stroke:#181818;stroke-width:1.0;" x1="725.5" x2="776.5" y1="203.9357" y2="203.9357"/><text fill="#000000" font-family="sans-serif" font-size="14" lengthAdjust="spacing" textLength="30" x="734.5" y="224.1757">data</text></g><!--entity current3--><g id="elem_current3"><rect fill="#F1F1F1" height="111.0876" rx="2.5" ry="2.5" style="stroke:#181818;stroke-width:0.5;" width="50" x="813" y="124.12"/><text fill="#000000" font-family="sans-serif" font-size="14" font-weight="bold" lengthAdjust="spacing" textLength="14" x="823" y="143.3599">at</text><line style="stroke:#181818;stroke-width:1.0;" x1="814" x2="862" y1="147.3919" y2="147.3919"/><line style="stroke:#181818;stroke-width:1.0;" x1="814" x2="862" y1="149.3919" y2="149.3919"/><text fill="#000000" font-family="sans-serif" font-size="14" lengthAdjust="spacing" textLength="29" x="823" y="167.6318">prev</text><line style="stroke:#181818;stroke-width:1.0;" x1="814" x2="862" y1="175.6638" y2="175.6638"/><text fill="#000000" font-family="sans-serif" font-size="14" lengthAdjust="spacing" textLength="29" x="823" y="195.9038">next</text><line style="stroke:#181818;stroke-width:1.0;" x1="814" x2="862" y1="203.9357" y2="203.9357"/><text fill="#000000" font-family="sans-serif" font-size="14" lengthAdjust="spacing" textLength="30" x="823" y="224.1757">data</text></g><!--entity next3--><g id="elem_next3"><rect fill="#F1F1F1" height="111.0876" rx="2.5" ry="2.5" style="stroke:#181818;stroke-width:0.5;" width="56" x="898" y="124.12"/><text fill="#000000" font-family="sans-serif" font-size="14" font-weight="bold" lengthAdjust="spacing" textLength="36" x="908" y="143.3599">at + 1</text><line style="stroke:#181818;stroke-width:1.0;" x1="899" x2="953" y1="147.3919" y2="147.3919"/><line style="stroke:#181818;stroke-width:1.0;" x1="899" x2="953" y1="149.3919" y2="149.3919"/><text fill="#000000" font-family="sans-serif" font-size="14" lengthAdjust="spacing" textLength="29" x="908" y="167.6318">prev</text><line style="stroke:#181818;stroke-width:1.0;" x1="899" x2="953" y1="175.6638" y2="175.6638"/><text fill="#000000" font-family="sans-serif" font-size="14" lengthAdjust="spacing" textLength="29" x="908" y="195.9038">next</text><line style="stroke:#181818;stroke-width:1.0;" x1="899" x2="953" y1="203.9357" y2="203.9357"/><text fill="#000000" font-family="sans-serif" font-size="14" lengthAdjust="spacing" textLength="30" x="908" y="224.1757">data</text></g><!--entity new3--><g id="elem_new3"><rect fill="#98FB98" height="111.0876" rx="2.5" ry="2.5" style="stroke:#181818;stroke-width:0.5;" width="50" x="813" y="295.12"/><text fill="#000000" font-family="sans-serif" font-size="14" font-weight="bold" lengthAdjust="spacing" textLength="30" x="823" y="314.3599">New</text><line style="stroke:#181818;stroke-width:1.0;" x1="814" x2="862" y1="318.3919" y2="318.3919"/><line style="stroke:#181818;stroke-width:1.0;" x1="814" x2="862" y1="320.3919" y2="320.3919"/><text fill="#000000" font-family="sans-serif" font-size="14" lengthAdjust="spacing" textLength="29" x="823" y="338.6318">prev</text><line style="stroke:#181818;stroke-width:1.0;" x1="814" x2="862" y1="346.6638" y2="346.6638"/><text fill="#000000" font-family="sans-serif" font-size="14" lengthAdjust="spacing" textLength="29" x="823" y="366.9038">next</text><line style="stroke:#181818;stroke-width:1.0;" x1="814" x2="862" y1="374.9357" y2="374.9357"/><text fill="#000000" font-family="sans-serif" font-size="14" lengthAdjust="spacing" textLength="30" x="823" y="395.1757">data</text></g><!--entity prev4--><g id="elem_prev4"><rect fill="#F1F1F1" height="111.0876" rx="2.5" ry="2.5" style="stroke:#181818;stroke-width:0.5;" width="53" x="1061.5" y="124.12"/><text fill="#000000" font-family="sans-serif" font-size="14" font-weight="bold" lengthAdjust="spacing" textLength="33" x="1071.5" y="143.3599">at - 1</text><line style="stroke:#181818;stroke-width:1.0;" x1="1062.5" x2="1113.5" y1="147.3919" y2="147.3919"/><line style="stroke:#181818;stroke-width:1.0;" x1="1062.5" x2="1113.5" y1="149.3919" y2="149.3919"/><text fill="#000000" font-family="sans-serif" font-size="14" lengthAdjust="spacing" textLength="29" x="1071.5" y="167.6318">prev</text><line style="stroke:#181818;stroke-width:1.0;" x1="1062.5" x2="1113.5" y1="175.6638" y2="175.6638"/><text fill="#000000" font-family="sans-serif" font-size="14" lengthAdjust="spacing" textLength="29" x="1071.5" y="195.9038">next</text><line style="stroke:#181818;stroke-width:1.0;" x1="1062.5" x2="1113.5" y1="203.9357" y2="203.9357"/><text fill="#000000" font-family="sans-serif" font-size="14" lengthAdjust="spacing" textLength="30" x="1071.5" y="224.1757">data</text></g><!--entity current4--><g id="elem_current4"><rect fill="#F1F1F1" height="111.0876" rx="2.5" ry="2.5" style="stroke:#181818;stroke-width:0.5;" width="50" x="1150" y="124.12"/><text fill="#000000" font-family="sans-serif" font-size="14" font-weight="bold" lengthAdjust="spacing" textLength="14" x="1160" y="143.3599">at</text><line style="stroke:#181818;stroke-width:1.0;" x1="1151" x2="1199" y1="147.3919" y2="147.3919"/><line style="stroke:#181818;stroke-width:1.0;" x1="1151" x2="1199" y1="149.3919" y2="149.3919"/><text fill="#000000" font-family="sans-serif" font-size="14" lengthAdjust="spacing" textLength="29" x="1160" y="167.6318">prev</text><line style="stroke:#181818;stroke-width:1.0;" x1="1151" x2="1199" y1="175.6638" y2="175.6638"/><text fill="#000000" font-family="sans-serif" font-size="14" lengthAdjust="spacing" textLength="29" x="1160" y="195.9038">next</text><line style="stroke:#181818;stroke-width:1.0;" x1="1151" x2="1199" y1="203.9357" y2="203.9357"/><text fill="#000000" font-family="sans-serif" font-size="14" lengthAdjust="spacing" textLength="30" x="1160" y="224.1757">data</text></g><!--entity next4--><g id="elem_next4"><rect fill="#F1F1F1" height="111.0876" rx="2.5" ry="2.5" style="stroke:#181818;stroke-width:0.5;" width="56" x="1235" y="124.12"/><text fill="#000000" font-family="sans-serif" font-size="14" font-weight="bold" lengthAdjust="spacing" textLength="36" x="1245" y="143.3599">at + 1</text><line style="stroke:#181818;stroke-width:1.0;" x1="1236" x2="1290" y1="147.3919" y2="147.3919"/><line style="stroke:#181818;stroke-width:1.0;" x1="1236" x2="1290" y1="149.3919" y2="149.3919"/><text fill="#000000" font-family="sans-serif" font-size="14" lengthAdjust="spacing" textLength="29" x="1245" y="167.6318">prev</text><line style="stroke:#181818;stroke-width:1.0;" x1="1236" x2="1290" y1="175.6638" y2="175.6638"/><text fill="#000000" font-family="sans-serif" font-size="14" lengthAdjust="spacing" textLength="29" x="1245" y="195.9038">next</text><line style="stroke:#181818;stroke-width:1.0;" x1="1236" x2="1290" y1="203.9357" y2="203.9357"/><text fill="#000000" font-family="sans-serif" font-size="14" lengthAdjust="spacing" textLength="30" x="1245" y="224.1757">data</text></g><!--entity new4--><g id="elem_new4"><rect fill="#98FB98" height="111.0876" rx="2.5" ry="2.5" style="stroke:#181818;stroke-width:0.5;" width="50" x="1150" y="295.12"/><text fill="#000000" font-family="sans-serif" font-size="14" font-weight="bold" lengthAdjust="spacing" textLength="30" x="1160" y="314.3599">New</text><line style="stroke:#181818;stroke-width:1.0;" x1="1151" x2="1199" y1="318.3919" y2="318.3919"/><line style="stroke:#181818;stroke-width:1.0;" x1="1151" x2="1199" y1="320.3919" y2="320.3919"/><text fill="#000000" font-family="sans-serif" font-size="14" lengthAdjust="spacing" textLength="29" x="1160" y="338.6318">prev</text><line style="stroke:#181818;stroke-width:1.0;" x1="1151" x2="1199" y1="346.6638" y2="346.6638"/><text fill="#000000" font-family="sans-serif" font-size="14" lengthAdjust="spacing" textLength="29" x="1160" y="366.9038">next</text><line style="stroke:#181818;stroke-width:1.0;" x1="1151" x2="1199" y1="374.9357" y2="374.9357"/><text fill="#000000" font-family="sans-serif" font-size="14" lengthAdjust="spacing" textLength="30" x="1160" y="395.1757">data</text></g><!--link prev1 to current1--><g id="link_prev1_current1"><path codeLine="39" d="M109.51,179.62 C121.32,179.62 121.14,179.62 132.95,179.62 " fill="none" id="prev1-current1" style="stroke:#181818;stroke-width:1.0;"/><polygon fill="#181818" points="103.51,179.62,112.51,183.62,108.51,179.62,112.51,175.62,103.51,179.62" style="stroke:#181818;stroke-width:1.0;"/><polygon fill="#181818" points="138.95,179.62,129.95,175.62,133.95,179.62,129.95,183.62,138.95,179.62" style="stroke:#181818;stroke-width:1.0;"/></g><!--link current1 to next1--><g id="link_current1_next1"><path codeLine="40" d="M195.09,179.62 C206.72,179.62 206.36,179.62 217.99,179.62 " fill="none" id="current1-next1" style="stroke:#181818;stroke-width:1.0;"/><polygon fill="#181818" points="189.09,179.62,198.09,183.62,194.09,179.62,198.09,175.62,189.09,179.62" style="stroke:#181818;stroke-width:1.0;"/><polygon fill="#181818" points="223.99,179.62,214.99,175.62,218.99,179.62,214.99,183.62,223.99,179.62" style="stroke:#181818;stroke-width:1.0;"/></g><!--link current1 to new1--><g id="link_current1_new1"><path codeLine="41" d="M164,235.49 C164,254.57 164,275.96 164,295.03 " fill="none" id="current1-new1" style="stroke:#FFFFFF;stroke-width:1.0;"/></g><!--link prev2 to current2--><g id="link_prev2_current2"><path codeLine="81" d="M446.51,179.62 C458.32,179.62 458.14,179.62 469.95,179.62 " fill="none" id="prev2-current2" style="stroke:#181818;stroke-width:1.0;"/><polygon fill="#181818" points="440.51,179.62,449.51,183.62,445.51,179.62,449.51,175.62,440.51,179.62" style="stroke:#181818;stroke-width:1.0;"/><polygon fill="#181818" points="475.95,179.62,466.95,175.62,470.95,179.62,466.95,183.62,475.95,179.62" style="stroke:#181818;stroke-width:1.0;"/></g><!--link current2 to next2--><g id="link_current2_next2"><path codeLine="82" d="M532.09,179.62 C543.72,179.62 543.36,179.62 554.99,179.62 " fill="none" id="current2-next2" style="stroke:#181818;stroke-width:1.0;"/><polygon fill="#181818" points="526.09,179.62,535.09,183.62,531.09,179.62,535.09,175.62,526.09,179.62" style="stroke:#181818;stroke-width:1.0;"/><polygon fill="#181818" points="560.99,179.62,551.99,175.62,555.99,179.62,551.99,183.62,560.99,179.62" style="stroke:#181818;stroke-width:1.0;"/></g><!--link current2 to new2--><g id="link_current2_new2"><path codeLine="83" d="M488.97,235.49 C488,254.57 488.01,275.96 488.99,295.03 " fill="none" id="current2-new2" style="stroke:#FFFFFF;stroke-width:1.0;"/></g><!--reverse link current2 to new2--><g id="link_current2_new2"><path codeLine="85" d="M514.0534,241.4813 C515.0834,260.5613 514.76,275.96 513.72,295.03 " fill="none" id="current2-backto-new2" style="stroke:#008000;stroke-width:2.0;"/><polygon fill="#008000" points="513.73,235.49,510.221,244.6925,513.9995,240.4827,518.2093,244.2613,513.73,235.49" style="stroke:#008000;stroke-width:2.0;"/></g><!--reverse link next2 to new2--><g id="link_next2_new2"><path codeLine="84" d="M558.1397,239.8822 C546.9797,261.3222 537,280.48 526.14,301.33 " fill="none" id="next2-backto-new2" style="stroke:#008000;stroke-width:2.0;"/><polygon fill="#008000" points="560.91,234.56,553.2064,240.6964,558.6014,238.9951,560.3027,244.3901,560.91,234.56" style="stroke:#008000;stroke-width:2.0;"/></g><!--link prev3 to current3--><g id="link_prev3_current3"><path codeLine="125" d="M783.51,179.62 C795.32,179.62 795.14,179.62 806.95,179.62 " fill="none" id="prev3-current3" style="stroke:#181818;stroke-width:1.0;"/><polygon fill="#181818" points="777.51,179.62,786.51,183.62,782.51,179.62,786.51,175.62,777.51,179.62" style="stroke:#181818;stroke-width:1.0;"/><polygon fill="#181818" points="812.95,179.62,803.95,175.62,807.95,179.62,803.95,183.62,812.95,179.62" style="stroke:#181818;stroke-width:1.0;"/></g><!--link current3 to next3--><g id="link_current3_next3"><path codeLine="126" d="M863.09,179.62 C874.72,179.62 880.36,179.62 891.99,179.62 " fill="none" id="current3-to-next3" style="stroke:#181818;stroke-width:1.0;"/><polygon fill="#181818" points="897.99,179.62,888.99,175.62,892.99,179.62,888.99,183.62,897.99,179.62" style="stroke:#181818;stroke-width:1.0;"/></g><!--link current3 to new3--><g id="link_current3_new3"><path codeLine="127" d="M825.97,235.49 C825,254.57 825.01,275.96 825.99,295.03 " fill="none" id="current3-new3" style="stroke:#FFFFFF;stroke-width:1.0;"/></g><!--reverse link current3 to new3--><g id="link_current3_new3"><path codeLine="129" d="M851.0534,241.4813 C852.0834,260.5613 851.76,275.96 850.72,295.03 " fill="none" id="current3-backto-new3" style="stroke:#008000;stroke-width:2.0;"/><polygon fill="#008000" points="850.73,235.49,847.221,244.6925,850.9995,240.4827,855.2093,244.2613,850.73,235.49" style="stroke:#008000;stroke-width:2.0;"/></g><!--link next3 to new3--><g id="link_next3_new3"><path codeLine="128" d="M895.1397,239.8822 C883.9797,261.3222 876.7717,275.1586 865.9117,296.0086 " fill="none" id="next3-new3" style="stroke:#008000;stroke-width:2.0;"/><polygon fill="#008000" points="897.91,234.56,890.2064,240.6964,895.6014,238.9951,897.3027,244.3901,897.91,234.56" style="stroke:#008000;stroke-width:2.0;"/><polygon fill="#008000" points="863.14,301.33,870.8452,295.1957,865.4498,296.8955,863.75,291.5,863.14,301.33" style="stroke:#008000;stroke-width:2.0;"/></g><!--link prev4 to current4--><g id="link_prev4_current4"><path codeLine="169" d="M1120.51,179.62 C1132.32,179.62 1132.14,179.62 1143.95,179.62 " fill="none" id="prev4-current4" style="stroke:#181818;stroke-width:1.0;"/><polygon fill="#181818" points="1114.51,179.62,1123.51,183.62,1119.51,179.62,1123.51,175.62,1114.51,179.62" style="stroke:#181818;stroke-width:1.0;"/><polygon fill="#181818" points="1149.95,179.62,1140.95,175.62,1144.95,179.62,1140.95,183.62,1149.95,179.62" style="stroke:#181818;stroke-width:1.0;"/></g><!--link current4 to next4--><g id="link_current4_next4"><path codeLine="170" d="M1200.09,179.62 C1211.72,179.62 1223.36,179.62 1234.99,179.62 " fill="none" id="current4-next4" style="stroke:#FFFFFF;stroke-width:1.0;"/></g><!--link current4 to new4--><g id="link_current4_new4"><path codeLine="171" d="M1162.97,235.49 C1162,254.57 1162.01,275.96 1162.99,295.03 " fill="none" id="current4-new4" style="stroke:#FFFFFF;stroke-width:1.0;"/></g><!--link current4 to new4--><g id="link_current4_new4"><path codeLine="173" d="M1188.0534,241.4813 C1189.0834,260.5613 1189.0867,269.9689 1188.0467,289.0389 " fill="none" id="current4-new4-1" style="stroke:#008000;stroke-width:2.0;"/><polygon fill="#008000" points="1187.73,235.49,1184.221,244.6925,1187.9995,240.4827,1192.2093,244.2613,1187.73,235.49" style="stroke:#008000;stroke-width:2.0;"/><polygon fill="#008000" points="1187.72,295.03,1192.2042,286.2612,1187.9923,290.0374,1184.216,285.8255,1187.72,295.03" style="stroke:#008000;stroke-width:2.0;"/></g><!--link next4 to new4--><g id="link_next4_new4"><path codeLine="172" d="M1232.1397,239.8822 C1220.9797,261.3222 1213.7717,275.1586 1202.9117,296.0086 " fill="none" id="next4-new4" style="stroke:#008000;stroke-width:2.0;"/><polygon fill="#008000" points="1234.91,234.56,1227.2064,240.6964,1232.6014,238.9951,1234.3027,244.3901,1234.91,234.56" style="stroke:#008000;stroke-width:2.0;"/><polygon fill="#008000" points="1200.14,301.33,1207.8452,295.1957,1202.4498,296.8955,1200.75,291.5,1200.14,301.33" style="stroke:#008000;stroke-width:2.0;"/></g><!--link first to second--><g id="link_first_second"><path codeLine="176" d="M17.9755,76.9844 C18.0501,76.7444 18.1254,76.5047 18.2015,76.2653 C18.3536,75.7865 18.5086,75.3091 18.6664,74.8331 C18.982,73.881 19.3092,72.9346 19.6483,71.9946 C20.3265,70.1144 21.0521,68.2594 21.828,66.4348 C28.035,51.8381 37.4575,39.185 51.5,31.12 C95.24,6 234.76,6 278.5,31.12 C308.93,48.6 327.05,83.145 337.6813,114.52 C339.0102,118.4419 340.2221,122.3142 341.3264,126.0975 C341.8785,127.9892 342.4038,129.8585 342.9033,131.7007 C343.153,132.6218 343.3964,133.5361 343.6334,134.443 C343.752,134.8964 343.8689,135.348 343.9843,135.7976 " fill="none" id="first-second" style="stroke:#FFFFFF;stroke-width:1.0;"/></g><!--link third to fourth--><g id="link_third_fourth"><path codeLine="177" d="M691.9755,76.9844 C692.0501,76.7444 692.1254,76.5047 692.2015,76.2653 C692.3536,75.7865 692.5086,75.3091 692.6664,74.8331 C692.982,73.881 693.3092,72.9346 693.6483,71.9946 C694.3265,70.1144 695.0521,68.2594 695.828,66.4348 C702.035,51.8381 711.4575,39.185 725.5,31.12 C769.24,6 908.76,6 952.5,31.12 C982.93,48.6 1001.05,83.145 1011.6813,114.52 C1013.0102,118.4419 1014.2221,122.3142 1015.3264,126.0975 C1015.8785,127.9892 1016.4038,129.8585 1016.9033,131.7007 C1017.153,132.6218 1017.3964,133.5361 1017.6334,134.443 C1017.752,134.8964 1017.8689,135.348 1017.9843,135.7976 " fill="none" id="third-fourth" style="stroke:#FFFFFF;stroke-width:1.0;"/></g><!--SRC=[nTPDReGW503WlQSWqsL34u5LQpt2NA3fWb6i9bOdYBL9qxjNVcG0pNIbi1fuRzu3vijenUad0wVq1EW0geOF0lmaO1u5vIMuSlQLWZUr84TsoQa04AHsvNKUTYBJxGJEmquwzYss8oKLL4tURssBaNFMYLNdVRlAxFLX7_S-RCUc53nSQSi-E6ETlu4pctRhhd_S37AOsnlNsrgkNyVKlVW1M4ApxxRfsFDKDu8blqbIQKr8QHfOqNTbo0b5uuIEvuIYS4BHE26V4tBL88TJ432SaCT9DvyNuRXyoyJLmLxanwTBtvP1fgswdNnJYfLIKJTyXHH7GugFHugZ8CNHa68VANOjOc2DXklQADuoAYikIF5zfDX3Ylz5IlI3kH-vg4Eb99fIShnI4aKfYQQK-4g9gv58fUPMGewt50sMR84b3bXo1wmjbitLShVSbbZrzYXtPfxyRcFzDok3nh8R_0C0]--></g></svg>