<?xml version="1.0" encoding="us-ascii" standalone="no"?><svg xmlns="http://www.w3.org/2000/svg" xmlns:xlink="http://www.w3.org/1999/xlink" contentStyleType="text/css" height="73px" preserveAspectRatio="none" style="width:394px;height:73px;background:#FFFFFF;" version="1.1" viewBox="0 0 394 73" width="394px" zoomAndPan="magnify"><defs/><g><!--entity Browser--><g id="elem_Browser"><ellipse cx="32.5" cy="32" fill="#F1F1F1" rx="8" ry="8" style="stroke:#181818;stroke-width:0.5;"/><text fill="#000000" font-family="sans-serif" font-size="14" lengthAdjust="spacing" textLength="53" x="6" y="65.2399">Browser</text></g><!--entity Edge--><g id="elem_Edge"><rect fill="#F1F1F1" height="50.2719" rx="2.5" ry="2.5" style="stroke:#181818;stroke-width:0.5;" width="73" x="77" y="7"/><rect fill="#F1F1F1" height="10" style="stroke:#181818;stroke-width:0.5;" width="15" x="130" y="12"/><rect fill="#F1F1F1" height="2" style="stroke:#181818;stroke-width:0.5;" width="4" x="128" y="14"/><rect fill="#F1F1F1" height="2" style="stroke:#181818;stroke-width:0.5;" width="4" x="128" y="18"/><text fill="#000000" font-family="sans-serif" font-size="14" lengthAdjust="spacing" textLength="33" x="92" y="43.2399">Edge</text></g><!--entity Central--><g id="elem_Central"><rect fill="#F1F1F1" height="50.2719" rx="2.5" ry="2.5" style="stroke:#181818;stroke-width:0.5;" width="88" x="185.5" y="7"/><rect fill="#F1F1F1" height="10" style="stroke:#181818;stroke-width:0.5;" width="15" x="253.5" y="12"/><rect fill="#F1F1F1" height="2" style="stroke:#181818;stroke-width:0.5;" width="4" x="251.5" y="14"/><rect fill="#F1F1F1" height="2" style="stroke:#181818;stroke-width:0.5;" width="4" x="251.5" y="18"/><text fill="#000000" font-family="sans-serif" font-size="14" lengthAdjust="spacing" textLength="48" x="200.5" y="43.2399">Central</text></g><!--entity Origin--><g id="elem_Origin"><rect fill="#F1F1F1" height="50.2719" rx="2.5" ry="2.5" style="stroke:#181818;stroke-width:0.5;" width="80" x="308.5" y="7"/><rect fill="#F1F1F1" height="10" style="stroke:#181818;stroke-width:0.5;" width="15" x="368.5" y="12"/><rect fill="#F1F1F1" height="2" style="stroke:#181818;stroke-width:0.5;" width="4" x="366.5" y="14"/><rect fill="#F1F1F1" height="2" style="stroke:#181818;stroke-width:0.5;" width="4" x="366.5" y="18"/><text fill="#000000" font-family="sans-serif" font-size="14" lengthAdjust="spacing" textLength="40" x="323.5" y="43.2399">Origin</text></g><!--link Browser to Edge--><g id="link_Browser_Edge"><path d="M41.68,32 C53.37,32 59.06,32 70.75,32 " fill="none" id="Browser-to-Edge" style="stroke:#181818;stroke-width:1.0;"/><polygon fill="#181818" points="76.75,32,67.75,28,71.75,32,67.75,36,76.75,32" style="stroke:#181818;stroke-width:1.0;"/></g><!--link Edge to Central--><g id="link_Edge_Central"><path d="M150.2,32 C161.87,32 167.54,32 179.21,32 " fill="none" id="Edge-to-Central" style="stroke:#181818;stroke-width:1.0;"/><polygon fill="#181818" points="185.21,32,176.21,28,180.21,32,176.21,36,185.21,32" style="stroke:#181818;stroke-width:1.0;"/></g><!--link Central to Origin--><g id="link_Central_Origin"><path d="M273.66,32 C285.26,32 290.85,32 302.45,32 " fill="none" id="Central-to-Origin" style="stroke:#181818;stroke-width:1.0;"/><polygon fill="#181818" points="308.45,32,299.45,28,303.45,32,299.45,36,308.45,32" style="stroke:#181818;stroke-width:1.0;"/></g><!--SRC=[AyxEp2j8B4hCLKZEpot8pqlDAmakgSn9LIZDpJ7YSYhABozEBLBGBSfCpoZHjLE8Tar9JutbWb18miv0VKM9EK0P60j9qX_8oioBvG80]--></g></svg>