<?xml version="1.0" encoding="us-ascii" standalone="no"?><svg xmlns="http://www.w3.org/2000/svg" xmlns:xlink="http://www.w3.org/1999/xlink" contentStyleType="text/css" height="230px" preserveAspectRatio="none" style="width:281px;height:230px;background:#FFFFFF;" version="1.1" viewBox="0 0 281 230" width="281px" zoomAndPan="magnify"><defs/><g><line style="stroke:#181818;stroke-width:0.5;stroke-dasharray:5.0,5.0;" x1="28" x2="28" y1="40.2719" y2="191.568"/><line style="stroke:#181818;stroke-width:0.5;stroke-dasharray:5.0,5.0;" x1="255" x2="255" y1="40.2719" y2="191.568"/><rect fill="#E2E2F0" height="34.2719" rx="2.5" ry="2.5" style="stroke:#181818;stroke-width:0.5;" width="46" x="5" y="5"/><text fill="#000000" font-family="sans-serif" font-size="14" lengthAdjust="spacing" textLength="32" x="12" y="28.2399">Alice</text><rect fill="#E2E2F0" height="34.2719" rx="2.5" ry="2.5" style="stroke:#181818;stroke-width:0.5;" width="46" x="5" y="190.568"/><text fill="#000000" font-family="sans-serif" font-size="14" lengthAdjust="spacing" textLength="32" x="12" y="213.8079">Alice</text><rect fill="#E2E2F0" height="34.2719" rx="2.5" ry="2.5" style="stroke:#181818;stroke-width:0.5;" width="40" x="235" y="5"/><text fill="#000000" font-family="sans-serif" font-size="14" lengthAdjust="spacing" textLength="26" x="242" y="28.2399">Bob</text><rect fill="#E2E2F0" height="34.2719" rx="2.5" ry="2.5" style="stroke:#181818;stroke-width:0.5;" width="40" x="235" y="190.568"/><text fill="#000000" font-family="sans-serif" font-size="14" lengthAdjust="spacing" textLength="26" x="242" y="213.8079">Bob</text><polygon fill="#181818" points="243,71.0959,253,75.0959,243,79.0959,247,75.0959" style="stroke:#181818;stroke-width:1.0;"/><line style="stroke:#181818;stroke-width:1.0;" x1="28" x2="249" y1="75.0959" y2="75.0959"/><text fill="#000000" font-family="sans-serif" font-size="13" lengthAdjust="spacing" textLength="144" x="35" y="69.3519">Authentication Request</text><polygon fill="#181818" points="39,103.9199,29,107.9199,39,111.9199,35,107.9199" style="stroke:#181818;stroke-width:1.0;"/><line style="stroke:#181818;stroke-width:1.0;stroke-dasharray:2.0,2.0;" x1="33" x2="254" y1="107.9199" y2="107.9199"/><text fill="#000000" font-family="sans-serif" font-size="13" lengthAdjust="spacing" textLength="153" x="45" y="102.1759">Authentication Response</text><polygon fill="#181818" points="243,136.744,253,140.744,243,144.744,247,140.744" style="stroke:#181818;stroke-width:1.0;"/><line style="stroke:#181818;stroke-width:1.0;" x1="28" x2="249" y1="140.744" y2="140.744"/><text fill="#000000" font-family="sans-serif" font-size="13" lengthAdjust="spacing" textLength="195" x="35" y="135">Another authentication Request</text><polygon fill="#181818" points="39,169.568,29,173.568,39,177.568,35,173.568" style="stroke:#181818;stroke-width:1.0;"/><line style="stroke:#181818;stroke-width:1.0;stroke-dasharray:2.0,2.0;" x1="33" x2="254" y1="173.568" y2="173.568"/><text fill="#000000" font-family="sans-serif" font-size="13" lengthAdjust="spacing" textLength="203" x="45" y="167.824">another authentication Response</text><!--SRC=[Syp9J4vLqBLJSCfFib9mB2t9ICqhoKnEBCdCprC8IYqiJIqkuGBAAUW2rJY256DHLLoGdrUSoiNbY6fONZvGNP528dP38OfjT7KXgXDngOOQ3W00]--></g></svg>