<?xml version="1.0" encoding="us-ascii" standalone="no"?><svg xmlns="http://www.w3.org/2000/svg" xmlns:xlink="http://www.w3.org/1999/xlink" contentStyleType="text/css" height="338.5301px" preserveAspectRatio="none" style="width:800px;height:338px;background:#FFFFFF;" version="1.1" viewBox="0 0 800 338" width="800.8909px" zoomAndPan="magnify"><defs/><g><!--cluster first--><g id="cluster_first"><rect fill="none" height="137.1938" rx="2.2272" ry="2.2272" style="stroke:#181818;stroke-width:0.89086859688196;" width="264.588" x="6.2361" y="68.7038"/><path d="M22.2717,68.7038 L22.2717,80.5273 L13.363,89.436 L6.2361,89.436 " fill="none" style="stroke:#181818;stroke-width:0.89086859688196;"/><text fill="#000000" font-family="sans-serif" font-size="12.4722" font-weight="bold" lengthAdjust="spacing" textLength="7.1269" x="8.9087" y="84.0623">1</text></g><!--cluster second--><g id="cluster_second"><rect fill="none" height="137.1938" rx="2.2272" ry="2.2272" style="stroke:#181818;stroke-width:0.89086859688196;" width="264.588" x="306.4588" y="68.7038"/><path d="M322.4944,68.7038 L322.4944,80.5273 L313.5857,89.436 L306.4588,89.436 " fill="none" style="stroke:#181818;stroke-width:0.89086859688196;"/><text fill="#000000" font-family="sans-serif" font-size="12.4722" font-weight="bold" lengthAdjust="spacing" textLength="7.1269" x="309.1314" y="84.0623">2</text></g><!--cluster third--><g id="cluster_third"><rect fill="none" height="264.588" rx="2.2272" ry="2.2272" style="stroke:#181818;stroke-width:0.89086859688196;" width="188.8641" x="606.6815" y="68.7038"/><path d="M622.7171,68.7038 L622.7171,80.5273 L613.8085,89.436 L606.6815,89.436 " fill="none" style="stroke:#181818;stroke-width:0.89086859688196;"/><text fill="#000000" font-family="sans-serif" font-size="12.4722" font-weight="bold" lengthAdjust="spacing" textLength="7.1269" x="609.3541" y="84.0623">3</text></g><!--entity prev1--><g id="elem_prev1"><rect fill="#F1F1F1" height="73.7779" rx="2.2272" ry="2.2272" style="stroke:#181818;stroke-width:0.44543429844098;" width="47.216" x="44.9889" y="110.5746"/><text fill="#000000" font-family="sans-serif" font-size="12.4722" font-weight="bold" lengthAdjust="spacing" textLength="29.3987" x="53.8976" y="127.7149">at - 1</text><line style="stroke:#181818;stroke-width:0.89086859688196;" x1="45.8797" x2="91.314" y1="131.3068" y2="131.3068"/><line style="stroke:#181818;stroke-width:0.89086859688196;" x1="45.8797" x2="91.314" y1="133.0886" y2="133.0886"/><text fill="#000000" font-family="sans-serif" font-size="12.4722" lengthAdjust="spacing" textLength="25.8352" x="53.8976" y="149.3379">next</text><line style="stroke:#181818;stroke-width:0.89086859688196;" x1="45.8797" x2="91.314" y1="156.4934" y2="156.4934"/><text fill="#000000" font-family="sans-serif" font-size="12.4722" lengthAdjust="spacing" textLength="26.7261" x="53.8976" y="174.5245">data</text></g><!--entity current1--><g id="elem_current1"><rect fill="#F1F1F1" height="73.7779" rx="2.2272" ry="2.2272" style="stroke:#181818;stroke-width:0.44543429844098;" width="44.5434" x="123.8307" y="110.5746"/><text fill="#000000" font-family="sans-serif" font-size="12.4722" font-weight="bold" lengthAdjust="spacing" textLength="12.4722" x="132.7394" y="127.7149">at</text><line style="stroke:#181818;stroke-width:0.89086859688196;" x1="124.7216" x2="167.4833" y1="131.3068" y2="131.3068"/><line style="stroke:#181818;stroke-width:0.89086859688196;" x1="124.7216" x2="167.4833" y1="133.0886" y2="133.0886"/><text fill="#000000" font-family="sans-serif" font-size="12.4722" lengthAdjust="spacing" textLength="25.8352" x="132.7394" y="149.3379">next</text><line style="stroke:#181818;stroke-width:0.89086859688196;" x1="124.7216" x2="167.4833" y1="156.4934" y2="156.4934"/><text fill="#000000" font-family="sans-serif" font-size="12.4722" lengthAdjust="spacing" textLength="26.7261" x="132.7394" y="174.5245">data</text></g><!--entity next1--><g id="elem_next1"><rect fill="#F1F1F1" height="73.7779" rx="2.2272" ry="2.2272" style="stroke:#181818;stroke-width:0.44543429844098;" width="49.8886" x="199.5546" y="110.5746"/><text fill="#000000" font-family="sans-serif" font-size="12.4722" font-weight="bold" lengthAdjust="spacing" textLength="32.0713" x="208.4633" y="127.7149">at + 1</text><line style="stroke:#181818;stroke-width:0.89086859688196;" x1="200.4454" x2="248.5523" y1="131.3068" y2="131.3068"/><line style="stroke:#181818;stroke-width:0.89086859688196;" x1="200.4454" x2="248.5523" y1="133.0886" y2="133.0886"/><text fill="#000000" font-family="sans-serif" font-size="12.4722" lengthAdjust="spacing" textLength="25.8352" x="208.4633" y="149.3379">next</text><line style="stroke:#181818;stroke-width:0.89086859688196;" x1="200.4454" x2="248.5523" y1="156.4934" y2="156.4934"/><text fill="#000000" font-family="sans-serif" font-size="12.4722" lengthAdjust="spacing" textLength="26.7261" x="208.4633" y="174.5245">data</text></g><!--entity prev2--><g id="elem_prev2"><rect fill="#F1F1F1" height="73.7779" rx="2.2272" ry="2.2272" style="stroke:#181818;stroke-width:0.44543429844098;" width="47.216" x="345.2116" y="110.5746"/><text fill="#000000" font-family="sans-serif" font-size="12.4722" font-weight="bold" lengthAdjust="spacing" textLength="29.3987" x="354.1203" y="127.7149">at - 1</text><line style="stroke:#181818;stroke-width:0.89086859688196;" x1="346.1024" x2="391.5367" y1="131.3068" y2="131.3068"/><line style="stroke:#181818;stroke-width:0.89086859688196;" x1="346.1024" x2="391.5367" y1="133.0886" y2="133.0886"/><text fill="#000000" font-family="sans-serif" font-size="12.4722" lengthAdjust="spacing" textLength="25.8352" x="354.1203" y="149.3379">next</text><line style="stroke:#181818;stroke-width:0.89086859688196;" x1="346.1024" x2="391.5367" y1="156.4934" y2="156.4934"/><text fill="#000000" font-family="sans-serif" font-size="12.4722" lengthAdjust="spacing" textLength="26.7261" x="354.1203" y="174.5245">data</text></g><!--entity current2--><g id="elem_current2"><rect fill="#F1F1F1" height="73.7779" rx="2.2272" ry="2.2272" style="stroke:#181818;stroke-width:0.44543429844098;" width="44.5434" x="424.0535" y="110.5746"/><text fill="#000000" font-family="sans-serif" font-size="12.4722" font-weight="bold" lengthAdjust="spacing" textLength="12.4722" x="432.9621" y="127.7149">at</text><line style="stroke:#181818;stroke-width:0.89086859688196;" x1="424.9443" x2="467.706" y1="131.3068" y2="131.3068"/><line style="stroke:#181818;stroke-width:0.89086859688196;" x1="424.9443" x2="467.706" y1="133.0886" y2="133.0886"/><text fill="#000000" font-family="sans-serif" font-size="12.4722" lengthAdjust="spacing" textLength="25.8352" x="432.9621" y="149.3379">next</text><line style="stroke:#181818;stroke-width:0.89086859688196;" x1="424.9443" x2="467.706" y1="156.4934" y2="156.4934"/><text fill="#000000" font-family="sans-serif" font-size="12.4722" lengthAdjust="spacing" textLength="26.7261" x="432.9621" y="174.5245">data</text></g><!--entity next2--><g id="elem_next2"><rect fill="#F1F1F1" height="73.7779" rx="2.2272" ry="2.2272" style="stroke:#181818;stroke-width:0.44543429844098;" width="49.8886" x="499.7773" y="110.5746"/><text fill="#000000" font-family="sans-serif" font-size="12.4722" font-weight="bold" lengthAdjust="spacing" textLength="32.0713" x="508.686" y="127.7149">at + 1</text><line style="stroke:#181818;stroke-width:0.89086859688196;" x1="500.6682" x2="548.7751" y1="131.3068" y2="131.3068"/><line style="stroke:#181818;stroke-width:0.89086859688196;" x1="500.6682" x2="548.7751" y1="133.0886" y2="133.0886"/><text fill="#000000" font-family="sans-serif" font-size="12.4722" lengthAdjust="spacing" textLength="25.8352" x="508.686" y="149.3379">next</text><line style="stroke:#181818;stroke-width:0.89086859688196;" x1="500.6682" x2="548.7751" y1="156.4934" y2="156.4934"/><text fill="#000000" font-family="sans-serif" font-size="12.4722" lengthAdjust="spacing" textLength="26.7261" x="508.686" y="174.5245">data</text></g><!--entity prev3--><g id="elem_prev3"><rect fill="#F1F1F1" height="73.7779" rx="2.2272" ry="2.2272" style="stroke:#181818;stroke-width:0.44543429844098;" width="47.216" x="645.4343" y="110.5746"/><text fill="#000000" font-family="sans-serif" font-size="12.4722" font-weight="bold" lengthAdjust="spacing" textLength="29.3987" x="654.343" y="127.7149">at - 1</text><line style="stroke:#181818;stroke-width:0.89086859688196;" x1="646.3252" x2="691.7595" y1="131.3068" y2="131.3068"/><line style="stroke:#181818;stroke-width:0.89086859688196;" x1="646.3252" x2="691.7595" y1="133.0886" y2="133.0886"/><text fill="#000000" font-family="sans-serif" font-size="12.4722" lengthAdjust="spacing" textLength="25.8352" x="654.343" y="149.3379">next</text><line style="stroke:#181818;stroke-width:0.89086859688196;" x1="646.3252" x2="691.7595" y1="156.4934" y2="156.4934"/><text fill="#000000" font-family="sans-serif" font-size="12.4722" lengthAdjust="spacing" textLength="26.7261" x="654.343" y="174.5245">data</text></g><!--entity current3--><g id="elem_current3"><rect fill="#FF6347" height="73.7779" rx="2.2272" ry="2.2272" style="stroke:#181818;stroke-width:0.44543429844098;" width="44.5434" x="686.8597" y="237.9688"/><text fill="#000000" font-family="sans-serif" font-size="12.4722" font-weight="bold" lengthAdjust="spacing" textLength="12.4722" x="695.7684" y="255.1091">at</text><line style="stroke:#181818;stroke-width:0.89086859688196;" x1="687.7506" x2="730.5122" y1="258.701" y2="258.701"/><line style="stroke:#181818;stroke-width:0.89086859688196;" x1="687.7506" x2="730.5122" y1="260.4828" y2="260.4828"/><text fill="#000000" font-family="sans-serif" font-size="12.4722" lengthAdjust="spacing" textLength="25.8352" x="695.7684" y="276.7322">next</text><line style="stroke:#181818;stroke-width:0.89086859688196;" x1="687.7506" x2="730.5122" y1="283.8876" y2="283.8876"/><text fill="#000000" font-family="sans-serif" font-size="12.4722" lengthAdjust="spacing" textLength="26.7261" x="695.7684" y="301.9187">data</text></g><!--entity next3--><g id="elem_next3"><rect fill="#F1F1F1" height="73.7779" rx="2.2272" ry="2.2272" style="stroke:#181818;stroke-width:0.44543429844098;" width="49.8886" x="724.2762" y="110.5746"/><text fill="#000000" font-family="sans-serif" font-size="12.4722" font-weight="bold" lengthAdjust="spacing" textLength="32.0713" x="733.1849" y="127.7149">at + 1</text><line style="stroke:#181818;stroke-width:0.89086859688196;" x1="725.167" x2="773.2739" y1="131.3068" y2="131.3068"/><line style="stroke:#181818;stroke-width:0.89086859688196;" x1="725.167" x2="773.2739" y1="133.0886" y2="133.0886"/><text fill="#000000" font-family="sans-serif" font-size="12.4722" lengthAdjust="spacing" textLength="25.8352" x="733.1849" y="149.3379">next</text><line style="stroke:#181818;stroke-width:0.89086859688196;" x1="725.167" x2="773.2739" y1="156.4934" y2="156.4934"/><text fill="#000000" font-family="sans-serif" font-size="12.4722" lengthAdjust="spacing" textLength="26.7261" x="733.1849" y="174.5245">data</text></g><!--link prev1 to current1--><g id="link_prev1_current1"><path codeLine="25" d="M92.2138,147.5457 C102.735,147.5457 107.9198,147.5457 118.441,147.5457 " fill="none" id="prev1-to-current1" style="stroke:#181818;stroke-width:0.89086859688196;"/><polygon fill="#181818" points="123.7862,147.5457,115.7684,143.9822,119.3318,147.5457,115.7684,151.1091,123.7862,147.5457" style="stroke:#181818;stroke-width:0.89086859688196;"/></g><!--link current1 to next1--><g id="link_current1_next1"><path codeLine="26" d="M168.4543,147.5457 C178.8151,147.5457 183.8396,147.5457 194.2004,147.5457 " fill="none" id="current1-to-next1" style="stroke:#181818;stroke-width:0.89086859688196;"/><polygon fill="#181818" points="199.5457,147.5457,191.5278,143.9822,195.0913,147.5457,191.5278,151.1091,199.5457,147.5457" style="stroke:#181818;stroke-width:0.89086859688196;"/></g><!--link prev2 to next2--><g id="link_prev2_next2"><path codeLine="51" d="M374.1737,110.5657 C380.5256,81.9955 394.2539,44.588 423.608,27.7238 C440.7751,17.8619 450.9844,17.8619 468.1514,27.7238 C497.5768,44.6236 510.629,76.6284 517.462,105.1273 " fill="none" id="prev2-to-next2" style="stroke:#008000;stroke-width:1.78173719376392;"/><polygon fill="#008000" points="518.7082,110.3252,520.3041,101.6975,517.6697,105.9936,513.3736,103.3592,518.7082,110.3252" style="stroke:#008000;stroke-width:1.78173719376392;"/></g><!--link prev2 to current2--><g id="link_prev2_current2"><path codeLine="52" d="M392.4365,147.5457 C402.9577,147.5457 408.1425,147.5457 418.6637,147.5457 " fill="none" id="prev2-to-current2" style="stroke:#FFFFFF;stroke-width:0.89086859688196;"/><polygon fill="#FFFFFF" points="424.0089,147.5457,415.9911,143.9822,419.5546,147.5457,415.9911,151.1091,424.0089,147.5457" style="stroke:#FFFFFF;stroke-width:0.89086859688196;"/></g><!--link current2 to next2--><g id="link_current2_next2"><path codeLine="53" d="M468.6771,147.5457 C479.0379,147.5457 484.0624,147.5457 494.4232,147.5457 " fill="none" id="current2-to-next2" style="stroke:#181818;stroke-width:0.89086859688196;"/><polygon fill="#181818" points="499.7684,147.5457,491.7506,143.9822,495.314,147.5457,491.7506,151.1091,499.7684,147.5457" style="stroke:#181818;stroke-width:0.89086859688196;"/></g><!--link prev3 to next3--><g id="link_prev3_next3"><path codeLine="79" d="M692.8463,147.5457 C703.2695,147.5457 708.3474,147.5457 718.7706,147.5457 " fill="none" id="prev3-to-next3" style="stroke:#008000;stroke-width:1.78173719376392;"/><polygon fill="#008000" points="724.1158,147.5457,716.098,143.9822,719.6615,147.5457,716.098,151.1091,724.1158,147.5457" style="stroke:#008000;stroke-width:1.78173719376392;"/></g><!--reverse link current3 to prev3--><g id="link_current3_prev3"><path codeLine="80" d="M695.9359,232.7068 C690.6263,216.0475 685.9599,201.4343 680.6414,184.7661 " fill="none" id="current3-backto-prev3" style="stroke:#FFFFFF;stroke-width:0.89086859688196;"/><polygon fill="#FFFFFF" points="697.559,237.7996,698.5195,229.0782,696.2064,233.5556,691.7291,231.2425,697.559,237.7996" style="stroke:#FFFFFF;stroke-width:0.89086859688196;"/></g><!--reverse link next3 to current3--><g id="link_next3_current3"><path codeLine="81" d="M735.9965,189.8584 C730.6781,206.5266 726.0134,221.1403 720.7038,237.7996 " fill="none" id="next3-backto-current3" style="stroke:#FFFFFF;stroke-width:0.89086859688196;"/><polygon fill="#FFFFFF" points="737.6214,184.7661,731.7893,191.3213,736.2673,189.0097,738.579,193.4878,737.6214,184.7661" style="stroke:#FFFFFF;stroke-width:0.89086859688196;"/></g><!--link first to second--><g id="link_first_second"><path codeLine="84" d="M16.9473,68.3181 C17.0058,68.1216 17.0649,67.9253 17.1245,67.7291 C17.3629,66.9447 17.6099,66.1637 17.8657,65.3868 C18.8889,62.279 20.0534,59.2351 21.3757,56.2886 C26.6648,44.5022 34.4788,34.2717 45.8797,27.7238 C84.8463,5.3452 209.1403,5.3452 248.1069,27.7238 C273.1849,42.1292 289.2316,70.0178 299.1592,95.2661 C301.6411,101.5782 303.7406,107.7253 305.5031,113.4554 C305.7234,114.1717 305.9385,114.8814 306.1484,115.5842 C306.2008,115.7598 306.253,115.9351 306.3048,116.1099 " fill="none" id="first-second" style="stroke:#FFFFFF;stroke-width:0.89086859688196;"/></g><!--link second to third--><g id="link_second_third"><path codeLine="85" d="M317.17,68.3181 C317.2285,68.1216 317.2876,67.9253 317.3472,67.7291 C317.5856,66.9447 317.8326,66.1637 318.0884,65.3868 C319.1117,62.279 320.2761,59.2351 321.5984,56.2886 C326.8875,44.5022 334.7016,34.2717 346.1024,27.7238 C385.069,5.3452 509.363,5.3452 548.3296,27.7238 C573.4076,42.1292 589.4543,70.0178 599.382,95.2661 C601.8639,101.5782 603.9633,107.7253 605.7258,113.4554 C605.9461,114.1717 606.1612,114.8814 606.3711,115.5842 C606.4235,115.7598 606.4757,115.9351 606.5275,116.1099 " fill="none" id="second-third" style="stroke:#FFFFFF;stroke-width:0.89086859688196;"/></g><!--SRC=[jPJFReCm3CRlF8NL7Ykcabog_UcBJ3kan1sHQAYCkqwQ-kvD0eHeQDfXYq_O_cIRxoVeQzKYxBPRk1hDJN4aTK9OLIjGFHmDzGnV1RYe5Mau4tvKy1eAFfuFUyLGGXKhBovYOl6JOrAwY8bMh4BoDW-lBqHeUJ7_FsPxzVBmpPyF7mmfgTp7yuUbqxk4LjXUt8h9NH7SxR7khFvkhyXihyXbhyXahu3HGG7hrbXyV2T4- -GV7mvTgrDXmc5INnl3c38HCnCHwWaO6S1mOsZ1HMRc8c7DtKbnbukFpCH7pdxANmWvwMKc97yYDChIYOF6Wmg_9BTn-dpI_bZotO5Xshm3]--></g></svg>