<?xml version="1.0" encoding="us-ascii" standalone="no"?><svg xmlns="http://www.w3.org/2000/svg" xmlns:xlink="http://www.w3.org/1999/xlink" contentStyleType="text/css" height="304px" preserveAspectRatio="none" style="width:1242px;height:304px;background:#FFFFFF;" version="1.1" viewBox="0 0 1242 304" width="1242px" zoomAndPan="magnify"><defs/><g><!--cluster Complete Binary Tree (O)\nFull Binary Tree (O)--><g id="cluster_Complete Binary Tree (O)\nFull Binary Tree (O)"><rect fill="none" height="291" rx="2.5" ry="2.5" style="stroke:#181818;stroke-width:1.0;" width="289" x="7" y="7"/><line style="stroke:#181818;stroke-width:1.0;" x1="7" x2="296" y1="51.5438" y2="51.5438"/><text fill="#000000" font-family="sans-serif" font-size="14" font-weight="bold" lengthAdjust="spacing" textLength="173" x="65" y="25.2399">Complete Binary Tree (O)</text><text fill="#000000" font-family="sans-serif" font-size="14" font-weight="bold" lengthAdjust="spacing" textLength="131" x="86" y="45.5118">Full Binary Tree (O)</text></g><!--cluster Complete Binary Tree (O)\nFull Binary Tree (X)--><g id="cluster_Complete Binary Tree (O)\nFull Binary Tree (X)"><rect fill="none" height="291" rx="2.5" ry="2.5" style="stroke:#181818;stroke-width:1.0;" width="289" x="320" y="7"/><line style="stroke:#181818;stroke-width:1.0;" x1="320" x2="609" y1="51.5438" y2="51.5438"/><text fill="#000000" font-family="sans-serif" font-size="14" font-weight="bold" lengthAdjust="spacing" textLength="173" x="378" y="25.2399">Complete Binary Tree (O)</text><text fill="#000000" font-family="sans-serif" font-size="14" font-weight="bold" lengthAdjust="spacing" textLength="129" x="400" y="45.5118">Full Binary Tree (X)</text></g><!--cluster Complete Binary Tree (X)\nFull Binary Tree (O)--><g id="cluster_Complete Binary Tree (X)\nFull Binary Tree (O)"><rect fill="none" height="291" rx="2.5" ry="2.5" style="stroke:#181818;stroke-width:1.0;" width="289" x="633" y="7"/><line style="stroke:#181818;stroke-width:1.0;" x1="633" x2="922" y1="51.5438" y2="51.5438"/><text fill="#000000" font-family="sans-serif" font-size="14" font-weight="bold" lengthAdjust="spacing" textLength="171" x="692" y="25.2399">Complete Binary Tree (X)</text><text fill="#000000" font-family="sans-serif" font-size="14" font-weight="bold" lengthAdjust="spacing" textLength="131" x="712" y="45.5118">Full Binary Tree (O)</text></g><!--cluster Complete Binary Tree (X)\nFull Binary Tree (X)--><g id="cluster_Complete Binary Tree (X)\nFull Binary Tree (X)"><rect fill="none" height="291" rx="2.5" ry="2.5" style="stroke:#181818;stroke-width:1.0;" width="289" x="946" y="7"/><line style="stroke:#181818;stroke-width:1.0;" x1="946" x2="1235" y1="51.5438" y2="51.5438"/><text fill="#000000" font-family="sans-serif" font-size="14" font-weight="bold" lengthAdjust="spacing" textLength="171" x="1005" y="25.2399">Complete Binary Tree (X)</text><text fill="#000000" font-family="sans-serif" font-size="14" font-weight="bold" lengthAdjust="spacing" textLength="129" x="1026" y="45.5118">Full Binary Tree (X)</text></g><g id="elem_t1n1"><ellipse cx="151.1476" cy="81.9181" fill="#F1F1F1" rx="19.1476" ry="15.9181" style="stroke:#181818;stroke-width:0.5;"/><text fill="#000000" font-family="sans-serif" font-size="14" lengthAdjust="spacing" textLength="8" x="146.7818" y="86.253">1</text></g><g id="elem_t1n2"><ellipse cx="115.1476" cy="173.9181" fill="#F1F1F1" rx="19.1476" ry="15.9181" style="stroke:#181818;stroke-width:0.5;"/><text fill="#000000" font-family="sans-serif" font-size="14" lengthAdjust="spacing" textLength="8" x="110.7818" y="178.253">2</text></g><g id="elem_t1n3"><ellipse cx="188.1476" cy="173.9181" fill="#F1F1F1" rx="19.1476" ry="15.9181" style="stroke:#181818;stroke-width:0.5;"/><text fill="#000000" font-family="sans-serif" font-size="14" lengthAdjust="spacing" textLength="8" x="183.7818" y="178.253">3</text></g><g id="elem_t1n4"><ellipse cx="42.1476" cy="265.9181" fill="#F1F1F1" rx="19.1476" ry="15.9181" style="stroke:#181818;stroke-width:0.5;"/><text fill="#000000" font-family="sans-serif" font-size="14" lengthAdjust="spacing" textLength="8" x="37.7818" y="270.253">4</text></g><g id="elem_t1n5"><ellipse cx="115.1476" cy="265.9181" fill="#F1F1F1" rx="19.1476" ry="15.9181" style="stroke:#181818;stroke-width:0.5;"/><text fill="#000000" font-family="sans-serif" font-size="14" lengthAdjust="spacing" textLength="8" x="110.7818" y="270.253">5</text></g><g id="elem_t1n6"><ellipse cx="188.1476" cy="265.9181" fill="#F1F1F1" rx="19.1476" ry="15.9181" style="stroke:#181818;stroke-width:0.5;"/><text fill="#000000" font-family="sans-serif" font-size="14" lengthAdjust="spacing" textLength="8" x="183.7818" y="270.253">6</text></g><g id="elem_t1n7"><ellipse cx="261.1476" cy="265.9181" fill="#F1F1F1" rx="19.1476" ry="15.9181" style="stroke:#181818;stroke-width:0.5;"/><text fill="#000000" font-family="sans-serif" font-size="14" lengthAdjust="spacing" textLength="8" x="256.7818" y="270.253">7</text></g><g id="elem_t2n1"><ellipse cx="464.1476" cy="81.9181" fill="#F1F1F1" rx="19.1476" ry="15.9181" style="stroke:#181818;stroke-width:0.5;"/><text fill="#000000" font-family="sans-serif" font-size="14" lengthAdjust="spacing" textLength="8" x="459.7818" y="86.253">1</text></g><g id="elem_t2n2"><ellipse cx="428.1476" cy="173.9181" fill="#F1F1F1" rx="19.1476" ry="15.9181" style="stroke:#181818;stroke-width:0.5;"/><text fill="#000000" font-family="sans-serif" font-size="14" lengthAdjust="spacing" textLength="8" x="423.7818" y="178.253">2</text></g><g id="elem_t2n3"><ellipse cx="501.1476" cy="173.9181" fill="#F1F1F1" rx="19.1476" ry="15.9181" style="stroke:#181818;stroke-width:0.5;"/><text fill="#000000" font-family="sans-serif" font-size="14" lengthAdjust="spacing" textLength="8" x="496.7818" y="178.253">3</text></g><g id="elem_t2n4"><ellipse cx="355.1476" cy="265.9181" fill="#F1F1F1" rx="19.1476" ry="15.9181" style="stroke:#181818;stroke-width:0.5;"/><text fill="#000000" font-family="sans-serif" font-size="14" lengthAdjust="spacing" textLength="8" x="350.7818" y="270.253">4</text></g><g id="elem_t2n5"><ellipse cx="428.1476" cy="265.9181" fill="#F1F1F1" rx="19.1476" ry="15.9181" style="stroke:#181818;stroke-width:0.5;"/><text fill="#000000" font-family="sans-serif" font-size="14" lengthAdjust="spacing" textLength="8" x="423.7818" y="270.253">5</text></g><g id="elem_t2n6"><ellipse cx="501.1476" cy="265.9181" fill="#F1F1F1" rx="19.1476" ry="15.9181" style="stroke:#181818;stroke-width:0.5;"/><text fill="#000000" font-family="sans-serif" font-size="14" lengthAdjust="spacing" textLength="8" x="496.7818" y="270.253">6</text></g><g id="elem_t2n7"><ellipse cx="574.1476" cy="265.9181" fill="#FFFFFF" rx="19.1476" ry="15.9181" style="stroke:#FFFFFF;stroke-width:0.5;"/><text fill="#FFFFFF" font-family="sans-serif" font-size="14" lengthAdjust="spacing" textLength="8" x="569.7818" y="270.253">7</text></g><g id="elem_t3n1"><ellipse cx="777.1476" cy="81.9181" fill="#F1F1F1" rx="19.1476" ry="15.9181" style="stroke:#181818;stroke-width:0.5;"/><text fill="#000000" font-family="sans-serif" font-size="14" lengthAdjust="spacing" textLength="8" x="772.7818" y="86.253">1</text></g><g id="elem_t3n2"><ellipse cx="741.1476" cy="173.9181" fill="#F1F1F1" rx="19.1476" ry="15.9181" style="stroke:#181818;stroke-width:0.5;"/><text fill="#000000" font-family="sans-serif" font-size="14" lengthAdjust="spacing" textLength="8" x="736.7818" y="178.253">2</text></g><g id="elem_t3n3"><ellipse cx="814.1476" cy="173.9181" fill="#F1F1F1" rx="19.1476" ry="15.9181" style="stroke:#181818;stroke-width:0.5;"/><text fill="#000000" font-family="sans-serif" font-size="14" lengthAdjust="spacing" textLength="8" x="809.7818" y="178.253">3</text></g><g id="elem_t3n4"><ellipse cx="668.1476" cy="265.9181" fill="#FFFFFF" rx="19.1476" ry="15.9181" style="stroke:#FFFFFF;stroke-width:0.5;"/><text fill="#FFFFFF" font-family="sans-serif" font-size="14" lengthAdjust="spacing" textLength="8" x="663.7818" y="270.253">4</text></g><g id="elem_t3n5"><ellipse cx="741.1476" cy="265.9181" fill="#FFFFFF" rx="19.1476" ry="15.9181" style="stroke:#FFFFFF;stroke-width:0.5;"/><text fill="#FFFFFF" font-family="sans-serif" font-size="14" lengthAdjust="spacing" textLength="8" x="736.7818" y="270.253">5</text></g><g id="elem_t3n6"><ellipse cx="814.1476" cy="265.9181" fill="#F1F1F1" rx="19.1476" ry="15.9181" style="stroke:#181818;stroke-width:0.5;"/><text fill="#000000" font-family="sans-serif" font-size="14" lengthAdjust="spacing" textLength="8" x="809.7818" y="270.253">6</text></g><g id="elem_t3n7"><ellipse cx="887.1476" cy="265.9181" fill="#F1F1F1" rx="19.1476" ry="15.9181" style="stroke:#181818;stroke-width:0.5;"/><text fill="#000000" font-family="sans-serif" font-size="14" lengthAdjust="spacing" textLength="8" x="882.7818" y="270.253">7</text></g><g id="elem_t4n1"><ellipse cx="1090.1476" cy="81.9181" fill="#F1F1F1" rx="19.1476" ry="15.9181" style="stroke:#181818;stroke-width:0.5;"/><text fill="#000000" font-family="sans-serif" font-size="14" lengthAdjust="spacing" textLength="8" x="1085.7818" y="86.253">1</text></g><g id="elem_t4n2"><ellipse cx="1054.1476" cy="173.9181" fill="#F1F1F1" rx="19.1476" ry="15.9181" style="stroke:#181818;stroke-width:0.5;"/><text fill="#000000" font-family="sans-serif" font-size="14" lengthAdjust="spacing" textLength="8" x="1049.7818" y="178.253">2</text></g><g id="elem_t4n3"><ellipse cx="1127.1476" cy="173.9181" fill="#F1F1F1" rx="19.1476" ry="15.9181" style="stroke:#181818;stroke-width:0.5;"/><text fill="#000000" font-family="sans-serif" font-size="14" lengthAdjust="spacing" textLength="8" x="1122.7818" y="178.253">3</text></g><g id="elem_t4n4"><ellipse cx="981.1476" cy="265.9181" fill="#F1F1F1" rx="19.1476" ry="15.9181" style="stroke:#181818;stroke-width:0.5;"/><text fill="#000000" font-family="sans-serif" font-size="14" lengthAdjust="spacing" textLength="8" x="976.7818" y="270.253">4</text></g><g id="elem_t4n5"><ellipse cx="1054.1476" cy="265.9181" fill="#F1F1F1" rx="19.1476" ry="15.9181" style="stroke:#181818;stroke-width:0.5;"/><text fill="#000000" font-family="sans-serif" font-size="14" lengthAdjust="spacing" textLength="8" x="1049.7818" y="270.253">5</text></g><g id="elem_t4n6"><ellipse cx="1127.1476" cy="265.9181" fill="#FFFFFF" rx="19.1476" ry="15.9181" style="stroke:#FFFFFF;stroke-width:0.5;"/><text fill="#FFFFFF" font-family="sans-serif" font-size="14" lengthAdjust="spacing" textLength="8" x="1122.7818" y="270.253">6</text></g><g id="elem_t4n7"><ellipse cx="1200.1476" cy="265.9181" fill="#F1F1F1" rx="19.1476" ry="15.9181" style="stroke:#181818;stroke-width:0.5;"/><text fill="#000000" font-family="sans-serif" font-size="14" lengthAdjust="spacing" textLength="8" x="1195.7818" y="270.253">7</text></g><!--link t1n1 to t1n2--><g id="link_t1n1_t1n2"><path d="M145.22,97.46 C138.5,114.26 129.7078,136.2289 122.9978,153.0089 " fill="none" id="t1n1-to-t1n2" style="stroke:#181818;stroke-width:1.0;"/><polygon fill="#181818" points="120.77,158.58,127.8257,151.7085,122.6265,153.9374,120.3976,148.7382,120.77,158.58" style="stroke:#181818;stroke-width:1.0;"/></g><!--link t1n1 to t1n3--><g id="link_t1n1_t1n3"><path d="M156.94,97.46 C163.85,114.26 172.8882,136.2508 179.7882,153.0308 " fill="none" id="t1n1-to-t1n3" style="stroke:#181818;stroke-width:1.0;"/><polygon fill="#181818" points="182.07,158.58,182.3467,148.735,180.1685,153.9557,174.9478,151.7775,182.07,158.58" style="stroke:#181818;stroke-width:1.0;"/></g><!--link t1n2 to t1n4--><g id="link_t1n2_t1n4"><path d="M104.54,187.89 C90.58,205.1 69.8097,230.7102 55.9797,247.7602 " fill="none" id="t1n2-to-t1n4" style="stroke:#181818;stroke-width:1.0;"/><polygon fill="#181818" points="52.2,252.42,60.9761,247.9502,55.3498,248.5369,54.7631,242.9105,52.2,252.42" style="stroke:#181818;stroke-width:1.0;"/></g><!--link t1n2 to t1n5--><g id="link_t1n2_t1n5"><path d="M115,190.27 C115,206.92 115,227.4 115,243.96 " fill="none" id="t1n2-to-t1n5" style="stroke:#181818;stroke-width:1.0;"/><polygon fill="#181818" points="115,249.96,119,240.96,115,244.96,111,240.96,115,249.96" style="stroke:#181818;stroke-width:1.0;"/></g><!--link t1n3 to t1n6--><g id="link_t1n3_t1n6"><path d="M188,190.27 C188,206.92 188,227.4 188,243.96 " fill="none" id="t1n3-to-t1n6" style="stroke:#181818;stroke-width:1.0;"/><polygon fill="#181818" points="188,249.96,192,240.96,188,244.96,184,240.96,188,249.96" style="stroke:#181818;stroke-width:1.0;"/></g><!--link t1n3 to t1n7--><g id="link_t1n3_t1n7"><path d="M198.46,187.89 C212.42,205.1 233.1903,230.7102 247.0203,247.7602 " fill="none" id="t1n3-to-t1n7" style="stroke:#181818;stroke-width:1.0;"/><polygon fill="#181818" points="250.8,252.42,248.2369,242.9105,247.6502,248.5369,242.0239,247.9502,250.8,252.42" style="stroke:#181818;stroke-width:1.0;"/></g><!--link t2n1 to t2n2--><g id="link_t2n1_t2n2"><path d="M458.22,97.46 C451.5,114.26 442.7078,136.2289 435.9978,153.0089 " fill="none" id="t2n1-to-t2n2" style="stroke:#181818;stroke-width:1.0;"/><polygon fill="#181818" points="433.77,158.58,440.8257,151.7085,435.6265,153.9374,433.3976,148.7382,433.77,158.58" style="stroke:#181818;stroke-width:1.0;"/></g><!--link t2n1 to t2n3--><g id="link_t2n1_t2n3"><path d="M469.94,97.46 C476.85,114.26 485.8882,136.2508 492.7882,153.0308 " fill="none" id="t2n1-to-t2n3" style="stroke:#181818;stroke-width:1.0;"/><polygon fill="#181818" points="495.07,158.58,495.3467,148.735,493.1685,153.9557,487.9478,151.7775,495.07,158.58" style="stroke:#181818;stroke-width:1.0;"/></g><!--link t2n2 to t2n4--><g id="link_t2n2_t2n4"><path d="M417.54,187.89 C403.58,205.1 382.8097,230.7102 368.9797,247.7602 " fill="none" id="t2n2-to-t2n4" style="stroke:#181818;stroke-width:1.0;"/><polygon fill="#181818" points="365.2,252.42,373.9761,247.9502,368.3498,248.5369,367.7631,242.9105,365.2,252.42" style="stroke:#181818;stroke-width:1.0;"/></g><!--link t2n2 to t2n5--><g id="link_t2n2_t2n5"><path d="M428,190.27 C428,206.92 428,227.4 428,243.96 " fill="none" id="t2n2-to-t2n5" style="stroke:#181818;stroke-width:1.0;"/><polygon fill="#181818" points="428,249.96,432,240.96,428,244.96,424,240.96,428,249.96" style="stroke:#181818;stroke-width:1.0;"/></g><!--link t2n3 to t2n6--><g id="link_t2n3_t2n6"><path d="M501,190.27 C501,206.92 501,227.4 501,243.96 " fill="none" id="t2n3-to-t2n6" style="stroke:#181818;stroke-width:1.0;"/><polygon fill="#181818" points="501,249.96,505,240.96,501,244.96,497,240.96,501,249.96" style="stroke:#181818;stroke-width:1.0;"/></g><!--link t2n3 to t2n7--><g id="link_t2n3_t2n7"><path d="M511.46,187.89 C525.42,205.1 546.1903,230.7102 560.0203,247.7602 " fill="none" id="t2n3-to-t2n7" style="stroke:#FFFFFF;stroke-width:1.0;"/><polygon fill="#FFFFFF" points="563.8,252.42,561.2369,242.9105,560.6502,248.5369,555.0239,247.9502,563.8,252.42" style="stroke:#FFFFFF;stroke-width:1.0;"/></g><!--link t3n1 to t3n2--><g id="link_t3n1_t3n2"><path d="M771.22,97.46 C764.5,114.26 755.7078,136.2289 748.9978,153.0089 " fill="none" id="t3n1-to-t3n2" style="stroke:#181818;stroke-width:1.0;"/><polygon fill="#181818" points="746.77,158.58,753.8257,151.7085,748.6265,153.9374,746.3976,148.7382,746.77,158.58" style="stroke:#181818;stroke-width:1.0;"/></g><!--link t3n1 to t3n3--><g id="link_t3n1_t3n3"><path d="M782.94,97.46 C789.85,114.26 798.8882,136.2508 805.7882,153.0308 " fill="none" id="t3n1-to-t3n3" style="stroke:#181818;stroke-width:1.0;"/><polygon fill="#181818" points="808.07,158.58,808.3467,148.735,806.1685,153.9557,800.9478,151.7775,808.07,158.58" style="stroke:#181818;stroke-width:1.0;"/></g><!--link t3n2 to t3n4--><g id="link_t3n2_t3n4"><path d="M730.54,187.89 C716.58,205.1 695.8097,230.7102 681.9797,247.7602 " fill="none" id="t3n2-to-t3n4" style="stroke:#FFFFFF;stroke-width:1.0;"/><polygon fill="#FFFFFF" points="678.2,252.42,686.9761,247.9502,681.3498,248.5369,680.7631,242.9105,678.2,252.42" style="stroke:#FFFFFF;stroke-width:1.0;"/></g><!--link t3n2 to t3n5--><g id="link_t3n2_t3n5"><path d="M741,190.27 C741,206.92 741,227.4 741,243.96 " fill="none" id="t3n2-to-t3n5" style="stroke:#FFFFFF;stroke-width:1.0;"/><polygon fill="#FFFFFF" points="741,249.96,745,240.96,741,244.96,737,240.96,741,249.96" style="stroke:#FFFFFF;stroke-width:1.0;"/></g><!--link t3n3 to t3n6--><g id="link_t3n3_t3n6"><path d="M814,190.27 C814,206.92 814,227.4 814,243.96 " fill="none" id="t3n3-to-t3n6" style="stroke:#181818;stroke-width:1.0;"/><polygon fill="#181818" points="814,249.96,818,240.96,814,244.96,810,240.96,814,249.96" style="stroke:#181818;stroke-width:1.0;"/></g><!--link t3n3 to t3n7--><g id="link_t3n3_t3n7"><path d="M824.46,187.89 C838.42,205.1 859.1903,230.7102 873.0203,247.7602 " fill="none" id="t3n3-to-t3n7" style="stroke:#181818;stroke-width:1.0;"/><polygon fill="#181818" points="876.8,252.42,874.2369,242.9105,873.6502,248.5369,868.0239,247.9502,876.8,252.42" style="stroke:#181818;stroke-width:1.0;"/></g><!--link t4n1 to t4n2--><g id="link_t4n1_t4n2"><path d="M1084.22,97.46 C1077.5,114.26 1068.7078,136.2289 1061.9978,153.0089 " fill="none" id="t4n1-to-t4n2" style="stroke:#181818;stroke-width:1.0;"/><polygon fill="#181818" points="1059.77,158.58,1066.8257,151.7085,1061.6265,153.9374,1059.3976,148.7382,1059.77,158.58" style="stroke:#181818;stroke-width:1.0;"/></g><!--link t4n1 to t4n3--><g id="link_t4n1_t4n3"><path d="M1095.94,97.46 C1102.85,114.26 1111.8882,136.2508 1118.7882,153.0308 " fill="none" id="t4n1-to-t4n3" style="stroke:#181818;stroke-width:1.0;"/><polygon fill="#181818" points="1121.07,158.58,1121.3467,148.735,1119.1685,153.9557,1113.9478,151.7775,1121.07,158.58" style="stroke:#181818;stroke-width:1.0;"/></g><!--link t4n2 to t4n4--><g id="link_t4n2_t4n4"><path d="M1043.54,187.89 C1029.58,205.1 1008.8097,230.7102 994.9797,247.7602 " fill="none" id="t4n2-to-t4n4" style="stroke:#181818;stroke-width:1.0;"/><polygon fill="#181818" points="991.2,252.42,999.9761,247.9502,994.3498,248.5369,993.7631,242.9105,991.2,252.42" style="stroke:#181818;stroke-width:1.0;"/></g><!--link t4n2 to t4n5--><g id="link_t4n2_t4n5"><path d="M1054,190.27 C1054,206.92 1054,227.4 1054,243.96 " fill="none" id="t4n2-to-t4n5" style="stroke:#181818;stroke-width:1.0;"/><polygon fill="#181818" points="1054,249.96,1058,240.96,1054,244.96,1050,240.96,1054,249.96" style="stroke:#181818;stroke-width:1.0;"/></g><!--link t4n3 to t4n6--><g id="link_t4n3_t4n6"><path d="M1127,190.27 C1127,206.92 1127,227.4 1127,243.96 " fill="none" id="t4n3-to-t4n6" style="stroke:#FFFFFF;stroke-width:1.0;"/><polygon fill="#FFFFFF" points="1127,249.96,1131,240.96,1127,244.96,1123,240.96,1127,249.96" style="stroke:#FFFFFF;stroke-width:1.0;"/></g><!--link t4n3 to t4n7--><g id="link_t4n3_t4n7"><path d="M1137.46,187.89 C1151.42,205.1 1172.1903,230.7102 1186.0203,247.7602 " fill="none" id="t4n3-to-t4n7" style="stroke:#181818;stroke-width:1.0;"/><polygon fill="#181818" points="1189.8,252.42,1187.2369,242.9105,1186.6502,248.5369,1181.0239,247.9502,1189.8,252.42" style="stroke:#181818;stroke-width:1.0;"/></g><!--SRC=[dPEnJiD038RtFCKfB31qYEsxI20nWCJAmj219KfF8b9we2GL8CIxqrBiOgu6XKodppx9ztznsmmhLru_hf_wE4LtrQLcU7LtGupkzFRiFjri-ludBTrRuRRVPenjCqPNLgLhHZTLgT8Sc8Fco1mr9-QakMVkDG_CW-OryxhuBEmcSulLul8mYq8eRI2CSkIb3OM57DN5Ur6qitDTchc2aIiOkOAHAnYvWf4h6Bb2gjt9yqCtnOk-I_5yVvpYoxG_ViK4aZ0FgX1A6mYZ77bfGs4XHzk93hFy9M0vyyT6Gm0Q0j0GW8b-3-wO7Kn-ngN0buwhGra951Ny2eLGsa0OgOopibTbhgFKGuxg_vcoLuKCKsIO8iCK6Qj2ngfG2ZCarNo9PP0apuCgXD86mYX7NjfGMCYTVI_l17m0]--></g></svg>