<?xml version="1.0" encoding="us-ascii" standalone="no"?><svg xmlns="http://www.w3.org/2000/svg" xmlns:xlink="http://www.w3.org/1999/xlink" contentStyleType="text/css" height="293px" preserveAspectRatio="none" style="width:692px;height:293px;background:#FFFFFF;" version="1.1" viewBox="0 0 692 293" width="692px" zoomAndPan="magnify"><defs/><g><!--cluster Min Heap--><g id="cluster_Min Heap"><rect fill="none" height="280" rx="2.5" ry="2.5" style="stroke:#181818;stroke-width:1.0;" width="333" x="7" y="7"/><line style="stroke:#181818;stroke-width:1.0;" x1="7" x2="340" y1="31.2719" y2="31.2719"/><text fill="#000000" font-family="sans-serif" font-size="14" font-weight="bold" lengthAdjust="spacing" textLength="64" x="141.5" y="25.2399">Min Heap</text></g><!--cluster Max Heap--><g id="cluster_Max Heap"><rect fill="none" height="280" rx="2.5" ry="2.5" style="stroke:#181818;stroke-width:1.0;" width="321" x="364" y="7"/><line style="stroke:#181818;stroke-width:1.0;" x1="364" x2="685" y1="31.2719" y2="31.2719"/><text fill="#000000" font-family="sans-serif" font-size="14" font-weight="bold" lengthAdjust="spacing" textLength="67" x="491" y="25.2399">Max Heap</text></g><g id="elem_t1n1"><ellipse cx="169.799" cy="63.3344" fill="#F1F1F1" rx="22.799" ry="17.3344" style="stroke:#181818;stroke-width:0.5;"/><text fill="#000000" font-family="sans-serif" font-size="14" lengthAdjust="spacing" textLength="16" x="161.799" y="67.4384">10</text></g><g id="elem_t1n2"><ellipse cx="126.799" cy="158.3344" fill="#F1F1F1" rx="22.799" ry="17.3344" style="stroke:#181818;stroke-width:0.5;"/><text fill="#000000" font-family="sans-serif" font-size="14" lengthAdjust="spacing" textLength="16" x="118.799" y="162.4384">15</text></g><g id="elem_t1n3"><ellipse cx="213.799" cy="158.3344" fill="#F1F1F1" rx="22.799" ry="17.3344" style="stroke:#181818;stroke-width:0.5;"/><text fill="#000000" font-family="sans-serif" font-size="14" lengthAdjust="spacing" textLength="16" x="205.799" y="162.4384">20</text></g><g id="elem_t1n4"><ellipse cx="45.799" cy="253.3344" fill="#F1F1F1" rx="22.799" ry="17.3344" style="stroke:#181818;stroke-width:0.5;"/><text fill="#000000" font-family="sans-serif" font-size="14" lengthAdjust="spacing" textLength="16" x="37.799" y="257.4384">35</text></g><g id="elem_t1n5"><ellipse cx="126.799" cy="253.3344" fill="#F1F1F1" rx="22.799" ry="17.3344" style="stroke:#181818;stroke-width:0.5;"/><text fill="#000000" font-family="sans-serif" font-size="14" lengthAdjust="spacing" textLength="16" x="118.799" y="257.4384">40</text></g><g id="elem_t1n6"><ellipse cx="213.9562" cy="253.3346" fill="#F1F1F1" rx="28.4562" ry="17.3346" style="stroke:#181818;stroke-width:0.5;"/><text fill="#000000" font-family="sans-serif" font-size="14" lengthAdjust="spacing" textLength="24" x="201.8567" y="257.4947">100</text></g><g id="elem_t1n7"><ellipse cx="300.799" cy="253.3344" fill="#F1F1F1" rx="22.799" ry="17.3344" style="stroke:#181818;stroke-width:0.5;"/><text fill="#000000" font-family="sans-serif" font-size="14" lengthAdjust="spacing" textLength="16" x="292.799" y="257.4384">35</text></g><g id="elem_t2n1"><ellipse cx="523.9562" cy="63.3346" fill="#F1F1F1" rx="28.4562" ry="17.3346" style="stroke:#181818;stroke-width:0.5;"/><text fill="#000000" font-family="sans-serif" font-size="14" lengthAdjust="spacing" textLength="24" x="511.8567" y="67.4947">100</text></g><g id="elem_t2n2"><ellipse cx="483.799" cy="158.3344" fill="#F1F1F1" rx="22.799" ry="17.3344" style="stroke:#181818;stroke-width:0.5;"/><text fill="#000000" font-family="sans-serif" font-size="14" lengthAdjust="spacing" textLength="16" x="475.799" y="162.4384">40</text></g><g id="elem_t2n3"><ellipse cx="564.799" cy="158.3344" fill="#F1F1F1" rx="22.799" ry="17.3344" style="stroke:#181818;stroke-width:0.5;"/><text fill="#000000" font-family="sans-serif" font-size="14" lengthAdjust="spacing" textLength="16" x="556.799" y="162.4384">35</text></g><g id="elem_t2n4"><ellipse cx="402.799" cy="253.3344" fill="#F1F1F1" rx="22.799" ry="17.3344" style="stroke:#181818;stroke-width:0.5;"/><text fill="#000000" font-family="sans-serif" font-size="14" lengthAdjust="spacing" textLength="16" x="394.799" y="257.4384">10</text></g><g id="elem_t2n5"><ellipse cx="483.799" cy="253.3344" fill="#F1F1F1" rx="22.799" ry="17.3344" style="stroke:#181818;stroke-width:0.5;"/><text fill="#000000" font-family="sans-serif" font-size="14" lengthAdjust="spacing" textLength="16" x="475.799" y="257.4384">15</text></g><g id="elem_t2n6"><ellipse cx="564.799" cy="253.3344" fill="#F1F1F1" rx="22.799" ry="17.3344" style="stroke:#181818;stroke-width:0.5;"/><text fill="#000000" font-family="sans-serif" font-size="14" lengthAdjust="spacing" textLength="16" x="556.799" y="257.4384">50</text></g><g id="elem_t2n7"><ellipse cx="645.799" cy="253.3344" fill="#F1F1F1" rx="22.799" ry="17.3344" style="stroke:#181818;stroke-width:0.5;"/><text fill="#000000" font-family="sans-serif" font-size="14" lengthAdjust="spacing" textLength="16" x="637.799" y="257.4384">40</text></g><!--link t1n1 to t1n2--><g id="link_t1n1_t1n2"><path d="M162.71,80.28 C154.8,97.38 144.7668,119.0634 136.8468,136.2034 " fill="none" id="t1n1-to-t1n2" style="stroke:#181818;stroke-width:1.0;"/><polygon fill="#181818" points="134.33,141.65,141.7362,135.1579,136.4273,137.1111,134.4741,131.8022,134.33,141.65" style="stroke:#181818;stroke-width:1.0;"/></g><!--link t1n1 to t1n3--><g id="link_t1n1_t1n3"><path d="M177.46,80.28 C185.56,97.38 195.8238,119.0865 203.9338,136.2265 " fill="none" id="t1n1-to-t1n3" style="stroke:#181818;stroke-width:1.0;"/><polygon fill="#181818" points="206.5,141.65,206.2664,131.8039,204.3615,137.1304,199.035,135.2255,206.5,141.65" style="stroke:#181818;stroke-width:1.0;"/></g><!--link t1n2 to t1n4--><g id="link_t1n2_t1n4"><path d="M114.7,173.62 C99.38,191.21 77.3419,216.5265 62.0919,234.0265 " fill="none" id="t1n2-to-t1n4" style="stroke:#181818;stroke-width:1.0;"/><polygon fill="#181818" points="58.15,238.55,67.0784,234.3927,61.4349,234.7805,61.0472,229.1369,58.15,238.55" style="stroke:#181818;stroke-width:1.0;"/></g><!--link t1n2 to t1n5--><g id="link_t1n2_t1n5"><path d="M127,176.13 C127,192.95 127,212.82 127,229.7 " fill="none" id="t1n2-to-t1n5" style="stroke:#181818;stroke-width:1.0;"/><polygon fill="#181818" points="127,235.7,131,226.7,127,230.7,123,226.7,127,235.7" style="stroke:#181818;stroke-width:1.0;"/></g><!--link t1n3 to t1n6--><g id="link_t1n3_t1n6"><path d="M214,176.13 C214,192.95 214,212.82 214,229.7 " fill="none" id="t1n3-to-t1n6" style="stroke:#181818;stroke-width:1.0;"/><polygon fill="#181818" points="214,235.7,218,226.7,214,230.7,210,226.7,214,235.7" style="stroke:#181818;stroke-width:1.0;"/></g><!--link t1n3 to t1n7--><g id="link_t1n3_t1n7"><path d="M226.84,173.22 C243.29,190.81 267.5416,216.7279 284.0116,234.3379 " fill="none" id="t1n3-to-t1n7" style="stroke:#181818;stroke-width:1.0;"/><polygon fill="#181818" points="288.11,238.72,284.8838,229.4146,284.6946,235.0682,279.041,234.8791,288.11,238.72" style="stroke:#181818;stroke-width:1.0;"/></g><!--link t2n1 to t2n2--><g id="link_t2n1_t2n2"><path d="M517.03,80.7 C509.69,97.77 500.5702,118.978 493.2602,135.978 " fill="none" id="t2n1-to-t2n2" style="stroke:#181818;stroke-width:1.0;"/><polygon fill="#181818" points="490.89,141.49,498.1199,134.8021,492.8651,136.8967,490.7706,131.6419,490.89,141.49" style="stroke:#181818;stroke-width:1.0;"/></g><!--link t2n1 to t2n3--><g id="link_t2n1_t2n3"><path d="M531.14,80.7 C538.71,97.87 548.1697,119.3198 555.6597,136.3098 " fill="none" id="t2n1-to-t2n3" style="stroke:#181818;stroke-width:1.0;"/><polygon fill="#181818" points="558.08,141.8,558.1096,131.9512,556.0631,137.2249,550.7894,135.1783,558.08,141.8" style="stroke:#181818;stroke-width:1.0;"/></g><!--link t2n2 to t2n4--><g id="link_t2n2_t2n4"><path d="M471.7,173.62 C456.38,191.21 434.3419,216.5265 419.0919,234.0265 " fill="none" id="t2n2-to-t2n4" style="stroke:#181818;stroke-width:1.0;"/><polygon fill="#181818" points="415.15,238.55,424.0784,234.3927,418.4349,234.7805,418.0472,229.1369,415.15,238.55" style="stroke:#181818;stroke-width:1.0;"/></g><!--link t2n2 to t2n5--><g id="link_t2n2_t2n5"><path d="M484,176.13 C484,192.95 484,212.82 484,229.7 " fill="none" id="t2n2-to-t2n5" style="stroke:#181818;stroke-width:1.0;"/><polygon fill="#181818" points="484,235.7,488,226.7,484,230.7,480,226.7,484,235.7" style="stroke:#181818;stroke-width:1.0;"/></g><!--link t2n3 to t2n6--><g id="link_t2n3_t2n6"><path d="M565,176.13 C565,192.95 565,212.82 565,229.7 " fill="none" id="t2n3-to-t2n6" style="stroke:#181818;stroke-width:1.0;"/><polygon fill="#181818" points="565,235.7,569,226.7,565,230.7,561,226.7,565,235.7" style="stroke:#181818;stroke-width:1.0;"/></g><!--link t2n3 to t2n7--><g id="link_t2n3_t2n7"><path d="M577.3,173.62 C592.62,191.21 614.6581,216.5265 629.9081,234.0265 " fill="none" id="t2n3-to-t2n7" style="stroke:#181818;stroke-width:1.0;"/><polygon fill="#181818" points="633.85,238.55,630.9528,229.1369,630.5651,234.7805,624.9216,234.3927,633.85,238.55" style="stroke:#181818;stroke-width:1.0;"/></g><!--SRC=[TP6n3W8X44Hxlc93Vudi0jTPs_WHXAEmkHZHnCJuxtegOu0xoZSxx334S9b87qyp7L8uQteeUfzRJZ7aHDhiD8LCLpERHd15u5fWEAGM10vR2nOErow7uhVk6jL7MGBIC0txVw8A2SOOpFR8OKp0V8z6zLGgVfiBzwtcVk6vhSv2uFLNSLkTWSEk_mAtrJau_DRoqXoZfXAeGe8n1hCzSXWJCD-ZfRaN]--></g></svg>